<svg width="41" height="41" viewBox="0 0 41 41" fill="none" xmlns="http://www.w3.org/2000/svg">
<path d="M40.6795 20.6885C40.6795 9.67436 31.753 0.747803 20.7389 0.747803C9.72478 0.747803 0.798218 9.67436 0.798218 20.6885C0.798218 30.6432 8.08901 38.8921 17.6231 40.3876V26.4526H12.5601V20.6885H17.6231V16.2953C17.6231 11.2984 20.5987 8.53713 25.1554 8.53713C27.3365 8.53713 29.6186 8.92659 29.6186 8.92659V13.8339H27.1027C24.6257 13.8339 23.8547 15.3722 23.8547 16.9496V20.6885H29.385L28.5009 26.4526H23.8547V40.3876C33.3887 38.8921 40.6795 30.6432 40.6795 20.6885Z" fill="#087BEA"/>
<path d="M28.5009 26.4526L29.385 20.6884H23.8547V16.9496C23.8547 15.3722 24.6257 13.8338 27.1027 13.8338H29.6186V8.92657C29.6186 8.92657 27.3365 8.53711 25.1554 8.53711C20.5987 8.53711 17.6231 11.2984 17.6231 16.2953V20.6884H12.5601V26.4526H17.6231V40.3876C18.6397 40.5473 19.6795 40.6291 20.7389 40.6291C21.7983 40.6291 22.8381 40.5473 23.8547 40.3876V26.4526H28.5009Z" fill="white"/>
</svg>
