<svg width="47" height="46" viewBox="0 0 47 46" fill="none" xmlns="http://www.w3.org/2000/svg">
<path d="M38.7404 19.9194H23.5371V26.1637H32.2246C32.0449 27.1514 31.6668 28.0923 31.1132 28.9298C30.5596 29.7672 29.842 30.4837 29.0037 31.0359V35.0857H34.2205C35.8098 33.5551 37.0596 31.7074 37.8888 29.6626C38.718 27.6178 39.1081 25.4216 39.0338 23.2163C39.0345 22.1108 38.9363 21.0074 38.7404 19.9194V19.9194Z" fill="#4285F4"/>
<path d="M34.2205 35.0858L29.0036 31.0359C27.376 32.0834 25.4722 32.6201 23.5371 32.5771C21.5245 32.552 19.5706 31.8963 17.9503 30.7024C16.33 29.5085 15.125 27.8364 14.5049 25.9216H9.11142V30.0997C10.4542 32.7747 12.5145 35.0235 15.0621 36.5947C17.6096 38.166 20.5439 38.9977 23.5371 38.997C27.4667 39.1035 31.2885 37.7044 34.2205 35.0858Z" fill="#34A853"/>
<path d="M13.9988 22.8553C14.001 21.8108 14.1719 20.7735 14.5049 19.7835V15.6055H9.11141C7.98236 17.8553 7.39441 20.3377 7.39441 22.8548C7.39441 25.372 7.98236 27.8544 9.11141 30.1042L14.5049 25.9262C14.172 24.9365 14.0011 23.8995 13.9988 22.8553Z" fill="#FBBC05"/>
<path d="M29.7073 15.5429L34.3373 10.9129C31.415 8.17008 27.5446 6.66467 23.5371 6.71202C20.5444 6.71085 17.6104 7.54189 15.063 9.11226C12.5155 10.6826 10.4549 12.9305 9.11142 15.6046L14.5049 19.7826C15.125 17.8679 16.33 16.1958 17.9503 15.0019C19.5706 13.808 21.5245 13.1523 23.5371 13.1272C25.8315 13.0893 28.0485 13.9572 29.7073 15.5429Z" fill="#EA4335"/>
</svg>
