<svg width="318" height="310" viewBox="0 0 318 310" fill="none" xmlns="http://www.w3.org/2000/svg">
<g clip-path="url(#clip0_1120_12079)">
<path d="M113.856 52.1182L110.429 53.1697L108.128 47.8415L102.926 48.7609L100.555 45.0563L98.678 46.2594L101.853 51.2135L106.781 50.343L109.174 55.8864L114.33 54.3019L113.856 52.1182Z" fill="#50BFA5"/>
<path d="M305.558 210.847L302.131 211.899L299.83 206.57L294.631 207.49L292.257 203.785L290.38 204.986L293.555 209.942L298.483 209.07L300.877 214.613L306.032 213.031L305.558 210.847Z" fill="#50BFA5"/>
<path d="M92.7428 306.836C92.7428 306.836 74.4583 244.844 72.9916 231.17C71.5249 217.496 81.7501 221.731 81.7501 221.731C81.7501 221.731 73.148 195.674 79.3667 189.49C85.5855 183.306 91.1979 194.833 91.1979 194.833C91.1979 194.833 93.0802 163.201 99.712 163.192C112.061 163.17 111.819 197.687 111.819 197.687C111.819 197.687 114.97 184.174 121.597 187.879C131.571 193.466 117.268 220.548 117.268 220.548C117.268 220.548 129.979 220.548 134.44 226.969C142.439 238.469 92.7428 306.836 92.7428 306.836Z" fill="#50BFA5"/>
<path d="M98.7196 298.632C98.7196 298.632 46.0097 289.814 34.5451 280.471C23.0806 271.128 34.4278 266.917 34.4278 266.917C34.4278 266.917 7.9494 253.338 8.25495 244.105C8.56051 234.872 21.7166 239.567 21.7166 239.567C21.7166 239.567 -0.593989 214.117 4.68849 209.282C14.525 200.281 40.319 226.737 40.319 226.737C40.319 226.737 32.6605 214.156 40.7272 212.163C52.8908 209.162 61.8669 240.183 61.8669 240.183C61.8669 240.183 59.5862 227.932 67.9781 229.566C83.0237 232.493 98.7196 298.632 98.7196 298.632Z" fill="#50BFA5"/>
<path d="M67.9731 229.566C59.5666 228.045 61.862 240.183 61.862 240.183C61.862 240.183 52.8859 209.162 40.7223 212.163C32.6556 214.156 40.314 226.737 40.314 226.737C40.314 226.737 14.525 200.284 4.69336 209.282L98.5607 298.647C96.8716 290.11 82.0704 232.114 67.9731 229.566Z" fill="#3C8F7C"/>
<path d="M113.716 305.904C113.716 305.904 85.957 277.666 71.9796 274.725C58.0022 271.783 60.5151 281.733 60.5151 281.733C60.5151 281.733 32.7802 257.471 26.3513 263.349C19.9224 269.228 26.8769 274.903 26.8769 274.903C26.8769 274.903 3.77425 270.81 0.476667 278.393C-4.60537 290.044 33.3889 296.387 33.3889 296.387C33.3889 296.387 17.4657 297.493 21.1666 304.799C26.7204 315.817 113.716 305.904 113.716 305.904Z" fill="#355389"/>
<path d="M0.469299 278.393C3.77421 270.812 26.8695 274.903 26.8695 274.903C26.8695 274.903 19.9174 269.228 26.3439 263.349C32.7704 257.471 59.6448 278.434 59.6448 278.434C59.6448 278.434 53.3088 266.318 67.2887 269.26C81.2685 272.201 113.716 305.904 113.716 305.904L0.469299 278.393Z" fill="#003096"/>
<path d="M157.91 14.6667C148.565 16.2023 145.79 28.4701 153.559 33.9573C154.948 34.9556 155.932 36.4207 156.331 38.0849L157.744 43.7897C157.932 44.5481 158.398 45.2078 159.05 45.6378C159.703 46.0678 160.493 46.2364 161.264 46.1102L164.803 45.5258C165.574 45.3999 166.269 44.9878 166.749 44.3718C167.229 43.7558 167.46 42.9812 167.394 42.2027C166.905 36.3097 166.297 34.1749 168.211 31.5463C173.811 23.8608 167.25 13.1262 157.91 14.6667Z" fill="#F7CC7F"/>
<path d="M158.863 39.6058C158.254 34.5588 157.396 29.2282 157.11 27.717C151.755 28.0129 153.791 22.3668 156.262 24.6629C156.966 25.3157 157.299 26.2034 157.519 27.1766C159.299 27.0159 161.032 26.511 162.62 25.6899C162.535 24.4452 162.412 23.4891 162.76 22.7042C163.285 21.5011 164.808 21.1735 165.429 22.3472C165.544 22.572 165.613 22.8179 165.631 23.07C165.649 23.3222 165.616 23.5753 165.534 23.8144C165.175 24.8096 164.094 25.4673 163.153 25.9809C163.434 29.9935 163.823 34.038 164.314 38.0189L163.811 38.0824C163.322 34.17 162.94 30.1867 162.659 26.24C161.082 27.0241 159.375 27.5106 157.621 27.6754C157.988 29.6096 158.797 34.8033 159.369 39.5423L158.863 39.6058ZM154.566 26.5286C155.055 27.0396 155.839 27.2622 157.01 27.2133C156.81 26.355 156.521 25.5847 155.922 25.037C154.585 23.7997 153.769 25.6679 154.566 26.5286ZM163.227 22.9096C162.936 23.5772 163.046 24.4355 163.114 25.4209C163.879 24.9856 164.767 24.4428 165.055 23.6432C165.258 23.0832 165.031 22.2934 164.461 22.1467C164.397 22.132 163.432 22.4401 163.227 22.9096Z" fill="#FAE0B2"/>
<path d="M156.289 37.943C156.289 37.9895 156.318 38.036 156.331 38.0849L157.744 43.7897C157.932 44.548 158.398 45.2078 159.05 45.6378C159.703 46.0677 160.493 46.2364 161.264 46.1102L164.803 45.5258C165.574 45.3999 166.269 44.9878 166.749 44.3718C167.229 43.7558 167.46 42.9812 167.394 42.2027C167.177 39.5814 166.935 37.7034 166.905 36.1971L156.289 37.943Z" fill="#96D9C9"/>
<path d="M150.982 10.4045L148.183 5.30374C148.067 5.06788 148.046 4.79607 148.125 4.54513C148.204 4.29419 148.377 4.08356 148.608 3.95726C148.838 3.83095 149.109 3.79876 149.363 3.86742C149.617 3.93607 149.834 4.10025 149.97 4.32563L152.764 9.42645C152.894 9.6638 152.924 9.94297 152.848 10.2025C152.772 10.4621 152.596 10.6808 152.358 10.8105C152.121 10.9402 151.842 10.9703 151.583 10.8941C151.323 10.818 151.104 10.6419 150.975 10.4045H150.982Z" fill="#FAE0B2"/>
<path d="M144.876 22.758L138.787 22.225C138.517 22.2016 138.268 22.0722 138.094 21.8651C137.92 21.6581 137.836 21.3904 137.859 21.1209C137.882 20.8515 138.012 20.6023 138.219 20.4283C138.426 20.2543 138.693 20.1696 138.963 20.193L145.054 20.726C145.324 20.7497 145.573 20.8794 145.746 21.0867C145.92 21.294 146.004 21.5618 145.981 21.8313C145.957 22.1007 145.827 22.3498 145.62 22.5236C145.413 22.6974 145.145 22.7817 144.876 22.758Z" fill="#FAE0B2"/>
<path d="M138.838 41.4227C138.743 41.3282 138.668 41.2159 138.617 41.0924C138.566 40.9688 138.539 40.8363 138.539 40.7025C138.539 40.5688 138.566 40.4363 138.617 40.3127C138.668 40.1891 138.743 40.0769 138.838 39.9824C140.338 38.4997 141.975 37.1627 143.727 35.9893C143.952 35.8508 144.221 35.8049 144.479 35.8611C144.737 35.9174 144.963 36.0714 145.109 36.2909C145.256 36.5104 145.312 36.7782 145.265 37.038C145.218 37.2977 145.073 37.5293 144.859 37.6839C143.213 38.7852 141.675 40.0403 140.266 41.4324C140.074 41.6187 139.817 41.7221 139.55 41.7203C139.283 41.7184 139.027 41.6115 138.838 41.4227Z" fill="#FAE0B2"/>
<path d="M166.028 10.1283C165.898 10.095 165.775 10.0362 165.668 9.95539C165.56 9.87457 165.47 9.77329 165.402 9.65738C165.334 9.54147 165.289 9.41321 165.271 9.28C165.252 9.14679 165.26 9.01125 165.294 8.88119C165.985 6.29308 166.406 3.64057 166.551 0.965894C166.565 0.695784 166.686 0.442402 166.887 0.261494C167.088 0.0805867 167.353 -0.0130294 167.623 0.00123805C167.893 0.0155055 168.146 0.136488 168.327 0.337573C168.508 0.538658 168.601 0.803376 168.587 1.07349C168.435 3.88949 167.992 6.68217 167.265 9.40692C167.195 9.66565 167.026 9.8864 166.794 10.0214C166.563 10.1564 166.287 10.1948 166.028 10.1283Z" fill="#FAE0B2"/>
<path d="M172.303 17.9604C172.264 17.8321 172.251 17.6975 172.264 17.5641C172.277 17.4308 172.317 17.3013 172.38 17.1832C172.444 17.0651 172.53 16.9607 172.633 16.8759C172.737 16.791 172.856 16.7275 172.985 16.6889L179.316 14.7816C179.444 14.7429 179.579 14.7299 179.713 14.7433C179.846 14.7567 179.975 14.7962 180.094 14.8597C180.212 14.9232 180.316 15.0093 180.401 15.1131C180.486 15.217 180.55 15.3366 180.588 15.465C180.627 15.5935 180.64 15.7283 180.627 15.8618C180.613 15.9952 180.574 16.1248 180.51 16.243C180.447 16.3611 180.361 16.4657 180.257 16.5506C180.153 16.6355 180.033 16.6991 179.905 16.7378L173.574 18.6475C173.314 18.725 173.034 18.6961 172.796 18.5673C172.558 18.4384 172.38 18.2201 172.303 17.9604Z" fill="#FAE0B2"/>
<path d="M182.704 34.8131C182.611 34.8128 182.518 34.8005 182.428 34.7764C180.23 34.1558 178.104 33.3033 176.087 32.2334C175.966 32.1717 175.859 32.0868 175.772 31.9834C175.685 31.88 175.619 31.7602 175.578 31.6311C175.538 31.502 175.523 31.366 175.536 31.2313C175.548 31.0965 175.588 30.9656 175.651 30.8461C175.715 30.7267 175.802 30.6211 175.906 30.5355C176.011 30.4499 176.132 30.3861 176.262 30.3477C176.391 30.3093 176.528 30.2971 176.662 30.3119C176.797 30.3266 176.927 30.368 177.045 30.4337C178.933 31.4358 180.923 32.2334 182.98 32.8129C183.216 32.8803 183.42 33.0307 183.554 33.2365C183.689 33.4423 183.744 33.6896 183.71 33.933C183.677 34.1763 183.556 34.3994 183.372 34.5611C183.187 34.7228 182.95 34.8123 182.704 34.8131Z" fill="#FAE0B2"/>
<path d="M291.663 64.9191L290.351 70.2082L281.609 69.0345L278.735 76.5317L272.049 76.7248L272.147 80.1091L281.089 79.8523L283.812 72.7488L292.905 73.969L294.883 66.0073L291.663 64.9191Z" fill="#F48C7F"/>
<path d="M248.406 307.53H94.7375C88.8708 307.53 84.1115 302.593 84.1115 296.505V289.946C84.1115 283.858 88.8684 278.921 94.7375 278.921H248.406C241.378 286.892 241.256 299.075 248.125 307.198L248.406 307.53Z" fill="#B75742"/>
<path d="M246.038 282.2H160.802C154.935 282.2 150.176 287.137 150.176 293.225C150.176 299.317 154.932 304.251 160.802 304.251H246.045C244.091 300.906 243.06 297.101 243.059 293.227C243.058 289.352 244.086 285.547 246.038 282.2Z" fill="#FAE0B2"/>
<path d="M194.423 259.051C194.47 258.949 194.489 258.837 194.48 258.726C194.47 258.614 194.431 258.507 194.367 258.416C194.303 258.324 194.215 258.251 194.114 258.204C194.013 258.156 193.901 258.136 193.79 258.146H112.477C106.102 258.146 100.937 262.792 100.937 268.536C100.937 274.272 106.102 278.926 112.477 278.926H193.812C193.923 278.935 194.036 278.915 194.137 278.867C194.239 278.819 194.326 278.745 194.39 278.653C194.454 278.561 194.493 278.454 194.502 278.342C194.512 278.23 194.492 278.118 194.445 278.016C192.864 275.106 192.035 271.848 192.031 268.536C192.027 265.225 192.849 261.964 194.423 259.051Z" fill="#86B1F2"/>
<path d="M193.909 260.08H153.61C146.13 260.08 140.068 263.978 140.068 268.785C140.068 273.593 146.13 277.493 153.61 277.493H194.173C192.811 274.801 192.079 271.834 192.033 268.817C191.988 265.8 192.629 262.812 193.909 260.08Z" fill="#F7CC7F"/>
<path d="M183.501 264.208H178.25C177.123 264.208 176.207 264.587 176.207 265.054V265.129H183.498L183.501 264.208Z" fill="#B75742"/>
<path d="M187.979 266.33C187.979 265.156 186.608 264.208 184.916 264.208H178.182C179.465 264.208 180.504 264.929 180.504 265.817L180.472 288.58L184.193 285.645L187.986 288.58L187.979 266.33Z" fill="#F47458"/>
<path d="M179.472 257.398H132.16C127.965 257.398 124.565 253.358 124.565 248.377C124.565 243.396 127.965 239.359 132.16 239.359H179.472C175.857 244.359 175.715 251.693 179.135 256.884L179.472 257.398Z" fill="#FAE0B2"/>
<path d="M124.57 248.377C124.57 243.396 128.051 239.359 132.346 239.359H180.374C180.49 239.35 180.598 239.295 180.673 239.206C180.749 239.118 180.786 239.003 180.778 238.887C180.784 238.772 180.746 238.66 180.671 238.573C180.595 238.487 180.489 238.434 180.374 238.425H104.183C99.4432 238.425 95.6005 242.88 95.6005 248.377C95.6005 253.876 99.4432 258.332 104.183 258.332H180.374C180.489 258.322 180.594 258.269 180.67 258.182C180.745 258.096 180.784 257.984 180.778 257.87C180.782 257.812 180.776 257.754 180.758 257.699C180.74 257.644 180.712 257.593 180.674 257.55C180.637 257.506 180.591 257.47 180.539 257.444C180.488 257.418 180.432 257.402 180.374 257.398H132.346C128.051 257.398 124.57 253.358 124.57 248.377Z" fill="#003096"/>
<path d="M171.212 243.79H165.964C164.835 243.79 163.918 244.164 163.918 244.621V244.697H171.212V243.79Z" fill="#184655"/>
<path d="M175.688 245.873C175.688 244.724 174.317 243.79 172.628 243.79H165.891C167.174 243.79 168.213 244.499 168.213 245.369L168.181 267.692L171.904 264.821L175.696 267.692L175.688 245.873Z" fill="#3C8F7C"/>
<path d="M254.855 105.909L261.841 104.07L257.106 167.231L248.726 167.51L252.953 108.203C252.991 107.67 253.195 107.162 253.536 106.751C253.877 106.339 254.338 106.045 254.855 105.909Z" fill="#184655"/>
<path d="M257.732 169.031C257.569 169.049 257.405 169.049 257.243 169.031C255.857 168.867 254.83 167.488 254.95 165.95L259.595 106.559C259.714 105.021 260.937 103.906 262.325 104.07C263.713 104.234 264.738 105.616 264.618 107.154L259.973 166.544C259.876 167.894 258.917 168.923 257.732 169.031Z" fill="#F7CC7F"/>
<path d="M193.45 172.195C193.45 172.239 193.45 172.281 193.45 172.325C193.667 174.741 195.54 176.55 197.63 176.362L256.615 171.08C258.705 170.894 260.22 168.784 260.003 166.368C260.003 166.265 259.981 166.165 259.964 166.065L193.45 172.195Z" fill="#F7CC7F"/>
<path d="M234.524 235.985C230.662 238.127 218.855 234.371 218.855 234.028C218.686 237.256 205.635 268.849 205.635 268.849V278.569C205.635 278.569 232.525 279.85 232.141 277.473C231.757 275.096 230.307 276.642 224.944 272.152C224.455 271.754 216.936 270.005 218.972 265.55C223.089 256.569 231.806 241.594 234.524 235.985Z" fill="#F7A491"/>
<path d="M204.763 278.921H234.199C235.26 278.813 235.509 277.943 235.133 277.422C234.36 276.341 228.718 273.788 224.927 272.096C218.327 272.866 206.711 270.326 205.648 268.819C202.851 272.573 204.161 278.798 204.763 278.921Z" fill="#3C8F7C"/>
<path d="M198.295 213.305C197.896 212.109 223.639 201.181 224.79 202.431C226.829 204.631 210.857 246.096 210.857 246.096L229.19 251.703C229.19 251.703 248.257 203.807 247.463 195.046C246.668 186.285 237.115 176.332 216.418 182.702C195.721 189.072 198.295 213.305 198.295 213.305Z" fill="#355389"/>
<path d="M251.604 241.435C247.257 240.645 241.625 240.42 237.118 240.342C237.648 244.357 240.227 264.949 239.758 266.215C238.57 269.32 236.413 271.958 233.607 273.739C233.607 273.739 253.596 291.78 254.803 289.697C256.011 287.614 253.911 287.892 252.603 281.019C252.488 280.407 249.597 270.812 249.426 265.638C249.078 255.769 251.454 246.917 251.604 241.435Z" fill="#F7A491"/>
<path d="M245.189 174.068C242.4 172.581 235.167 172.528 227.203 173.044C211.683 174.074 196.359 177.083 181.602 181.998L171.723 185.27L171.755 175.139C171.755 175.139 140.329 169.879 139.244 177.67C137.599 189.407 139.642 213.224 150.112 218.54C182.636 235.055 228.213 192.231 228.379 197.834C228.599 205.358 234.942 233.358 236.563 245.616C241.07 245.695 248.817 245.692 252.178 244.919C252.821 220.905 253.129 178.306 245.189 174.068Z" fill="#003096"/>
<path d="M233.006 274.162L255.478 292.115C256.368 292.707 257.106 292.196 257.15 291.55C257.238 290.223 254.49 284.672 252.63 280.96C247.032 277.368 239.648 268 239.782 266.166C237.406 268.166 232.617 273.69 233.006 274.162Z" fill="#3C8F7C"/>
<path d="M182.137 76.138C181.384 69.235 180.59 62.3076 174.869 57.2484C170.24 53.155 164.358 52.4606 158.536 54.6515C142.048 60.8576 150.542 75.5047 129.52 90.274C122.986 94.8638 115.787 98.0035 110.869 104.183C103.985 112.834 106.583 123.236 112.856 130.183C142.879 163.419 176.395 118.534 178.803 107.758C180.592 99.7421 182.623 80.581 182.137 76.138Z" fill="#13375B"/>
<path d="M176.05 114.944C174.532 112.156 172.871 109.449 171.073 106.833C168.529 102.31 161.958 100.023 161.958 100.023C161.958 100.023 159.758 100.067 157.235 100.192C157.144 100.507 156.976 100.794 156.746 101.028C155.798 101.74 150.361 100.823 146.851 103.207C135.081 113.299 138.337 162.216 139.273 177.665L175.116 178.005C175.116 178.005 170.597 144.749 177.879 136.22C182.944 130.278 179.68 121.659 176.05 114.944Z" fill="#50BFA5"/>
<path d="M159.885 83.4787C159.885 83.4787 157.915 97.5536 156.538 100.974C155.162 104.395 164.116 111.712 171.545 113.934C178.974 116.157 169.272 106.379 169.589 102.72C169.907 99.0623 171.252 81.7523 171.252 81.7523L159.885 83.4787Z" fill="#F7A491"/>
<path d="M170.865 86.7137C171.083 83.8504 171.242 81.7499 171.242 81.7499L159.885 83.4787C159.885 83.4787 159.599 85.1317 159.281 87.4693C163.886 90.142 168.025 89.2984 170.865 86.7137Z" fill="#F47458"/>
<path d="M163.446 57.7692C160.488 58.5936 157.92 60.4475 156.206 62.9972C153.444 67.2152 151.547 79.6371 160.65 85.4349C169.753 91.2326 176.83 83.0312 176.947 75.0327C177.065 67.0343 175.351 56.3583 163.446 57.7692Z" fill="#F7A491"/>
<path d="M179.032 72.5288C178.255 74.4581 176.715 75.6563 175.591 75.2039C174.466 74.7515 174.185 72.8198 174.962 70.8905C175.74 68.9612 177.28 67.763 178.402 68.2154C179.524 68.6677 179.807 70.5995 179.032 72.5288Z" fill="#F7A491"/>
<path d="M164.788 57.5076C164.788 57.5076 159.083 70.311 154.069 71.4456C149.056 72.5802 149.129 79.0259 149.129 79.0259C149.129 79.0259 149.242 64.1465 153.94 60.7353C158.638 57.3242 164.788 57.5076 164.788 57.5076Z" fill="#13375B"/>
<path d="M156.062 74.1084C156.722 76.1869 156.118 78.2336 154.712 78.6811C153.307 79.1285 151.632 77.8032 150.972 75.7247C150.312 73.6463 150.916 71.5971 152.322 71.1497C153.727 70.7022 155.402 72.0348 156.062 74.1084Z" fill="#F7A491"/>
<path d="M220.173 166.551C218.024 165.774 214.822 165.676 214.875 165.392C215.091 164.243 224.592 167.931 223.309 166.253C222.595 165.319 215.487 162.011 213.756 162.556C212.077 163.086 201.067 166.177 201.067 166.177L170.973 159.123C170.973 159.123 163.378 141.857 162.635 127.021C156.357 127.872 152.082 129.423 146.626 132.452C149.256 146.635 155.653 169.635 162.725 173.951C165.698 175.765 201.216 171.777 201.216 171.777C201.216 171.777 209.038 171.224 210.321 170.733C211.299 170.359 213.79 168.953 215.147 168.566C218.237 167.693 223.737 169.889 223.754 169.283C223.766 168.843 222.37 167.346 220.173 166.551Z" fill="#F7A491"/>
<path d="M162.821 111.171C162.532 106.608 160.802 102.2 155.947 100.781C152.938 99.901 149.562 100.742 147.147 102.708C144.287 105.046 143.48 108.794 143.502 112.342C143.531 120.412 144.081 128.755 145.553 136.69C151.009 133.66 157.379 131.839 163.659 130.99C163.667 130.941 163.205 117.204 162.821 111.171Z" fill="#96D9C9"/>
<path d="M237.831 44.6186L229.841 46.7998L228.12 37.1166L230.735 36.652L231.948 43.4718L237.132 42.056L237.831 44.6186Z" fill="#50BFA5"/>
<path d="M207.801 219.08H86.7418C84.9367 219.081 83.2057 219.799 81.9295 221.076C80.6533 222.353 79.9364 224.085 79.9364 225.89V231.617C79.9364 233.423 80.6533 235.155 81.9295 236.432C83.2057 237.709 84.9367 238.427 86.7418 238.427H207.801L207.738 238.361C205.247 235.767 203.861 232.305 203.872 228.708C203.884 225.111 205.293 221.658 207.801 219.08Z" fill="#F47458"/>
<path d="M205.66 221.944H140.943C139.137 221.944 137.406 222.661 136.129 223.938C134.852 225.216 134.135 226.948 134.135 228.754C134.135 230.56 134.852 232.292 136.129 233.569C137.406 234.846 139.137 235.564 140.943 235.564H205.657C204.488 233.485 203.874 231.139 203.875 228.754C203.875 226.368 204.49 224.023 205.66 221.944Z" fill="#FAE0B2"/>
<path d="M28.2018 109.176L31.5996 112.418C39.6386 120.088 46.1944 129.175 50.9377 139.223L51.4584 140.326C51.4584 140.326 60.3587 141.113 61.6029 133.066C53.8757 124.382 47.3072 114.731 42.0619 104.356L40.4534 100.593L28.2018 109.176Z" fill="#003096"/>
<path d="M40.4461 100.583C40.8812 101.209 38.4905 103.63 35.1123 105.987C31.734 108.344 28.6222 109.78 28.1847 109.166C27.7471 108.552 30.1402 106.09 33.5307 103.733C36.9212 101.376 40.0085 99.9573 40.4461 100.583Z" fill="#86B1F2"/>
<path d="M40.4583 100.605V100.593C40.4583 100.593 33.6823 106.33 30.8907 106.914L31.7536 108.088C32.9153 107.452 34.04 106.751 35.122 105.987C38.4563 103.657 40.8274 101.265 40.4583 100.605Z" fill="#355389"/>
<path d="M49.5102 117.26C49.5224 118.238 49.1435 122.517 42.0448 124.297C42.5125 124.933 42.9713 125.575 43.421 126.224C47.9164 124.894 49.9355 122.588 50.8449 120.83C50.9866 120.554 51.1602 120.18 51.2775 119.891C50.6762 119.02 50.0871 118.143 49.5102 117.26Z" fill="#B75742"/>
<path d="M42.6803 123.036L32.2351 122.661L34.7113 124.764L33.23 127.449L43.1203 124.928L42.6803 123.036Z" fill="#B75742"/>
<path d="M43.6337 125.466L39.923 131.934L42.5337 130.941L43.5383 132.993L45.2837 126.192L43.6337 125.466Z" fill="#B75742"/>
<path d="M45.0514 127.219C44.3747 127.286 43.6937 127.148 43.0952 126.826C42.4967 126.503 42.0079 126.009 41.6911 125.407C41.3743 124.806 41.2438 124.123 41.3164 123.447C41.389 122.77 41.6614 122.131 42.0987 121.61C42.536 121.09 43.1185 120.711 43.7719 120.523C44.4252 120.334 45.1198 120.345 45.7671 120.553C46.4143 120.762 46.9849 121.158 47.406 121.692C47.8271 122.226 48.0796 122.873 48.1314 123.552C48.1703 123.995 48.1215 124.441 47.9877 124.866C47.854 125.29 47.6379 125.684 47.3518 126.024C47.0657 126.365 46.7153 126.646 46.3205 126.851C45.9258 127.056 45.4945 127.181 45.0514 127.219Z" fill="#F47458"/>
<path d="M34.1613 33.8815L36.4347 38.3832L41.5729 38.2169L43.7632 43.44L49.1826 41.5767L51.9228 47.3744L57.1222 46.2716L60.6691 51.4213L58.7208 52.7638L56.0686 48.9149L50.5808 50.0789L47.9481 44.5037L42.4407 46.3987L40.0207 40.6353L35.0022 40.7967L32.8951 36.625L29.6244 37.4222L29.0646 35.1212L34.1613 33.8815Z" fill="#F7CC7F"/>
<path d="M286.493 146.094L291.165 147.994L294.929 144.493L300.014 146.992L302.871 142.025L308.745 144.595L311.943 140.348L318 141.898L317.413 144.192L312.884 143.033L309.51 147.515L303.864 145.043L300.957 150.092L295.347 147.334L291.671 150.755L287.342 148.994L285.398 151.745L283.467 150.378L286.493 146.094Z" fill="#50BFA5"/>
</g>
<defs>
<clipPath id="clip0_1120_12079">
<rect width="318" height="310" fill="white"/>
</clipPath>
</defs>
</svg>
