<svg width="340" height="272" viewBox="0 0 340 272" fill="none" xmlns="http://www.w3.org/2000/svg">
<g clip-path="url(#clip0_1120_11708)">
<path d="M44.24 72.0211C42.0385 72.0211 39.8865 72.6755 38.0562 73.9015C36.2259 75.1276 34.7995 76.8702 33.9574 78.9089C33.1153 80.9477 32.8954 83.1909 33.3256 85.3549C33.7557 87.5189 34.8165 89.5065 36.3737 91.0661C37.931 92.6258 39.9148 93.6874 42.0741 94.1169C44.2335 94.5463 46.4714 94.3242 48.5048 93.4786C50.5382 92.633 52.2757 91.2019 53.4975 89.3665C54.7193 87.531 55.3706 85.3735 55.3689 83.167C55.3689 81.7025 55.081 80.2525 54.5216 78.8996C53.9622 77.5468 53.1423 76.3177 52.1088 75.2826C51.0753 74.2475 49.8484 73.4266 48.4982 72.867C47.148 72.3074 45.7011 72.0199 44.24 72.0211ZM44.24 89.2105C43.0474 89.2105 41.8817 88.856 40.8901 88.1919C39.8986 87.5279 39.1257 86.584 38.6694 85.4797C38.213 84.3754 38.0936 83.1603 38.3263 81.9879C38.5589 80.8156 39.1332 79.7388 39.9764 78.8936C40.8197 78.0484 41.894 77.4728 43.0637 77.2396C44.2333 77.0064 45.4457 77.1261 46.5474 77.5835C47.6492 78.0409 48.5909 78.8156 49.2534 79.8094C49.916 80.8032 50.2696 81.9717 50.2696 83.167C50.2696 84.7698 49.6343 86.307 48.5036 87.4404C47.3728 88.5737 45.8391 89.2105 44.24 89.2105Z" fill="#003096"/>
<path d="M59.5982 22.3004C58.7716 22.2987 57.9631 22.5428 57.2749 23.0019C56.5868 23.461 56.05 24.1143 55.7325 24.8793C55.415 25.6443 55.331 26.4865 55.4912 27.2993C55.6514 28.1121 56.0486 28.859 56.6325 29.4455C57.2165 30.0319 57.9608 30.4316 58.7714 30.5939C59.5821 30.7561 60.4225 30.6737 61.1864 30.357C61.9502 30.0404 62.6032 29.5037 63.0626 28.8149C63.522 28.1261 63.7673 27.3162 63.7673 26.4877C63.7673 25.3787 63.3283 24.3149 62.5467 23.5299C61.7651 22.7449 60.7047 22.3027 59.5982 22.3004ZM59.5982 28.7497C59.1495 28.7514 58.7103 28.6195 58.3364 28.3706C57.9626 28.1218 57.6709 27.7672 57.4983 27.352C57.3258 26.9367 57.2802 26.4795 57.3674 26.0382C57.4545 25.597 57.6704 25.1916 57.9878 24.8735C58.3051 24.5554 58.7096 24.339 59.1498 24.2517C59.59 24.1643 60.0463 24.21 60.4606 24.383C60.8749 24.5559 61.2286 24.8482 61.4768 25.223C61.7251 25.5977 61.8567 26.0379 61.855 26.4877C61.855 26.7847 61.7967 27.0789 61.6832 27.3533C61.5698 27.6278 61.4036 27.8771 61.194 28.0872C60.9845 28.2972 60.7357 28.4638 60.4619 28.5775C60.1881 28.6912 59.8946 28.7497 59.5982 28.7497Z" fill="#E7E8FA"/>
<path d="M138.5 14.8756H169.406" stroke="#003096" stroke-width="2" stroke-linecap="round" stroke-linejoin="round"/>
<ellipse cx="320.843" cy="49.5652" rx="0.86137" ry="0.863355" fill="#003096"/>
<path d="M320.843 53.8734V85.8175C320.843 87.544 320.159 89.1997 318.941 90.4205C317.723 91.6413 316.071 92.3272 314.348 92.3272H306.923" stroke="#003096" stroke-width="2" stroke-linecap="round" stroke-linejoin="round"/>
<ellipse cx="304.77" cy="92.3099" rx="0.86137" ry="0.863355" fill="#003096"/>
<path d="M36.5134 106.564V153.021" stroke="#003096" stroke-width="2" stroke-linecap="round" stroke-linejoin="round"/>
<path d="M285.966 36.3041H54.0424C49.2186 36.3041 45.3081 40.2236 45.3081 45.0585V187.339C45.3081 192.174 49.2186 196.094 54.0424 196.094H285.966C290.79 196.094 294.701 192.174 294.701 187.339V45.0585C294.701 40.2236 290.79 36.3041 285.966 36.3041Z" fill="#E7E8FA"/>
<path d="M281.125 44.2297H58.8746C57.1287 44.2297 55.7134 45.6483 55.7134 47.3982V174.406C55.7134 176.156 57.1287 177.575 58.8746 177.575H281.125C282.871 177.575 284.287 176.156 284.287 174.406V47.3982C284.287 45.6483 282.871 44.2297 281.125 44.2297Z" fill="url(#paint0_linear_1120_11708)"/>
<path d="M45.3253 187.737C45.4251 189.985 46.3859 192.109 48.0079 193.665C49.6299 195.222 51.7882 196.092 54.0338 196.094H285.966C288.212 196.092 290.37 195.222 291.992 193.665C293.614 192.109 294.575 189.985 294.675 187.737H45.3253Z" fill="#003096"/>
<path d="M1.0404e-05 264.014H340V267.692C340 268.837 339.546 269.935 338.739 270.744C337.931 271.554 336.835 272.009 335.693 272.009H3.56608C3.09705 272.009 2.63263 271.916 2.19941 271.736C1.7662 271.556 1.37269 271.292 1.04144 270.959C0.710185 270.626 0.44769 270.231 0.268985 269.796C0.0902806 269.362 -0.00112252 268.896 1.0404e-05 268.426V264.014Z" fill="#003096"/>
<path d="M289.618 196.232H50.3815C48.876 196.232 47.3931 196.599 46.0606 197.302C44.7281 198.004 43.5859 199.021 42.7326 200.264L0.68911 261.726C0.29775 262.308 0.0712799 262.985 0.0338525 263.686C-0.00357499 264.387 0.149444 265.084 0.47659 265.705C0.803736 266.325 1.29274 266.845 1.89145 267.208C2.49016 267.572 3.17612 267.766 3.87618 267.77H336.124C336.824 267.766 337.51 267.572 338.109 267.208C338.707 266.845 339.196 266.325 339.523 265.705C339.851 265.084 340.004 264.387 339.966 263.686C339.929 262.985 339.702 262.308 339.311 261.726L297.267 200.264C296.414 199.021 295.272 198.004 293.939 197.302C292.607 196.599 291.124 196.232 289.618 196.232Z" fill="#E7E8FA"/>
<path d="M82.235 236.231H193.688C194.282 236.228 194.868 236.379 195.387 236.669C195.906 236.96 196.342 237.38 196.651 237.889L203.542 249.182C204.082 250.068 204.842 250.8 205.747 251.307C206.653 251.814 207.673 252.078 208.71 252.074H298.775C299.131 252.079 299.482 251.988 299.792 251.81C300.101 251.633 300.357 251.375 300.533 251.065C300.709 250.754 300.798 250.402 300.792 250.045C300.786 249.688 300.684 249.339 300.498 249.035L274.097 206.109C273.48 205.104 272.618 204.274 271.591 203.699C270.564 203.123 269.407 202.82 268.231 202.819H70.3567C69.2882 202.82 68.2382 203.099 67.3096 203.628C66.3809 204.158 65.6055 204.921 65.0593 205.841L38.3568 250.995C38.2933 251.103 38.2594 251.226 38.2586 251.352C38.2577 251.478 38.2898 251.602 38.3518 251.711C38.4138 251.82 38.5034 251.912 38.6116 251.975C38.7199 252.039 38.8429 252.073 38.9684 252.074H67.4367C68.4906 252.078 69.5271 251.805 70.443 251.282C71.3589 250.76 72.1221 250.006 72.6566 249.095L79.2289 237.958C79.5371 237.433 79.9765 236.998 80.5036 236.695C81.0307 236.392 81.6275 236.232 82.235 236.231Z" fill="url(#paint1_linear_1120_11708)"/>
<path d="M200.665 248.871L194.928 239.538C194.742 239.232 194.48 238.978 194.167 238.803C193.855 238.628 193.503 238.536 193.145 238.536H82.7346C82.3714 238.536 82.0144 238.631 81.6988 238.811C81.3831 238.991 81.1197 239.251 80.9344 239.564L75.413 248.897C75.2247 249.216 75.1241 249.581 75.1214 249.952C75.1187 250.323 75.214 250.689 75.3977 251.011C75.5813 251.334 75.8467 251.602 76.1671 251.789C76.4875 251.975 76.8513 252.074 77.2219 252.074H198.856C199.231 252.079 199.601 251.983 199.927 251.796C200.253 251.609 200.522 251.337 200.707 251.009C200.892 250.682 200.986 250.311 200.978 249.934C200.971 249.558 200.863 249.191 200.665 248.871Z" fill="url(#paint2_linear_1120_11708)"/>
<g style="mix-blend-mode:overlay" opacity="0.27">
<path d="M281.125 44.2297H124.356C126.201 62.3712 132.163 79.8491 141.785 95.326C151.406 110.803 164.433 123.868 179.868 133.523C195.302 143.177 212.736 149.165 230.835 151.027C248.933 152.889 267.217 150.577 284.287 144.267V47.3982C284.287 46.5578 283.953 45.7519 283.361 45.1577C282.768 44.5635 281.964 44.2297 281.125 44.2297Z" fill="white"/>
</g>
<path d="M129.033 36.3041L132.229 43.5045C133.154 45.6153 134.672 47.4108 136.598 48.6724C138.523 49.934 140.773 50.6071 143.074 50.6099H196.926C199.222 50.6108 201.469 49.9441 203.393 48.6905C205.318 47.4369 206.839 45.6504 207.771 43.5476L210.967 36.3472L129.033 36.3041Z" fill="#E7E8FA"/>
<g style="mix-blend-mode:multiply">
<path d="M285.966 36.3041H219.245C219.069 36.8483 218.976 37.4158 218.969 37.9876V84.0735C218.969 84.8452 219.121 85.6093 219.416 86.3222C219.71 87.035 220.143 87.6826 220.687 88.2279C221.232 88.7731 221.879 89.2054 222.591 89.4999C223.302 89.7945 224.065 89.9455 224.835 89.9443H294.692V45.0499C294.692 42.7303 293.773 40.5058 292.136 38.8657C290.5 37.2255 288.28 36.3041 285.966 36.3041Z" fill="#003096"/>
</g>
<g style="mix-blend-mode:multiply">
<path d="M241.115 102.031H180.836C178.377 102.031 176.383 104.03 176.383 106.495V141.512C176.383 143.978 178.377 145.976 180.836 145.976H241.115C243.574 145.976 245.568 143.978 245.568 141.512V106.495C245.568 104.03 243.574 102.031 241.115 102.031Z" fill="#003096"/>
</g>
<g style="mix-blend-mode:multiply">
<path d="M294.692 127.707H242.329C241.149 127.71 240.017 128.181 239.183 129.017C238.348 129.854 237.878 130.988 237.876 132.171V167.163C237.878 168.346 238.348 169.48 239.183 170.316C240.017 171.153 241.149 171.624 242.329 171.626H294.692V127.707Z" fill="#003096"/>
</g>
<g style="mix-blend-mode:multiply">
<path d="M155.606 37.4437H73.6127V159.574H155.606V37.4437Z" fill="#003096"/>
</g>
<path d="M159.095 23.7509H70.1328V152.727H159.095V23.7509Z" fill="#E7E8FA"/>
<path d="M156.649 149.205H72.5704V27.2993H156.649V149.205ZM73.1389 148.635H156.08V27.8345H73.1389V148.635Z" fill="#E56E6B"/>
<path d="M140.429 61.799H86.9037V65.9862H140.429V61.799Z" fill="#003096"/>
<path d="M140.429 90.6177H86.9037V94.805H140.429V90.6177Z" fill="#003096"/>
<path d="M147.062 71.6843H80.2539V75.8716H147.062V71.6843Z" fill="#003096"/>
<path d="M147.062 80.387H80.2539V84.5742H147.062V80.387Z" fill="#003096"/>
<path d="M115.718 56.279C119.497 54.7195 121.299 50.385 119.743 46.5977C118.187 42.8103 113.862 41.0042 110.084 42.5637C106.305 44.1232 104.503 48.4577 106.059 52.2451C107.615 56.0324 111.94 57.8385 115.718 56.279Z" fill="url(#paint3_linear_1120_11708)"/>
<path d="M143.651 157.053L136.544 151.018L129.981 157.053V129.382H143.651V157.053Z" fill="url(#paint4_linear_1120_11708)"/>
<path d="M136.346 140.166C143.211 140.166 148.776 134.588 148.776 127.707C148.776 120.827 143.211 115.249 136.346 115.249C129.482 115.249 123.917 120.827 123.917 127.707C123.917 134.588 129.482 140.166 136.346 140.166Z" fill="url(#paint5_linear_1120_11708)"/>
<path d="M136.346 135.219C140.485 135.219 143.84 131.856 143.84 127.707C143.84 123.559 140.485 120.196 136.346 120.196C132.208 120.196 128.852 123.559 128.852 127.707C128.852 131.856 132.208 135.219 136.346 135.219Z" fill="url(#paint6_linear_1120_11708)"/>
<path d="M305.356 8.90979H222.027C217.94 8.90979 214.628 12.2301 214.628 16.326V74.542C214.628 78.6379 217.94 81.9583 222.027 81.9583H305.356C309.442 81.9583 312.755 78.6379 312.755 74.542V16.326C312.755 12.2301 309.442 8.90979 305.356 8.90979Z" fill="#003096"/>
<mask id="mask0_1120_11708" style="mask-type:luminance" maskUnits="userSpaceOnUse" x="214" y="8" width="99" height="74">
<path d="M305.364 8.90979H222.035C217.949 8.90979 214.636 12.2301 214.636 16.326V74.542C214.636 78.6379 217.949 81.9583 222.035 81.9583H305.364C309.451 81.9583 312.763 78.6379 312.763 74.542V16.326C312.763 12.2301 309.451 8.90979 305.364 8.90979Z" fill="white"/>
</mask>
<g mask="url(#mask0_1120_11708)">
<path d="M258.454 26.7295L246.696 17.3534L277.172 15.1864L295.889 38.5229L280.049 35.3889L258.454 26.7295Z" fill="url(#paint7_linear_1120_11708)"/>
<path d="M261.365 50.9293C261.365 50.9293 265 60.6507 262.571 67.0223C261.667 73.0657 278.937 68.5418 281.659 60.9788C280.755 56.1181 277.421 52.7769 277.12 43.0642C276.818 33.3514 261.064 44.5664 261.365 50.9293Z" fill="url(#paint8_linear_1120_11708)"/>
<g style="mix-blend-mode:multiply" opacity="0.32">
<path d="M278.042 50.2127C277.729 48.928 277.499 47.6245 277.353 46.3103L267.765 41.8123C264.32 44.2987 261.271 48.0975 261.409 50.9293C262.474 53.9521 263.143 57.101 263.398 60.2967C272.296 58.4836 276.319 53.4848 278.042 50.2127Z" fill="#FFA26E"/>
</g>
<path d="M253.984 35.9328C253.984 35.9328 249.728 47.9507 253.846 52.8114C260.263 60.3917 270.255 56.2648 274.243 51.6631C278.231 47.0614 278.102 28.0676 271.392 25.0632C264.682 22.0587 256.878 24.2343 253.984 35.9328Z" fill="url(#paint9_linear_1120_11708)"/>
<path d="M272.736 46.224C272.736 46.7721 272.574 47.3079 272.27 47.7637C271.966 48.2194 271.534 48.5747 271.029 48.7844C270.524 48.9942 269.968 49.049 269.431 48.9421C268.895 48.8352 268.402 48.5712 268.016 48.1837C267.629 47.7961 267.366 47.3023 267.259 46.7647C267.152 46.2271 267.207 45.6698 267.416 45.1634C267.625 44.657 267.98 44.2242 268.435 43.9197C268.889 43.6152 269.424 43.4526 269.971 43.4526C270.704 43.4526 271.407 43.7446 271.926 44.2644C272.444 44.7841 272.736 45.489 272.736 46.224Z" fill="#FE746A"/>
<path d="M276.491 45.87C276.491 45.87 279.764 41.182 281.659 43.7721C283.554 46.3621 275.725 51.0502 275.518 48.8659C275.474 48.3268 275.537 47.7842 275.704 47.2699C275.871 46.7555 276.139 46.2796 276.491 45.87Z" fill="url(#paint10_linear_1120_11708)"/>
<path d="M277.241 47.5708C277.241 47.5708 278.869 44.5577 280.962 44.5577C281.547 44.0397 279.851 44.2383 278.937 44.9549C278.024 45.6715 276.62 46.9838 277.241 47.5708Z" fill="#FF7D5A"/>
<path d="M277.241 47.0528C277.241 47.0528 279.204 45.1275 280.204 45.7837C280.686 46.5693 276.775 48.4946 277.241 47.0528Z" fill="#FF7D5A"/>
<path d="M304.692 107.065C303.788 92.3876 302.909 76.2688 299.249 71.788C293.486 64.7344 281.16 59.1226 281.16 59.1226C281.16 59.1226 274.88 69.6123 265.38 68.5763C262.795 66.6683 263.131 64.5876 263.131 64.5876C262.212 65.5833 261.167 66.454 260.022 67.1777C258.127 68.395 252.269 71.4944 250.349 74.8011C250.349 74.8011 246.903 79.9812 246.903 88.4766C246.903 90.8854 246.791 98.1289 246.619 107.056L304.692 107.065Z" fill="url(#paint11_linear_1120_11708)"/>
<path d="M249.97 74.1967C249.97 74.1967 254.931 89.4263 263.088 96.808C263.088 96.808 292.048 83.495 300.205 69.7072C295.407 65.3905 280.85 58.3196 280.85 58.3196C280.85 58.3196 275.414 65.2264 266.611 66.815C266.611 66.815 264.027 65.8567 263.252 63.9314C258.373 66.7216 253.903 70.1762 249.97 74.1967Z" fill="url(#paint12_linear_1120_11708)"/>
<path d="M288.99 62.5328C283.821 68.3173 274.906 77.1235 264.449 82.295C261.633 77.7052 259.215 72.8815 257.222 67.8769C255.836 68.9043 254.328 70.1044 252.812 71.4599C254.32 75.4486 257.825 83.685 263.252 89.9961C263.252 89.9961 277.895 83.4432 294.098 65.4595C292.435 64.4235 290.669 63.4479 288.99 62.5328Z" fill="url(#paint13_linear_1120_11708)"/>
<path d="M280.049 55.8332C280.049 55.8332 271.289 63.6552 267.576 64.8552L266.611 66.8151L271.409 71.8312C271.409 71.8312 280.652 63.2926 282.211 59.0794L280.049 55.8332Z" fill="white"/>
<path d="M263.373 62.2047C263.373 62.2047 263.734 63.5343 265.896 64.8552L266.611 66.815L263.614 70.7433C263.614 70.7433 261.331 67.1431 261.09 65.2178C260.849 63.2925 260.969 64.7343 260.969 64.7343L263.373 62.2047Z" fill="white"/>
<path d="M274.295 32.0219C274.295 32.0219 273.175 35.7084 273.812 37.6337C274.266 38.887 274.973 40.0332 275.888 41.0007C275.888 41.0007 275.251 46.4571 274.932 47.2514L276.371 47.4155L277.172 45.0067C277.172 45.0067 279.015 42.054 281.694 43.7721L282.607 41.3202C282.826 41.9829 283.211 42.5777 283.727 43.0469C284.528 43.5217 283.727 39.8352 282.211 37.2711C280.695 34.7069 274.295 32.0219 274.295 32.0219Z" fill="url(#paint14_linear_1120_11708)"/>
<path d="M256.774 28.8965C256.774 28.8965 269.695 27.8691 282.452 37.7372L284.614 30.0965C284.614 30.0965 280.531 22.8789 265.414 20.7205C259.651 20.237 259.651 20.7205 259.651 20.7205L256.774 28.8965Z" fill="url(#paint15_linear_1120_11708)"/>
<path d="M273.39 26.5222C272.339 25.3135 271.349 24.1739 270.513 23.0688C267.318 18.8557 270.315 16.162 270.444 16.0325C270.742 15.8428 271.068 15.7001 271.409 15.6094C271.201 15.4159 270.942 15.2856 270.663 15.2336C270.384 15.1817 270.096 15.2102 269.833 15.3159C269.833 15.3159 266.017 18.7175 269.764 23.6732C270.625 24.8042 271.624 25.9524 272.684 27.1784C275.836 30.7959 279.411 34.9054 278.955 38.7128L279.902 38.8337C280.402 34.586 276.681 30.3037 273.39 26.5222Z" fill="url(#paint16_linear_1120_11708)"/>
<path d="M278.214 41.182C278.214 41.182 276.836 36.3386 279.075 35.363C281.1 34.845 281.659 40.8884 281.435 40.8798C281.212 40.8712 280.617 42.6152 278.214 41.182Z" fill="url(#paint17_linear_1120_11708)"/>
<path d="M265.655 39.4812C266.183 39.4812 266.611 39.0522 266.611 38.5229C266.611 37.9936 266.183 37.5646 265.655 37.5646C265.127 37.5646 264.699 37.9936 264.699 38.5229C264.699 39.0522 265.127 39.4812 265.655 39.4812Z" fill="url(#paint18_linear_1120_11708)"/>
<path d="M257.257 37.7977C257.785 37.7977 258.213 37.3686 258.213 36.8394C258.213 36.3101 257.785 35.881 257.257 35.881C256.729 35.881 256.301 36.3101 256.301 36.8394C256.301 37.3686 256.729 37.7977 257.257 37.7977Z" fill="url(#paint19_linear_1120_11708)"/>
<path d="M257.248 46.0082C258.956 46.3432 260.682 46.5795 262.416 46.7161C262.582 46.7265 262.741 46.7788 262.881 46.8683C263.02 46.9577 263.134 47.0813 263.213 47.2273C263.291 47.3734 263.331 47.5371 263.329 47.7029C263.327 47.8688 263.283 48.0313 263.2 48.1752C262.691 48.8579 261.979 49.3617 261.167 49.6145C260.355 49.8672 259.484 49.856 258.678 49.5825C258.062 49.4615 257.493 49.1689 257.036 48.7382C256.579 48.3075 256.253 47.7563 256.094 47.1478C256.066 46.9904 256.076 46.8285 256.125 46.6761C256.173 46.5236 256.258 46.3853 256.371 46.2731C256.485 46.1609 256.624 46.0781 256.777 46.0319C256.93 45.9858 257.092 45.9776 257.248 46.0082Z" fill="url(#paint20_linear_1120_11708)"/>
<path d="M262.425 46.7161C260.69 46.5806 258.964 46.3442 257.257 46.0082H257.171C257.119 46.4226 257.283 47.001 258.299 47.4155C259.815 48.0198 261.684 47.8212 262.425 46.7161Z" fill="white"/>
<path d="M264.914 35.9328C265.397 35.7723 265.918 35.7693 266.403 35.9245C266.887 36.0796 267.31 36.3848 267.61 36.7962C267.61 36.7962 268.05 36.848 268.05 36.2436C268.05 35.6393 267.283 34.8623 266.129 34.6982C265.841 34.6222 265.537 34.6398 265.26 34.7484C264.983 34.857 264.747 35.0511 264.587 35.3026C264.556 35.3646 264.541 35.433 264.542 35.5022C264.542 35.5714 264.559 35.6395 264.591 35.7009C264.623 35.7623 264.669 35.8153 264.725 35.8556C264.781 35.8959 264.846 35.9223 264.914 35.9328Z" fill="url(#paint21_linear_1120_11708)"/>
<path d="M256.516 34.4824C256.999 34.3218 257.52 34.3189 258.004 34.474C258.489 34.6292 258.912 34.9344 259.212 35.3457C259.212 35.3457 259.651 35.3975 259.651 34.7932C259.651 34.1888 258.885 33.4118 257.722 33.2478C257.436 33.1724 257.133 33.1903 256.857 33.2989C256.581 33.4076 256.347 33.6013 256.189 33.8521C256.158 33.9142 256.143 33.9826 256.143 34.0518C256.144 34.121 256.161 34.1891 256.193 34.2504C256.225 34.3118 256.271 34.3648 256.327 34.4051C256.383 34.4454 256.448 34.4719 256.516 34.4824Z" fill="url(#paint22_linear_1120_11708)"/>
<path d="M259.651 39.3862C259.651 39.3862 257.334 43.6426 257.653 43.962C257.972 44.2815 259.574 43.4008 259.574 43.4008C259.574 43.4008 259.333 44.4369 259.574 44.4369C259.815 44.4369 260.435 42.5202 260.375 42.2785C260.315 42.0367 258.695 43.1418 258.695 43.1418L259.651 39.3862Z" fill="#FE746A"/>
</g>
<path d="M235.895 9.96311C235.6 8.18052 234.79 6.52376 233.565 5.19791C232.34 3.87206 230.754 2.93534 229.004 2.50373C215.829 -0.837912 202.031 -0.837912 188.855 2.50373C187.105 2.93534 185.519 3.87206 184.294 5.19791C183.069 6.52376 182.259 8.18052 181.964 9.96311C180.75 17.0715 180.75 24.335 181.964 31.4434C182.259 33.226 183.069 34.8827 184.294 36.2086C185.519 37.5344 187.105 38.4712 188.855 38.9028C199.282 41.5498 210.13 42.0956 220.769 40.5086C221.389 42.4943 223.414 46.7852 229.615 49.1422L227.677 39.2049L229.004 38.9028C230.754 38.4712 232.34 37.5344 233.565 36.2086C234.79 34.8827 235.6 33.226 235.895 31.4434C237.109 24.335 237.109 17.0715 235.895 9.96311Z" fill="url(#paint23_linear_1120_11708)"/>
<path d="M225.446 18.0355H192.826C192.577 18.0366 192.329 17.9883 192.099 17.8934C191.868 17.7984 191.658 17.6587 191.481 17.4822C191.304 17.3057 191.164 17.096 191.068 16.865C190.972 16.6339 190.923 16.3863 190.923 16.1361C190.923 15.8859 190.972 15.6382 191.068 15.4072C191.164 15.1762 191.304 14.9665 191.481 14.79C191.658 14.6135 191.868 14.4737 192.099 14.3788C192.329 14.2839 192.577 14.2356 192.826 14.2367H225.464C225.713 14.2356 225.961 14.2839 226.192 14.3788C226.422 14.4737 226.632 14.6135 226.809 14.79C226.986 14.9665 227.126 15.1762 227.222 15.4072C227.318 15.6382 227.367 15.8859 227.367 16.1361C227.367 16.3877 227.317 16.6368 227.221 16.869C227.124 17.1011 226.982 17.3117 226.803 17.4884C226.624 17.6651 226.412 17.8045 226.18 17.8984C225.947 17.9923 225.697 18.0389 225.446 18.0355Z" fill="white"/>
<path d="M207.797 26.4359H192.826C192.323 26.4359 191.84 26.2361 191.483 25.8802C191.127 25.5242 190.925 25.0411 190.923 24.5366C190.923 24.0305 191.123 23.5452 191.48 23.1874C191.837 22.8296 192.321 22.6285 192.826 22.6285H207.814C208.319 22.6285 208.803 22.8296 209.16 23.1874C209.517 23.5452 209.718 24.0305 209.718 24.5366C209.717 24.7879 209.666 25.0365 209.569 25.2681C209.472 25.4997 209.33 25.7098 209.151 25.8863C208.973 26.0628 208.761 26.2022 208.529 26.2965C208.296 26.3908 208.048 26.4382 207.797 26.4359Z" fill="white"/>
<path d="M323.315 27.1007C323.324 27.6232 323.177 28.1365 322.894 28.5752C322.61 29.0139 322.203 29.3581 321.724 29.564C321.244 29.77 320.715 29.8283 320.202 29.7316C319.69 29.635 319.218 29.3876 318.846 29.0211C318.474 28.6547 318.22 28.1856 318.115 27.6737C318.01 27.1617 318.06 26.6301 318.257 26.1464C318.455 25.6627 318.791 25.2489 319.224 24.9576C319.657 24.6663 320.167 24.5107 320.688 24.5106C321.031 24.5049 321.372 24.5676 321.69 24.6952C322.009 24.8228 322.299 25.0127 322.543 25.2538C322.788 25.4949 322.982 25.7823 323.115 26.0994C323.247 26.4165 323.315 26.7569 323.315 27.1007Z" fill="#003096"/>
<path d="M311.402 118.944H246.912C244.281 118.944 242.148 121.082 242.148 123.719V161.18C242.148 163.817 244.281 165.954 246.912 165.954H311.402C314.033 165.954 316.166 163.817 316.166 161.18V123.719C316.166 121.082 314.033 118.944 311.402 118.944Z" fill="#FF8895"/>
<mask id="mask1_1120_11708" style="mask-type:luminance" maskUnits="userSpaceOnUse" x="242" y="118" width="75" height="48">
<path d="M311.402 118.944H246.912C244.281 118.944 242.148 121.082 242.148 123.719V161.18C242.148 163.817 244.281 165.954 246.912 165.954H311.402C314.033 165.954 316.166 163.817 316.166 161.18V123.719C316.166 121.082 314.033 118.944 311.402 118.944Z" fill="white"/>
</mask>
<g mask="url(#mask1_1120_11708)">
<path d="M273.563 130.841C273.563 130.841 271.978 132.568 271.59 133.207C271.163 133.244 270.759 133.417 270.438 133.702C270.117 133.986 269.896 134.367 269.807 134.787C269.514 136.272 269.807 136.574 269.807 136.574C269.553 136.625 269.312 136.729 269.101 136.88C268.89 137.03 268.713 137.225 268.583 137.449C268.452 137.674 268.371 137.924 268.345 138.182C268.318 138.441 268.347 138.702 268.429 138.948C268.825 141.029 272.374 140.675 272.374 140.675L275.337 132.957L273.563 130.841Z" fill="#5A1D20"/>
<path d="M274.734 129.339L266.577 122.838L287.715 121.336L300.696 137.515L289.713 135.348L274.734 129.339Z" fill="url(#paint24_linear_1120_11708)"/>
<path d="M276.75 146.123C276.75 146.123 279.273 152.866 277.611 157.286C276.974 161.499 288.955 158.339 290.842 153.073C290.213 149.706 287.904 147.392 287.698 140.649C287.491 133.906 276.543 141.702 276.75 146.123Z" fill="url(#paint25_linear_1120_11708)"/>
<g style="mix-blend-mode:multiply" opacity="0.32">
<path d="M288.318 145.631C288.102 144.738 287.941 143.832 287.835 142.92L281.16 139.803C278.765 141.53 276.655 144.163 276.75 146.123C277.488 148.221 277.954 150.406 278.136 152.624C284.338 151.363 287.129 147.901 288.318 145.631Z" fill="#FFA26E"/>
</g>
<path d="M271.659 135.745C271.659 135.745 268.704 144.077 271.555 147.444C276.009 152.702 282.943 149.827 285.708 146.649C288.473 143.472 288.378 130.246 283.727 128.208C279.075 126.171 273.64 127.612 271.659 135.745Z" fill="url(#paint26_linear_1120_11708)"/>
<path d="M282.719 144.793C283.78 144.793 284.64 143.931 284.64 142.868C284.64 141.805 283.78 140.943 282.719 140.943C281.658 140.943 280.798 141.805 280.798 142.868C280.798 143.931 281.658 144.793 282.719 144.793Z" fill="#BD6356"/>
<path d="M287.241 142.618C287.241 142.618 289.515 139.363 290.85 141.159C292.185 142.954 286.742 146.209 286.595 144.69C286.561 144.319 286.601 143.945 286.711 143.589C286.822 143.233 287.002 142.903 287.241 142.618Z" fill="url(#paint27_linear_1120_11708)"/>
<path d="M287.784 143.8C287.784 143.8 288.921 141.711 290.368 141.711C290.773 141.348 289.601 141.478 288.964 141.979C288.326 142.479 287.336 143.386 287.784 143.8Z" fill="#5A1D20"/>
<path d="M287.741 143.438C287.741 143.438 289.102 142.1 289.791 142.574C290.161 143.101 287.439 144.431 287.741 143.438Z" fill="#5A1D20"/>
<path d="M306.803 185.06C306.174 174.898 305.562 163.701 303.03 160.593C299.033 155.697 290.488 151.804 290.488 151.804C290.488 151.804 286.13 159.082 279.54 158.365C277.74 157.044 277.981 155.602 277.981 155.602C277.344 156.292 276.62 156.895 275.828 157.398C274.51 158.262 270.436 160.403 269.118 162.682C267.474 165.571 266.646 168.854 266.723 172.179C266.723 173.854 266.646 178.87 266.525 185.069L306.803 185.06Z" fill="url(#paint28_linear_1120_11708)"/>
<path d="M268.851 162.259C268.851 162.259 272.296 172.826 277.947 177.946C277.947 177.946 298.034 168.708 303.693 159.151C300.368 156.146 290.264 151.251 290.264 151.251C287.709 154.249 284.24 156.321 280.393 157.148C279.407 156.771 278.582 156.063 278.059 155.145C274.677 157.08 271.579 159.474 268.851 162.259Z" fill="url(#paint29_linear_1120_11708)"/>
<path d="M295.915 154.212C292.332 158.227 286.147 164.34 278.894 167.923C276.94 164.737 275.263 161.39 273.881 157.916C272.821 158.693 271.8 159.523 270.823 160.403C271.866 163.165 274.269 168.881 278.059 173.258C278.059 173.258 288.232 168.708 299.455 156.241C298.301 155.499 297.052 154.808 295.915 154.212Z" fill="url(#paint30_linear_1120_11708)"/>
<path d="M289.713 149.524C289.713 149.524 283.641 154.946 281.056 155.784L280.393 157.148L283.718 160.601C283.718 160.601 290.127 154.679 291.212 151.761L289.713 149.524Z" fill="white"/>
<path d="M278.145 153.945C278.484 154.743 279.095 155.394 279.868 155.784L280.367 157.148L278.283 159.867C278.283 159.867 276.707 157.364 276.56 156.034C276.414 154.705 276.483 155.697 276.483 155.697L278.145 153.945Z" fill="white"/>
<path d="M273.562 130.841C280.027 130.768 286.319 132.934 291.376 136.971L292.874 131.679C292.874 131.679 290.041 126.671 279.558 125.169C275.561 124.832 275.561 125.169 275.561 125.169L273.562 130.841Z" fill="url(#paint31_linear_1120_11708)"/>
<path d="M280.393 137.515C280.395 137.649 280.357 137.78 280.284 137.892C280.211 138.004 280.107 138.091 279.984 138.143C279.862 138.196 279.727 138.21 279.596 138.185C279.465 138.16 279.344 138.097 279.249 138.003C279.155 137.909 279.09 137.789 279.063 137.658C279.036 137.528 279.049 137.392 279.1 137.268C279.15 137.145 279.237 137.039 279.347 136.965C279.458 136.89 279.588 136.85 279.721 136.85C279.809 136.849 279.896 136.866 279.978 136.899C280.059 136.931 280.133 136.98 280.196 137.042C280.258 137.104 280.308 137.178 280.342 137.259C280.376 137.34 280.393 137.427 280.393 137.515Z" fill="#5A1D20"/>
<path d="M274.562 136.35C274.56 136.481 274.52 136.608 274.446 136.717C274.372 136.825 274.268 136.909 274.146 136.958C274.025 137.007 273.892 137.019 273.764 136.992C273.636 136.965 273.518 136.901 273.426 136.808C273.335 136.715 273.272 136.596 273.247 136.468C273.222 136.339 273.236 136.206 273.287 136.085C273.337 135.964 273.422 135.86 273.531 135.788C273.64 135.715 273.768 135.676 273.898 135.676C273.986 135.676 274.073 135.694 274.154 135.728C274.235 135.762 274.309 135.811 274.37 135.874C274.432 135.937 274.481 136.011 274.514 136.093C274.547 136.174 274.563 136.262 274.562 136.35Z" fill="#5A1D20"/>
<path d="M273.899 142.713C275.086 142.942 276.285 143.107 277.49 143.205C277.605 143.212 277.715 143.248 277.812 143.31C277.908 143.372 277.988 143.457 278.043 143.558C278.098 143.659 278.127 143.772 278.126 143.887C278.126 144.001 278.097 144.114 278.042 144.215C277.688 144.689 277.193 145.039 276.628 145.215C276.063 145.39 275.457 145.381 274.898 145.19C274.465 145.104 274.065 144.896 273.746 144.59C273.427 144.284 273.202 143.893 273.097 143.464C273.085 143.357 273.097 143.25 273.134 143.149C273.171 143.048 273.23 142.958 273.308 142.885C273.386 142.812 273.48 142.758 273.583 142.728C273.685 142.698 273.794 142.693 273.899 142.713Z" fill="#5A1D20"/>
<path d="M277.49 143.205C276.285 143.107 275.086 142.943 273.898 142.713H273.838C273.838 142.997 273.916 143.395 274.622 143.688C275.673 144.12 276.974 143.964 277.49 143.205Z" fill="white"/>
<path d="M279.213 135.719C279.545 135.604 279.904 135.598 280.24 135.7C280.576 135.802 280.871 136.009 281.082 136.289C281.082 136.289 281.392 136.289 281.392 135.909C281.392 135.529 280.858 134.951 280.057 134.839C279.856 134.787 279.644 134.801 279.451 134.876C279.258 134.952 279.093 135.087 278.981 135.262C278.954 135.306 278.939 135.356 278.937 135.407C278.935 135.459 278.947 135.51 278.97 135.555C278.993 135.601 279.028 135.64 279.07 135.669C279.113 135.698 279.162 135.715 279.213 135.719Z" fill="#5A1D20"/>
<path d="M273.39 134.718C273.722 134.603 274.081 134.596 274.417 134.699C274.753 134.801 275.048 135.007 275.259 135.288C275.259 135.288 275.561 135.288 275.561 134.908C275.561 134.528 275.027 133.95 274.226 133.837C274.026 133.787 273.815 133.8 273.624 133.876C273.432 133.952 273.269 134.086 273.158 134.26C273.131 134.304 273.116 134.354 273.114 134.406C273.112 134.457 273.124 134.508 273.147 134.554C273.17 134.6 273.205 134.639 273.247 134.668C273.29 134.696 273.339 134.714 273.39 134.718Z" fill="#5A1D20"/>
<path d="M275.561 138.128C275.561 138.128 273.959 141.072 274.174 141.297C274.389 141.521 275.509 140.908 275.509 140.908C275.509 140.908 275.346 141.633 275.509 141.633C275.816 141.187 276.005 140.67 276.06 140.131C276.009 139.958 274.898 140.744 274.898 140.744L275.561 138.128Z" fill="#924843"/>
<path d="M285.114 133.008C285.114 133.008 286.492 134.2 285.975 135.089C285.688 135.474 285.532 135.942 285.532 136.423C285.532 136.904 285.688 137.372 285.975 137.757C286.664 138.551 285.484 139.242 285.777 140.433C286.07 141.625 286.767 141.815 286.767 141.815L287.215 142.618C287.215 142.618 288.938 139.838 290.42 140.891C290.42 140.891 291.41 141.288 290.618 142.972C290.084 143.574 289.449 144.077 288.74 144.457L288.146 144.854L288.645 146.434C288.645 146.434 291.505 148.609 293.279 146.727C295.054 144.845 293.477 143.757 293.477 143.757C293.97 143.621 294.411 143.342 294.745 142.955C295.08 142.568 295.292 142.09 295.355 141.582C295.387 141.102 295.294 140.623 295.086 140.19C294.877 139.757 294.561 139.386 294.167 139.112C294.167 139.112 294.468 138.612 293.779 137.627C293.09 136.643 291.35 136.937 291.35 136.937C289.524 135.262 287.411 133.931 285.114 133.008Z" fill="#5A1D20"/>
<path d="M285.096 129.175C284.364 128.312 283.675 127.543 283.098 126.775C280.884 123.848 282.96 121.966 283.055 121.888C283.26 121.757 283.483 121.658 283.718 121.595C283.572 121.463 283.393 121.374 283.199 121.339C283.006 121.304 282.807 121.324 282.624 121.396C282.624 121.396 279.98 123.753 282.572 127.189C283.167 127.975 283.864 128.769 284.597 129.615C286.785 132.136 289.265 134.986 288.947 137.627L289.61 137.705C289.954 134.787 287.37 131.817 285.096 129.175Z" fill="url(#paint32_linear_1120_11708)"/>
<path d="M288.438 139.363C288.438 139.363 287.482 136.004 289.059 135.331C290.463 134.968 290.85 139.164 290.695 139.156C290.54 139.147 290.101 140.399 288.438 139.363Z" fill="url(#paint33_linear_1120_11708)"/>
</g>
<path d="M301.212 108.455C301.414 107.24 301.967 106.111 302.803 105.208C303.639 104.306 304.722 103.669 305.916 103.378C314.879 101.108 324.266 101.108 333.23 103.378C334.424 103.669 335.506 104.306 336.342 105.208C337.178 106.111 337.731 107.24 337.933 108.455C338.76 113.292 338.76 118.234 337.933 123.071C337.732 124.286 337.179 125.414 336.342 126.315C335.506 127.216 334.423 127.851 333.23 128.139C326.134 129.921 318.756 130.273 311.523 129.175C311.092 130.531 309.714 133.44 305.493 135.046L306.811 128.286L305.95 128.079C304.756 127.79 303.674 127.156 302.837 126.254C302.001 125.353 301.448 124.225 301.247 123.011C300.415 118.196 300.404 113.274 301.212 108.455Z" fill="url(#paint34_linear_1120_11708)"/>
<path d="M320.791 107.997L321.808 111.122C321.893 111.375 322.055 111.594 322.272 111.749C322.488 111.904 322.748 111.987 323.014 111.986H326.287C326.555 111.984 326.817 112.068 327.034 112.226C327.251 112.383 327.413 112.605 327.497 112.86C327.58 113.116 327.58 113.391 327.497 113.646C327.415 113.902 327.253 114.125 327.036 114.282L324.383 116.225C324.167 116.384 324.006 116.607 323.922 116.862C323.839 117.118 323.838 117.393 323.918 117.649L324.935 120.775C325.016 121.029 325.015 121.303 324.932 121.557C324.849 121.81 324.688 122.032 324.472 122.188C324.257 122.345 323.997 122.43 323.73 122.43C323.464 122.431 323.204 122.347 322.988 122.191L320.309 120.257C320.092 120.101 319.831 120.018 319.564 120.018C319.297 120.018 319.036 120.101 318.819 120.257L316.166 122.191C315.95 122.35 315.689 122.437 315.42 122.439C315.152 122.44 314.89 122.356 314.672 122.198C314.455 122.041 314.293 121.818 314.21 121.562C314.127 121.306 314.127 121.03 314.211 120.775L315.227 117.649C315.31 117.394 315.31 117.119 315.229 116.863C315.147 116.607 314.986 116.384 314.77 116.225L312.117 114.291C311.901 114.134 311.74 113.912 311.657 113.657C311.574 113.402 311.574 113.128 311.656 112.873C311.738 112.618 311.899 112.396 312.115 112.238C312.331 112.08 312.591 111.995 312.858 111.994H316.14C316.406 111.996 316.666 111.913 316.882 111.758C317.099 111.603 317.261 111.384 317.346 111.131L318.354 108.006C318.428 107.739 318.586 107.504 318.806 107.336C319.025 107.168 319.293 107.077 319.569 107.076C319.845 107.075 320.114 107.165 320.335 107.331C320.555 107.497 320.716 107.731 320.791 107.997Z" fill="url(#paint35_linear_1120_11708)"/>
<path d="M324.702 168.51C324.702 169.03 324.548 169.54 324.259 169.973C323.971 170.406 323.56 170.743 323.08 170.942C322.6 171.142 322.072 171.194 321.562 171.092C321.053 170.991 320.585 170.74 320.217 170.372C319.85 170.003 319.6 169.534 319.498 169.023C319.397 168.513 319.449 167.983 319.648 167.502C319.847 167.021 320.183 166.61 320.615 166.32C321.047 166.031 321.555 165.876 322.075 165.876C322.771 165.879 323.438 166.157 323.93 166.65C324.422 167.144 324.7 167.812 324.702 168.51Z" fill="#FF8895"/>
<path d="M245.206 88.209H176.745C173.952 88.209 171.688 90.478 171.688 93.2769V133.043C171.688 135.842 173.952 138.111 176.745 138.111H245.206C247.999 138.111 250.263 135.842 250.263 133.043V93.2769C250.263 90.478 247.999 88.209 245.206 88.209Z" fill="#A4E3C2"/>
<mask id="mask2_1120_11708" style="mask-type:luminance" maskUnits="userSpaceOnUse" x="171" y="88" width="80" height="51">
<path d="M245.206 88.2003H176.745C173.952 88.2003 171.688 90.4693 171.688 93.2682V133.034C171.688 135.833 173.952 138.102 176.745 138.102H245.206C247.999 138.102 250.263 135.833 250.263 133.034V93.2682C250.263 90.4693 247.999 88.2003 245.206 88.2003Z" fill="white"/>
</mask>
<g mask="url(#mask2_1120_11708)">
<path d="M215.058 101.859C215.058 101.859 223.147 108.144 221.381 116.035C219.615 123.926 215.808 121.759 213.775 125.299C211.742 128.838 209.149 132.508 203.438 132.378C197.728 132.249 194.609 126.93 196.651 117.537C197.888 111.913 201.12 106.931 205.747 103.516C207.023 102.455 208.552 101.745 210.184 101.454C211.816 101.163 213.496 101.303 215.058 101.859Z" fill="url(#paint36_linear_1120_11708)"/>
<path d="M209.83 121.146C209.576 121.764 209.454 122.428 209.472 123.095C209.49 123.763 209.647 124.419 209.933 125.022C208.358 125.382 206.714 125.296 205.186 124.773C203.657 124.25 202.303 123.311 201.276 122.061C201.75 119.737 201.75 117.341 201.276 115.016L209.83 121.146Z" fill="url(#paint37_linear_1120_11708)"/>
<path d="M213.852 100.313L222.268 93.5963L200.458 92.0509L187.064 108.748L198.399 106.503L213.852 100.313Z" fill="url(#paint38_linear_1120_11708)"/>
<path d="M217.022 106.909C217.022 106.909 220.072 115.543 217.126 118.996C212.535 124.418 205.385 121.457 202.525 118.176C199.666 114.895 199.769 101.289 204.567 99.1391C209.365 96.9893 214.981 98.5174 217.022 106.909Z" fill="url(#paint39_linear_1120_11708)"/>
<path d="M203.637 114.256C203.635 114.649 203.75 115.034 203.966 115.362C204.183 115.69 204.492 115.945 204.854 116.097C205.216 116.249 205.614 116.289 205.999 116.214C206.384 116.138 206.738 115.95 207.016 115.672C207.294 115.395 207.483 115.041 207.56 114.656C207.637 114.27 207.599 113.87 207.449 113.507C207.299 113.144 207.045 112.833 206.719 112.615C206.393 112.396 206.01 112.279 205.618 112.279C205.094 112.279 204.591 112.487 204.22 112.858C203.849 113.228 203.639 113.731 203.637 114.256Z" fill="#FE746A"/>
<path d="M200.949 114.006C200.949 114.006 198.598 110.648 197.228 112.504C195.858 114.36 201.466 117.684 201.621 116.147C201.655 115.764 201.613 115.377 201.498 115.009C201.383 114.642 201.196 114.301 200.949 114.006Z" fill="url(#paint40_linear_1120_11708)"/>
<path d="M200.389 115.223C200.389 115.223 199.218 113.065 197.719 113.065C197.297 112.694 198.52 112.832 199.166 113.35C199.812 113.868 200.854 114.8 200.389 115.223Z" fill="#FF7D5A"/>
<path d="M200.432 114.852C200.432 114.852 199.028 113.471 198.313 113.989C197.995 114.498 200.742 115.879 200.432 114.852Z" fill="#FF7D5A"/>
<path d="M181.379 156.474C182.025 145.985 182.654 134.433 185.272 131.221C189.39 126.179 198.193 122.156 198.193 122.156C198.193 122.156 202.689 129.667 209.485 128.925C211.337 127.561 211.096 126.076 211.096 126.076C211.753 126.789 212.5 127.413 213.318 127.932C214.679 128.795 218.883 131.031 220.209 133.388C221.906 136.363 222.761 139.745 222.681 143.17C222.681 144.897 222.759 150.077 222.88 156.474H181.379Z" fill="url(#paint41_linear_1120_11708)"/>
<path d="M220.537 132.948C220.537 132.948 216.988 143.852 211.148 149.127C211.148 149.127 190.423 139.63 184.583 129.736C188.029 126.637 198.434 121.586 198.434 121.586C201.076 124.668 204.657 126.792 208.624 127.63C209.643 127.249 210.495 126.517 211.027 125.566C214.524 127.572 217.724 130.057 220.537 132.948Z" fill="url(#paint42_linear_1120_11708)"/>
<path d="M192.611 124.599C196.306 128.743 202.689 135.046 210.174 138.741C212.193 135.444 213.922 131.977 215.343 128.381C216.342 129.115 217.419 129.969 218.504 130.971C217.427 133.829 214.912 139.725 211.027 144.241C211.027 144.241 200.536 139.553 188.959 126.68C190.148 125.972 191.405 125.256 192.611 124.599Z" fill="url(#paint43_linear_1120_11708)"/>
<path d="M208.701 109.439C209.082 109.439 209.391 109.13 209.391 108.748C209.391 108.367 209.082 108.057 208.701 108.057C208.321 108.057 208.012 108.367 208.012 108.748C208.012 109.13 208.321 109.439 208.701 109.439Z" fill="url(#paint44_linear_1120_11708)"/>
<path d="M214.025 107.54C214.025 107.723 214.097 107.898 214.226 108.028C214.356 108.157 214.531 108.23 214.714 108.23C214.897 108.23 215.072 108.157 215.201 108.028C215.33 107.898 215.403 107.723 215.403 107.54C215.403 107.356 215.33 107.181 215.201 107.051C215.072 106.922 214.897 106.849 214.714 106.849C214.531 106.849 214.356 106.922 214.226 107.051C214.097 107.181 214.025 107.356 214.025 107.54Z" fill="url(#paint45_linear_1120_11708)"/>
<path d="M214.714 114.101C213.487 114.343 212.248 114.513 211.001 114.61C210.883 114.618 210.769 114.656 210.67 114.72C210.57 114.784 210.489 114.873 210.433 114.977C210.377 115.082 210.348 115.199 210.35 115.317C210.351 115.436 210.383 115.552 210.441 115.655C210.806 116.144 211.316 116.505 211.898 116.685C212.48 116.865 213.104 116.855 213.68 116.657C214.122 116.575 214.531 116.369 214.86 116.064C215.19 115.758 215.426 115.365 215.541 114.93C215.565 114.816 215.56 114.698 215.527 114.586C215.494 114.475 215.434 114.373 215.352 114.291C215.269 114.208 215.168 114.148 215.057 114.115C214.945 114.082 214.828 114.077 214.714 114.101Z" fill="url(#paint46_linear_1120_11708)"/>
<path d="M211.01 114.61C212.253 114.513 213.49 114.343 214.714 114.101H214.783C214.783 114.394 214.697 114.809 213.973 115.111C212.879 115.56 211.544 115.361 211.01 114.61Z" fill="white"/>
<path d="M209.192 106.883C208.849 106.767 208.478 106.761 208.132 106.868C207.785 106.975 207.481 107.189 207.263 107.479C207.263 107.479 206.953 107.479 206.953 107.082C206.953 106.685 207.504 106.098 208.331 105.977C208.538 105.924 208.756 105.938 208.954 106.017C209.152 106.096 209.32 106.236 209.434 106.417C209.434 106.417 209.666 106.771 209.192 106.883Z" fill="url(#paint47_linear_1120_11708)"/>
<path d="M215.222 105.865C214.88 105.747 214.509 105.74 214.163 105.846C213.816 105.951 213.512 106.163 213.293 106.452C213.293 106.452 212.982 106.495 212.982 106.063C212.982 105.631 213.534 105.07 214.361 104.958C214.566 104.904 214.784 104.917 214.982 104.995C215.18 105.072 215.348 105.21 215.463 105.39C215.463 105.39 215.679 105.735 215.222 105.865Z" fill="url(#paint48_linear_1120_11708)"/>
<path d="M213 109.37C213 109.37 214.653 112.409 214.43 112.642C214.206 112.875 213.051 112.245 213.051 112.245C213.051 112.245 213.224 112.987 213.051 112.987C212.879 112.987 212.423 111.606 212.483 111.433C212.543 111.261 213.68 112.072 213.68 112.072L213 109.37Z" fill="#FE746A"/>
<path d="M209.528 123.494C209.528 123.494 204.438 124.548 201.483 120.257L198.038 121.448C197.65 121.793 198.813 130.367 202.827 130.738C203.884 130.903 204.966 130.753 205.939 130.306C206.911 129.86 207.731 129.136 208.297 128.225C208.297 128.225 211.69 131.152 212.81 129.521C213.93 127.889 212.405 126.067 212.405 126.067L209.528 123.494Z" fill="white"/>
<path d="M209.192 101.85C208.175 102.245 207.265 102.877 206.539 103.694C205.813 104.51 205.29 105.488 205.015 106.547C203.895 110.319 207.16 112.469 204.61 115.629C202.06 118.789 201.044 118.901 200.742 122.674C200.441 126.447 198.158 129.581 193.714 129.417C189.269 129.253 184.54 123.693 186.582 118.694C188.623 113.695 192.086 113.384 194.334 111.243C195.591 110.179 196.493 108.754 196.918 107.16C196.918 107.16 199.037 102.765 209.192 101.85Z" fill="url(#paint49_linear_1120_11708)"/>
<path d="M215.058 101.859C208.388 101.781 201.895 104.013 196.677 108.178L195.135 102.713C195.135 102.713 198.055 97.5332 208.874 96.005C213 95.6597 213 96.005 213 96.005L215.058 101.859Z" fill="url(#paint50_linear_1120_11708)"/>
<path d="M203.163 100.158C203.912 99.2945 204.627 98.4829 205.222 97.6886C207.504 94.6669 205.368 92.7243 205.273 92.6466C205.06 92.5114 204.828 92.4095 204.584 92.3444C204.733 92.2059 204.918 92.1128 205.118 92.0761C205.318 92.0394 205.524 92.0606 205.712 92.1372C205.712 92.1372 208.443 94.5719 205.764 98.1117C205.153 98.9232 204.429 99.7434 203.671 100.624C201.414 103.214 198.856 106.158 199.192 108.878L198.503 108.964C198.15 105.925 200.811 102.86 203.163 100.158Z" fill="url(#paint51_linear_1120_11708)"/>
<path d="M199.717 110.648C199.717 110.648 200.708 107.194 199.08 106.486C197.633 106.115 197.228 110.44 197.357 110.432C197.486 110.423 197.995 111.675 199.717 110.648Z" fill="url(#paint52_linear_1120_11708)"/>
</g>
<path d="M227.763 91.8696C227.965 90.6546 228.518 89.5258 229.354 88.6232C230.19 87.7207 231.273 87.0843 232.467 86.7931C241.43 84.5225 250.817 84.5225 259.781 86.7931C260.974 87.0863 262.055 87.7234 262.89 88.6255C263.726 89.5277 264.28 90.6555 264.484 91.8696C265.311 96.7065 265.311 101.649 264.484 106.486C264.282 107.7 263.728 108.828 262.892 109.729C262.056 110.63 260.974 111.264 259.781 111.554C252.687 113.361 245.305 113.734 238.065 112.651C237.643 114.006 236.265 116.916 232.036 118.521L233.362 111.761L232.458 111.554C231.264 111.265 230.182 110.631 229.345 109.73C228.509 108.829 227.956 107.7 227.755 106.486C226.931 101.649 226.934 96.706 227.763 91.8696Z" fill="url(#paint53_linear_1120_11708)"/>
<path d="M249.815 92.9575C248.976 92.9529 248.161 93.2362 247.506 93.7604C246.95 94.2072 246.49 94.7623 246.154 95.3921C245.817 94.7623 245.357 94.2072 244.801 93.7604C244.145 93.2375 243.331 92.9543 242.493 92.9575C241.921 92.9692 241.357 93.0967 240.835 93.3322C240.314 93.5678 239.845 93.9067 239.457 94.3284C239.069 94.7501 238.771 95.2461 238.579 95.7864C238.387 96.3267 238.306 96.9004 238.341 97.4728C238.341 100.253 240.563 102.152 243.94 105.027L245.835 106.659C245.923 106.737 246.036 106.779 246.154 106.779C246.271 106.779 246.384 106.737 246.472 106.659L248.367 105.027C251.735 102.152 253.966 100.253 253.966 97.4728C254.001 96.9004 253.92 96.3267 253.729 95.7864C253.537 95.2461 253.238 94.7501 252.85 94.3284C252.463 93.9067 251.994 93.5678 251.472 93.3322C250.95 93.0967 250.387 92.9692 249.815 92.9575Z" fill="white"/>
<path d="M178.674 80.0761C178.674 80.5884 178.522 81.0892 178.238 81.5151C177.955 81.941 177.551 82.273 177.079 82.4691C176.607 82.6651 176.087 82.7164 175.586 82.6164C175.084 82.5165 174.624 82.2698 174.263 81.9076C173.901 81.5454 173.655 81.0839 173.555 80.5814C173.456 80.079 173.507 79.5582 173.702 79.085C173.898 78.6117 174.229 78.2072 174.654 77.9226C175.079 77.638 175.579 77.4861 176.09 77.4861C176.775 77.4861 177.432 77.759 177.917 78.2447C178.402 78.7304 178.674 79.3892 178.674 80.0761Z" fill="#A4E3C2"/>
</g>
<defs>
<linearGradient id="paint0_linear_1120_11708" x1="55.7134" y1="110.907" x2="284.287" y2="110.907" gradientUnits="userSpaceOnUse">
<stop stop-color="#6060E7"/>
<stop offset="1" stop-color="#8182EE"/>
</linearGradient>
<linearGradient id="paint1_linear_1120_11708" x1="-22.921" y1="393.215" x2="296.505" y2="138.267" gradientUnits="userSpaceOnUse">
<stop stop-color="#003096"/>
<stop offset="1" stop-color="#6164A1"/>
</linearGradient>
<linearGradient id="paint2_linear_1120_11708" x1="-31.0093" y1="383.079" x2="288.416" y2="128.123" gradientUnits="userSpaceOnUse">
<stop stop-color="#434A5B"/>
<stop offset="1" stop-color="#6164A1"/>
</linearGradient>
<linearGradient id="paint3_linear_1120_11708" x1="102.864" y1="24.8966" x2="125.348" y2="79.6489" gradientUnits="userSpaceOnUse">
<stop stop-color="#FF8D02"/>
<stop offset="1" stop-color="#FFC757"/>
</linearGradient>
<linearGradient id="paint4_linear_1120_11708" x1="132.444" y1="116.933" x2="140.076" y2="162.581" gradientUnits="userSpaceOnUse">
<stop stop-color="#FF8D02"/>
<stop offset="1" stop-color="#FFC757"/>
</linearGradient>
<linearGradient id="paint5_linear_1120_11708" x1="119.498" y1="86.5082" x2="157.262" y2="178.455" gradientUnits="userSpaceOnUse">
<stop stop-color="#FF3843"/>
<stop offset="1" stop-color="#FF8457"/>
</linearGradient>
<linearGradient id="paint6_linear_1120_11708" x1="139.034" y1="135.814" x2="132.175" y2="115.276" gradientUnits="userSpaceOnUse">
<stop stop-color="#FF8D02"/>
<stop offset="1" stop-color="#FFC757"/>
</linearGradient>
<linearGradient id="paint7_linear_1120_11708" x1="257.576" y1="45.4125" x2="277.089" y2="20.6692" gradientUnits="userSpaceOnUse">
<stop stop-color="#434A5B"/>
<stop offset="1" stop-color="#6164A1"/>
</linearGradient>
<linearGradient id="paint8_linear_1120_11708" x1="275.914" y1="66.1244" x2="268.013" y2="51.5662" gradientUnits="userSpaceOnUse">
<stop stop-color="#FFB58E"/>
<stop offset="0.33" stop-color="#FEB38B"/>
<stop offset="0.59" stop-color="#FCAD81"/>
<stop offset="0.83" stop-color="#F9A370"/>
<stop offset="1" stop-color="#F5985F"/>
</linearGradient>
<linearGradient id="paint9_linear_1120_11708" x1="261.857" y1="28.6806" x2="267.238" y2="56.3206" gradientUnits="userSpaceOnUse">
<stop stop-color="#FFB58E"/>
<stop offset="0.33" stop-color="#FEB38B"/>
<stop offset="0.59" stop-color="#FCAD81"/>
<stop offset="0.83" stop-color="#F9A370"/>
<stop offset="1" stop-color="#F5985F"/>
</linearGradient>
<linearGradient id="paint10_linear_1120_11708" x1="275.518" y1="29.9066" x2="279.697" y2="51.3574" gradientUnits="userSpaceOnUse">
<stop stop-color="#FFB58E"/>
<stop offset="0.33" stop-color="#FEB38B"/>
<stop offset="0.59" stop-color="#FCAD81"/>
<stop offset="0.83" stop-color="#F9A370"/>
<stop offset="1" stop-color="#F5985F"/>
</linearGradient>
<linearGradient id="paint11_linear_1120_11708" x1="320.74" y1="150.327" x2="264.401" y2="78.8899" gradientUnits="userSpaceOnUse">
<stop stop-color="#434A5B"/>
<stop offset="1" stop-color="#6164A1"/>
</linearGradient>
<linearGradient id="paint12_linear_1120_11708" x1="249.97" y1="77.5638" x2="300.205" y2="77.5638" gradientUnits="userSpaceOnUse">
<stop stop-color="#FF8D02"/>
<stop offset="1" stop-color="#FFC757"/>
</linearGradient>
<linearGradient id="paint13_linear_1120_11708" x1="252.812" y1="76.2601" x2="294.098" y2="76.2601" gradientUnits="userSpaceOnUse">
<stop stop-color="#9A2802"/>
<stop offset="1" stop-color="#FF5057"/>
</linearGradient>
<linearGradient id="paint14_linear_1120_11708" x1="275.88" y1="29.5095" x2="281.667" y2="53.7983" gradientUnits="userSpaceOnUse">
<stop stop-color="#B62C01"/>
<stop offset="1" stop-color="#7C0C0A"/>
</linearGradient>
<linearGradient id="paint15_linear_1120_11708" x1="270.918" y1="27.9554" x2="268.028" y2="47.4394" gradientUnits="userSpaceOnUse">
<stop stop-color="#434A5B"/>
<stop offset="1" stop-color="#6164A1"/>
</linearGradient>
<linearGradient id="paint16_linear_1120_11708" x1="275.897" y1="15.9893" x2="272.661" y2="37.7696" gradientUnits="userSpaceOnUse">
<stop stop-color="#434A5B"/>
<stop offset="1" stop-color="#6164A1"/>
</linearGradient>
<linearGradient id="paint17_linear_1120_11708" x1="277.786" y1="38.4285" x2="281.614" y2="38.6107" gradientUnits="userSpaceOnUse">
<stop stop-color="#FF8D02"/>
<stop offset="1" stop-color="#FFC757"/>
</linearGradient>
<linearGradient id="paint18_linear_1120_11708" x1="268.713" y1="27.4978" x2="264.215" y2="43.6113" gradientUnits="userSpaceOnUse">
<stop stop-color="#434A5B"/>
<stop offset="1" stop-color="#6164A1"/>
</linearGradient>
<linearGradient id="paint19_linear_1120_11708" x1="260.487" y1="25.2014" x2="255.989" y2="41.3148" gradientUnits="userSpaceOnUse">
<stop stop-color="#434A5B"/>
<stop offset="1" stop-color="#6164A1"/>
</linearGradient>
<linearGradient id="paint20_linear_1120_11708" x1="261.667" y1="53.3899" x2="257.688" y2="41.127" gradientUnits="userSpaceOnUse">
<stop stop-color="#9A2802"/>
<stop offset="1" stop-color="#FF5057"/>
</linearGradient>
<linearGradient id="paint21_linear_1120_11708" x1="266.206" y1="32.2118" x2="266.371" y2="39.3862" gradientUnits="userSpaceOnUse">
<stop stop-color="#434A5B"/>
<stop offset="1" stop-color="#6164A1"/>
</linearGradient>
<linearGradient id="paint22_linear_1120_11708" x1="257.8" y1="30.7699" x2="257.973" y2="37.9444" gradientUnits="userSpaceOnUse">
<stop stop-color="#434A5B"/>
<stop offset="1" stop-color="#6164A1"/>
</linearGradient>
<linearGradient id="paint23_linear_1120_11708" x1="223.62" y1="61.4881" x2="199.897" y2="-4.10924" gradientUnits="userSpaceOnUse">
<stop stop-color="#FF8D02"/>
<stop offset="1" stop-color="#FFC757"/>
</linearGradient>
<linearGradient id="paint24_linear_1120_11708" x1="274.123" y1="142.298" x2="287.659" y2="125.139" gradientUnits="userSpaceOnUse">
<stop stop-color="#434A5B"/>
<stop offset="1" stop-color="#6164A1"/>
</linearGradient>
<linearGradient id="paint25_linear_1120_11708" x1="286.845" y1="156.664" x2="281.364" y2="146.565" gradientUnits="userSpaceOnUse">
<stop stop-color="#B6614A"/>
<stop offset="0.32" stop-color="#B35F47"/>
<stop offset="0.57" stop-color="#A9593D"/>
<stop offset="0.8" stop-color="#984E2D"/>
<stop offset="1" stop-color="#834119"/>
</linearGradient>
<linearGradient id="paint26_linear_1120_11708" x1="277.094" y1="130.695" x2="280.823" y2="149.858" gradientUnits="userSpaceOnUse">
<stop stop-color="#B6614A"/>
<stop offset="0.32" stop-color="#B35F47"/>
<stop offset="0.57" stop-color="#A9593D"/>
<stop offset="0.8" stop-color="#984E2D"/>
<stop offset="1" stop-color="#834119"/>
</linearGradient>
<linearGradient id="paint27_linear_1120_11708" x1="286.569" y1="131.541" x2="289.468" y2="146.423" gradientUnits="userSpaceOnUse">
<stop stop-color="#B6614A"/>
<stop offset="0.32" stop-color="#B35F47"/>
<stop offset="0.57" stop-color="#A9593D"/>
<stop offset="0.8" stop-color="#984E2D"/>
<stop offset="1" stop-color="#834119"/>
</linearGradient>
<linearGradient id="paint28_linear_1120_11708" x1="317.932" y1="215.07" x2="278.852" y2="165.515" gradientUnits="userSpaceOnUse">
<stop stop-color="#434A5B"/>
<stop offset="1" stop-color="#6164A1"/>
</linearGradient>
<linearGradient id="paint29_linear_1120_11708" x1="268.851" y1="164.599" x2="303.693" y2="164.599" gradientUnits="userSpaceOnUse">
<stop stop-color="#FF8D02"/>
<stop offset="1" stop-color="#FFC757"/>
</linearGradient>
<linearGradient id="paint30_linear_1120_11708" x1="270.823" y1="163.692" x2="299.455" y2="163.692" gradientUnits="userSpaceOnUse">
<stop stop-color="#9A2802"/>
<stop offset="1" stop-color="#FF5057"/>
</linearGradient>
<linearGradient id="paint31_linear_1120_11708" x1="283.382" y1="130.194" x2="281.375" y2="143.704" gradientUnits="userSpaceOnUse">
<stop stop-color="#434A5B"/>
<stop offset="1" stop-color="#6164A1"/>
</linearGradient>
<linearGradient id="paint32_linear_1120_11708" x1="286.828" y1="121.888" x2="284.587" y2="136.996" gradientUnits="userSpaceOnUse">
<stop stop-color="#434A5B"/>
<stop offset="1" stop-color="#6164A1"/>
</linearGradient>
<linearGradient id="paint33_linear_1120_11708" x1="288.149" y1="137.441" x2="290.799" y2="137.567" gradientUnits="userSpaceOnUse">
<stop stop-color="#FF8D02"/>
<stop offset="1" stop-color="#FFC757"/>
</linearGradient>
<linearGradient id="paint34_linear_1120_11708" x1="309.585" y1="143.472" x2="325.724" y2="98.852" gradientUnits="userSpaceOnUse">
<stop stop-color="#6060E7"/>
<stop offset="1" stop-color="#8182EE"/>
</linearGradient>
<linearGradient id="paint35_linear_1120_11708" x1="311.618" y1="114.774" x2="327.562" y2="114.774" gradientUnits="userSpaceOnUse">
<stop stop-color="#FF8D02"/>
<stop offset="1" stop-color="#FFC757"/>
</linearGradient>
<linearGradient id="paint36_linear_1120_11708" x1="213.715" y1="96.9634" x2="201.499" y2="148.243" gradientUnits="userSpaceOnUse">
<stop stop-color="#C56B01"/>
<stop offset="1" stop-color="#B32C0A"/>
</linearGradient>
<linearGradient id="paint37_linear_1120_11708" x1="209.933" y1="120.136" x2="201.276" y2="120.136" gradientUnits="userSpaceOnUse">
<stop stop-color="#FFB58E"/>
<stop offset="0.33" stop-color="#FEB38B"/>
<stop offset="0.59" stop-color="#FCAD81"/>
<stop offset="0.83" stop-color="#F9A370"/>
<stop offset="1" stop-color="#F5985F"/>
</linearGradient>
<linearGradient id="paint38_linear_1120_11708" x1="214.481" y1="113.669" x2="200.522" y2="95.9672" gradientUnits="userSpaceOnUse">
<stop stop-color="#434A5B"/>
<stop offset="1" stop-color="#6164A1"/>
</linearGradient>
<linearGradient id="paint39_linear_1120_11708" x1="211.423" y1="101.703" x2="207.565" y2="121.479" gradientUnits="userSpaceOnUse">
<stop stop-color="#FFB58E"/>
<stop offset="0.33" stop-color="#FEB38B"/>
<stop offset="0.59" stop-color="#FCAD81"/>
<stop offset="0.83" stop-color="#F9A370"/>
<stop offset="1" stop-color="#F5985F"/>
</linearGradient>
<linearGradient id="paint40_linear_1120_11708" x1="201.638" y1="102.575" x2="198.653" y2="117.932" gradientUnits="userSpaceOnUse">
<stop stop-color="#FFB58E"/>
<stop offset="0.33" stop-color="#FEB38B"/>
<stop offset="0.59" stop-color="#FCAD81"/>
<stop offset="0.83" stop-color="#F9A370"/>
<stop offset="1" stop-color="#F5985F"/>
</linearGradient>
<linearGradient id="paint41_linear_1120_11708" x1="169.888" y1="187.434" x2="210.211" y2="136.31" gradientUnits="userSpaceOnUse">
<stop stop-color="#434A5B"/>
<stop offset="1" stop-color="#6164A1"/>
</linearGradient>
<linearGradient id="paint42_linear_1120_11708" x1="220.537" y1="135.357" x2="184.583" y2="135.357" gradientUnits="userSpaceOnUse">
<stop stop-color="#FF8D02"/>
<stop offset="1" stop-color="#FFC757"/>
</linearGradient>
<linearGradient id="paint43_linear_1120_11708" x1="218.504" y1="134.424" x2="188.959" y2="134.424" gradientUnits="userSpaceOnUse">
<stop stop-color="#9A2802"/>
<stop offset="1" stop-color="#FF5057"/>
</linearGradient>
<linearGradient id="paint44_linear_1120_11708" x1="206.514" y1="100.857" x2="209.732" y2="112.379" gradientUnits="userSpaceOnUse">
<stop stop-color="#434A5B"/>
<stop offset="1" stop-color="#6164A1"/>
</linearGradient>
<linearGradient id="paint45_linear_1120_11708" x1="212.397" y1="99.2081" x2="215.615" y2="110.739" gradientUnits="userSpaceOnUse">
<stop stop-color="#434A5B"/>
<stop offset="1" stop-color="#6164A1"/>
</linearGradient>
<linearGradient id="paint46_linear_1120_11708" x1="211.553" y1="119.385" x2="214.398" y2="110.608" gradientUnits="userSpaceOnUse">
<stop stop-color="#9A2802"/>
<stop offset="1" stop-color="#FF5057"/>
</linearGradient>
<linearGradient id="paint47_linear_1120_11708" x1="208.305" y1="104.233" x2="208.193" y2="109.361" gradientUnits="userSpaceOnUse">
<stop stop-color="#434A5B"/>
<stop offset="1" stop-color="#6164A1"/>
</linearGradient>
<linearGradient id="paint48_linear_1120_11708" x1="214.318" y1="103.197" x2="214.196" y2="108.325" gradientUnits="userSpaceOnUse">
<stop stop-color="#434A5B"/>
<stop offset="1" stop-color="#6164A1"/>
</linearGradient>
<linearGradient id="paint49_linear_1120_11708" x1="201.311" y1="95.7547" x2="189.9" y2="143.694" gradientUnits="userSpaceOnUse">
<stop stop-color="#C56B01"/>
<stop offset="1" stop-color="#B32C0A"/>
</linearGradient>
<linearGradient id="paint50_linear_1120_11708" x1="204.929" y1="101.185" x2="207.005" y2="115.127" gradientUnits="userSpaceOnUse">
<stop stop-color="#434A5B"/>
<stop offset="1" stop-color="#6164A1"/>
</linearGradient>
<linearGradient id="paint51_linear_1120_11708" x1="201.371" y1="92.6207" x2="203.69" y2="108.203" gradientUnits="userSpaceOnUse">
<stop stop-color="#434A5B"/>
<stop offset="1" stop-color="#6164A1"/>
</linearGradient>
<linearGradient id="paint52_linear_1120_11708" x1="200.181" y1="109.491" x2="197.442" y2="109.628" gradientUnits="userSpaceOnUse">
<stop stop-color="#FF8D02"/>
<stop offset="1" stop-color="#FFC757"/>
</linearGradient>
<linearGradient id="paint53_linear_1120_11708" x1="236.136" y1="126.922" x2="252.275" y2="82.3014" gradientUnits="userSpaceOnUse">
<stop stop-color="#FF3843"/>
<stop offset="1" stop-color="#FF8457"/>
</linearGradient>
<clipPath id="clip0_1120_11708">
<rect width="340" height="272" fill="white"/>
</clipPath>
</defs>
</svg>
