<svg width="287" height="313" viewBox="0 0 287 313" fill="none" xmlns="http://www.w3.org/2000/svg">
<g clip-path="url(#clip0_1120_12154)">
<path d="M207.22 308.09H125.3C124.467 308.091 123.641 307.928 122.871 307.61C122.1 307.292 121.4 306.825 120.811 306.237C120.221 305.648 119.753 304.948 119.434 304.179C119.114 303.409 118.95 302.583 118.95 301.75V285.75C118.95 284.917 119.114 284.091 119.434 283.321C119.753 282.552 120.221 281.852 120.811 281.263C121.4 280.675 122.1 280.208 122.871 279.89C123.641 279.572 124.467 279.409 125.3 279.41H207.18L206.44 281.41C203.221 290.066 203.5 299.636 207.22 308.09Z" fill="#DDF1FA"/>
<path d="M16.41 275.15C13.3612 275.094 10.4017 276.181 8.11292 278.196C5.82413 280.211 4.37138 283.009 4.04 286.04C3.77 289.13 3.63 292.5 3.63 296.04C3.63 297.78 3.63 299.48 3.73 301.13C3.92022 304.278 5.31792 307.23 7.63176 309.373C9.9456 311.515 12.997 312.682 16.15 312.63H216.08V308.1H125.65C123.885 308.1 122.193 307.4 120.944 306.153C119.695 304.906 118.993 303.215 118.99 301.45V286.07C118.993 284.305 119.695 282.614 120.944 281.367C122.193 280.12 123.885 279.42 125.65 279.42H216.08V275.15H16.41Z" fill="#003096"/>
<path d="M148.98 293.31H138.61V294.45H148.98V293.31Z" fill="#008EF8"/>
<path d="M157.61 299.55H147.24V300.69H157.61V299.55Z" fill="#008EF8"/>
<path d="M181.05 299.55H170.68V300.69H181.05V299.55Z" fill="#008EF8"/>
<path d="M181.83 294.14H165.97V295.28H181.83V294.14Z" fill="#008EF8"/>
<path d="M156.92 284.55H141.06V285.69H156.92V284.55Z" fill="#008EF8"/>
<path d="M101.22 285.12H11.86V300.12H101.22V285.12Z" fill="#008EF8"/>
<path d="M193.89 270.87H127.1C125.315 270.87 123.603 270.161 122.341 268.899C121.079 267.637 120.37 265.925 120.37 264.14V253.69C120.37 252.806 120.544 251.931 120.882 251.115C121.22 250.298 121.716 249.556 122.341 248.931C122.966 248.306 123.708 247.81 124.525 247.472C125.341 247.134 126.216 246.96 127.1 246.96H193.89L193.56 247.8C190.686 255.244 190.804 263.511 193.89 270.87Z" fill="#DDF1FA"/>
<path d="M8.55 242.31C3.82 242.31 0 247.56 0 254.03V263.78C0 270.25 3.82 275.49 8.55 275.49H202.43V270.86H127.22C125.403 270.86 123.661 270.138 122.376 268.854C121.092 267.569 120.37 265.827 120.37 264.01V253.81C120.37 252.91 120.547 252.02 120.891 251.189C121.236 250.358 121.74 249.602 122.376 248.966C123.012 248.33 123.768 247.826 124.599 247.481C125.43 247.137 126.32 246.96 127.22 246.96H202.43V242.31H8.55Z" fill="#FFCD52"/>
<path d="M28.3 275.51C23.58 275.51 19.75 270.27 19.75 263.8V254.04C19.75 247.57 23.58 242.33 28.3 242.33H35.67C30.95 242.33 27.12 247.57 27.12 254.04V263.8C27.12 270.27 30.95 275.51 35.67 275.51H28.3Z" fill="#FF9A78"/>
<path d="M96.3 275.51C91.58 275.51 87.75 270.27 87.75 263.8V254.04C87.75 247.57 91.58 242.33 96.3 242.33H103.67C98.94 242.33 95.12 247.57 95.12 254.04V263.8C95.12 270.27 98.94 275.51 103.67 275.51H96.3Z" fill="#FF9A78"/>
<path d="M165.18 258.83H131.46V259.97H165.18V258.83Z" fill="#008EF8"/>
<path d="M154.61 254H140.2V255.14H154.61V254Z" fill="#008EF8"/>
<path d="M176.45 254.72H165.97V255.86H176.45V254.72Z" fill="#008EF8"/>
<path d="M105.51 237.67H9.92004C12.6748 232.715 14.1205 227.139 14.1205 221.47C14.1205 215.801 12.6748 210.225 9.92004 205.27H105.51C107.295 205.27 109.007 205.979 110.269 207.241C111.531 208.503 112.24 210.215 112.24 212V230.94C112.24 232.725 111.531 234.437 110.269 235.699C109.007 236.961 107.295 237.67 105.51 237.67Z" fill="#DDF1FA"/>
<path d="M78.4001 218.56H43.9401V219.7H78.4001V218.56Z" fill="#008EF8"/>
<path d="M89.5301 231.19H55.0701V232.33H89.5301V231.19Z" fill="#008EF8"/>
<path d="M36.8 222.97H27.16V224.11H36.8V222.97Z" fill="#008EF8"/>
<path d="M89.53 209.06H79.89V210.2H89.53V209.06Z" fill="#008EF8"/>
<path d="M21.89 216.36H17.86V217.5H21.89V216.36Z" fill="#008EF8"/>
<path d="M97.18 222.97H93.15V224.11H97.18V222.97Z" fill="#008EF8"/>
<path d="M201.3 200.63H3.14001V205.31H105.3C107.148 205.323 108.916 206.067 110.217 207.378C111.519 208.689 112.25 210.462 112.25 212.31V230.81C112.237 232.649 111.5 234.409 110.2 235.71C108.899 237.01 107.139 237.747 105.3 237.76H3.14001V242.31H201.3C206.13 242.31 210.04 235.72 210.04 227.6V215.31C210 207.22 206.09 200.63 201.3 200.63Z" fill="#912039"/>
<path d="M70.82 219.13C68.16 219.13 66.01 225.34 66.01 232.99V252.36L57.39 247.36L49.62 252.36V232.99C49.62 225.34 51.77 219.13 54.42 219.13H70.82Z" fill="#912039"/>
<path d="M206.04 100.31L201.75 98.54L236.98 12.63C237.08 12.3329 237.24 12.0592 237.449 11.8254C237.658 11.5916 237.912 11.4025 238.196 11.2697C238.48 11.1369 238.788 11.0631 239.101 11.0527C239.415 11.0423 239.727 11.0955 240.019 11.2091C240.311 11.3228 240.578 11.4945 240.802 11.7139C241.026 11.9333 241.203 12.1959 241.323 12.4857C241.442 12.7756 241.502 13.0866 241.498 13.4002C241.494 13.7138 241.427 14.0233 241.3 14.31L206.04 100.31Z" fill="#912039"/>
<path d="M246.581 83.3856C261.077 68.8894 261.077 45.3863 246.581 30.89C232.084 16.3938 208.581 16.3938 194.085 30.89C179.589 45.3863 179.589 68.8894 194.085 83.3856C208.581 97.8819 232.084 97.8819 246.581 83.3856Z" fill="#008EF8"/>
<path d="M220.3 103.48C214.368 103.491 208.49 102.354 202.99 100.13C202.443 99.8734 202.017 99.4163 201.798 98.8534C201.579 98.2905 201.586 97.665 201.816 97.1068C202.046 96.5486 202.483 96.1004 203.035 95.8552C203.586 95.6101 204.211 95.5867 204.78 95.79C209.711 97.7829 214.981 98.8017 220.3 98.79C229.852 98.8093 239.12 95.5448 246.551 89.5436C253.983 83.5425 259.126 75.1694 261.118 65.8276C263.11 56.4858 261.831 46.7431 257.495 38.2322C253.158 29.7213 246.029 22.9595 237.3 19.08L239.21 14.8C248.918 19.1183 256.847 26.6412 261.669 36.1087C266.491 45.5762 267.913 56.4132 265.697 66.8043C263.481 77.1955 257.762 86.5096 249.497 93.1865C241.233 99.8634 230.925 103.498 220.3 103.48Z" fill="#912039"/>
<path d="M207.14 29.17L199.72 36.59C199.285 37.0244 198.989 37.5778 198.869 38.1804C198.748 38.783 198.809 39.4077 199.043 39.9758C199.277 40.5439 199.675 41.0299 200.185 41.3723C200.695 41.7148 201.295 41.8984 201.91 41.9H202.3C202.671 41.8974 203.039 41.9685 203.382 42.1093C203.726 42.25 204.038 42.4577 204.3 42.72C204.83 43.2507 205.128 43.97 205.128 44.72C205.128 45.4701 204.83 46.1894 204.3 46.72L203.68 47.33C203.245 47.7648 202.901 48.2808 202.666 48.8488C202.431 49.4167 202.31 50.0254 202.31 50.64V51.15C202.306 52.0669 202.665 52.9481 203.31 53.6C203.543 53.8299 203.729 54.1039 203.855 54.406C203.982 54.7082 204.047 55.0325 204.047 55.36C204.047 55.6876 203.982 56.0119 203.855 56.3141C203.729 56.6162 203.543 56.8902 203.31 57.12L202.49 57.94C201.165 59.2669 200.421 61.065 200.42 62.94V75.31C200.419 75.5901 200.473 75.8677 200.58 76.1268C200.686 76.3859 200.842 76.6215 201.04 76.82L201.51 77.29C201.911 77.681 202.45 77.8997 203.01 77.8997C203.57 77.8997 204.109 77.681 204.51 77.29L210.76 71.04C211.51 70.2875 212.402 69.6906 213.383 69.2839C214.365 68.8772 215.417 68.6685 216.48 68.67H217.12C218.756 68.6685 220.324 68.0175 221.48 66.86L223.48 64.86C224.574 63.7683 226.055 63.1535 227.6 63.15H236.3C236.959 63.1512 237.613 63.0219 238.222 62.7697C238.831 62.5174 239.384 62.1471 239.85 61.68L241.52 60.01C241.76 59.7616 241.922 59.4482 241.987 59.1086C242.051 58.7691 242.014 58.4181 241.881 58.0991C241.748 57.7801 241.525 57.507 241.239 57.3135C240.952 57.12 240.616 57.0145 240.27 57.01H236.73C236.235 57.01 235.746 56.9125 235.289 56.7229C234.832 56.5333 234.417 56.2554 234.068 55.9052C233.718 55.555 233.442 55.1393 233.253 54.682C233.065 54.2247 232.969 53.7347 232.97 53.24V45.1C232.967 44.3353 232.662 43.6028 232.12 43.063C231.578 42.5231 230.845 42.22 230.08 42.22H228.98C228.131 42.22 227.317 41.8829 226.717 41.2828C226.117 40.6827 225.78 39.8687 225.78 39.02V37.87C225.78 37.0744 225.464 36.3113 224.901 35.7487C224.339 35.1861 223.576 34.87 222.78 34.87H222.02C219.957 34.8694 217.978 34.0492 216.52 32.59L214.52 30.59L212.62 29.03C211.853 28.3666 210.866 28.0132 209.853 28.0391C208.839 28.065 207.872 28.4683 207.14 29.17Z" fill="#F46534"/>
<path d="M227.9 20.79C227.574 21.2228 227.34 21.7171 227.211 22.2431C227.082 22.7691 227.061 23.3158 227.15 23.85L228.8 34.22C228.898 34.8272 229.173 35.3919 229.591 35.8426C230.01 36.2933 230.552 36.6098 231.151 36.7522C231.749 36.8945 232.376 36.8563 232.953 36.6423C233.529 36.4284 234.029 36.0482 234.39 35.55L234.61 35.25C234.824 34.9492 235.097 34.6942 235.411 34.5002C235.725 34.3061 236.075 34.1769 236.44 34.12C237.176 34.0046 237.927 34.1848 238.53 34.6213C239.134 35.0578 239.54 35.7152 239.66 36.45L239.79 37.31C239.99 38.5375 240.665 39.6369 241.67 40.37L242.08 40.67C242.828 41.2009 243.753 41.4196 244.66 41.28C244.983 41.2287 245.313 41.2416 245.631 41.3178C245.949 41.3941 246.249 41.5323 246.514 41.7245C246.779 41.9168 247.003 42.1593 247.174 42.4382C247.345 42.7171 247.459 43.0269 247.51 43.35L247.69 44.5C247.99 46.3519 249.011 48.0096 250.53 49.11L257.33 54.04C256.659 46.0677 253.432 38.5251 248.129 32.5342C242.827 26.5434 235.732 22.4244 227.9 20.79Z" fill="#FFCD52"/>
<path d="M236.4 125.52H224.67C224.685 125.257 224.685 124.993 224.67 124.73V112.92C224.67 109.63 222.82 106.92 220.53 106.92H220.06C217.77 106.92 215.91 109.59 215.91 112.92V124.73C215.911 124.994 215.928 125.258 215.96 125.52H204.3C202.45 125.52 200.94 127.69 200.94 130.36C200.94 133.03 202.45 135.21 204.3 135.21H236.4C238.26 135.21 239.77 133.04 239.77 130.36C239.77 127.68 238.3 125.52 236.4 125.52Z" fill="#912039"/>
<path d="M221.6 101.83H218.61V109.7H221.6V101.83Z" fill="#912039"/>
<path d="M264.79 5.68001C269.066 5.6853 273.166 7.3864 276.19 10.4102C279.214 13.434 280.915 17.5337 280.92 21.81V131.74C280.915 136.016 279.214 140.116 276.19 143.14C273.166 146.164 269.066 147.865 264.79 147.87H185.09C180.814 147.865 176.714 146.164 173.69 143.14C170.666 140.116 168.965 136.016 168.96 131.74V21.81C168.965 17.5337 170.666 13.434 173.69 10.4102C176.714 7.3864 180.814 5.6853 185.09 5.68001H264.79ZM264.79 9.17097e-06H185.09C179.309 0.00531032 173.767 2.30548 169.681 6.39507C165.595 10.4847 163.3 16.0291 163.3 21.81V131.74C163.299 134.605 163.862 137.441 164.958 140.088C166.053 142.735 167.66 145.139 169.685 147.165C171.711 149.19 174.115 150.797 176.762 151.893C179.409 152.988 182.245 153.551 185.11 153.55H264.81C267.674 153.551 270.511 152.988 273.158 151.893C275.805 150.797 278.209 149.19 280.235 147.165C282.26 145.139 283.867 142.735 284.962 140.088C286.058 137.441 286.621 134.605 286.62 131.74V21.81C286.62 18.9442 286.055 16.1065 284.958 13.4591C283.861 10.8116 282.252 8.40644 280.225 6.38093C278.198 4.35542 275.791 2.74933 273.142 1.65445C270.494 0.559573 267.656 -0.00261881 264.79 9.17097e-06Z" fill="#B16DE2"/>
<path d="M211.14 71.63L211.31 81.69L218.52 88.35L229.44 78.7L220.65 70.3L211.14 71.63Z" fill="#FFA187"/>
<path d="M219.94 66.7L229.11 59.06C229.538 58.726 230.076 58.5669 230.617 58.6148C231.157 58.6627 231.659 58.9142 232.021 59.3182C232.383 59.7222 232.578 60.2487 232.567 60.7911C232.556 61.3336 232.339 61.8515 231.96 62.24L223.36 70.52C223.121 70.7722 222.833 70.9733 222.514 71.1111C222.195 71.249 221.852 71.3207 221.504 71.322C221.157 71.3233 220.813 71.2542 220.493 71.1187C220.173 70.9833 219.884 70.7843 219.643 70.5339C219.402 70.2836 219.214 69.9869 219.091 69.662C218.968 69.337 218.912 68.9905 218.927 68.6434C218.942 68.2962 219.027 67.9556 219.177 67.6423C219.327 67.3289 219.539 67.0491 219.8 66.82L219.94 66.7Z" fill="#FFA187"/>
<path d="M213.3 74.31C212.863 74.2778 212.445 74.1221 212.093 73.861C211.741 73.6 211.471 73.2443 211.314 72.8355C211.157 72.4267 211.119 71.9816 211.205 71.5522C211.291 71.1227 211.497 70.7266 211.8 70.41L216.01 66.03C216.261 65.7598 216.575 65.5556 216.924 65.4353C217.273 65.315 217.646 65.2822 218.01 65.34C218.37 65.3862 218.714 65.5161 219.014 65.7193C219.315 65.9225 219.563 66.1933 219.74 66.51C220.139 67.2576 220.659 67.9335 221.28 68.51C221.829 68.757 222.258 69.2111 222.473 69.773C222.689 70.335 222.673 70.9594 222.43 71.51C222.175 72.0693 221.709 72.5045 221.133 72.7201C220.557 72.9357 219.92 72.9141 219.36 72.66C218.626 72.3025 217.973 71.7988 217.44 71.18L215.18 73.54C214.947 73.8037 214.656 74.0103 214.33 74.1438C214.004 74.2773 213.651 74.3342 213.3 74.31Z" fill="#FFA187"/>
<path d="M215.11 74.22C214.965 74.2165 214.826 74.1596 214.72 74.06C214.667 74.0079 214.625 73.9456 214.596 73.877C214.567 73.8083 214.552 73.7345 214.552 73.66C214.552 73.5855 214.567 73.5118 214.596 73.4431C214.625 73.3744 214.667 73.3122 214.72 73.26L216.98 70.89C217.099 70.7908 217.246 70.7314 217.4 70.72C217.478 70.7195 217.555 70.7363 217.626 70.7691C217.697 70.802 217.76 70.8501 217.81 70.91C218.291 71.4705 218.879 71.9294 219.54 72.26C219.973 72.4352 220.457 72.4352 220.89 72.26C221.211 72.1388 221.49 71.9251 221.69 71.646C221.89 71.367 222.003 71.0349 222.015 70.6917C222.026 70.3484 221.936 70.0094 221.756 69.7173C221.575 69.4252 221.312 69.193 221 69.05C220.259 68.4186 219.644 67.6516 219.19 66.79C219.118 66.6585 219.101 66.504 219.142 66.3599C219.183 66.2158 219.279 66.0937 219.41 66.02C219.474 65.9816 219.546 65.9568 219.62 65.9472C219.695 65.9375 219.77 65.9431 219.843 65.9637C219.915 65.9843 219.982 66.0195 220.04 66.067C220.098 66.1145 220.146 66.1734 220.18 66.24C220.545 66.9026 220.999 67.5117 221.53 68.05C222.22 68.3749 222.752 68.9604 223.01 69.6777C223.268 70.3951 223.23 71.1855 222.905 71.875C222.58 72.5646 221.995 73.0968 221.277 73.3547C220.56 73.6126 219.77 73.5749 219.08 73.25C218.455 72.9584 217.886 72.559 217.4 72.07L215.54 74C215.49 74.067 215.425 74.1216 215.35 74.1597C215.276 74.1979 215.194 74.2185 215.11 74.22Z" fill="#912336"/>
<path d="M227.63 70.75L222.78 75.51C222.45 75.8591 221.998 76.0663 221.518 76.0879C221.038 76.1094 220.569 75.9436 220.209 75.6255C219.85 75.3073 219.628 74.8618 219.591 74.3831C219.553 73.9043 219.704 73.4299 220.01 73.06L224.18 67.68C224.366 67.4397 224.597 67.2383 224.861 67.0874C225.124 66.9365 225.415 66.839 225.717 66.8004C226.018 66.7619 226.324 66.7831 226.617 66.8628C226.91 66.9425 227.185 67.0792 227.425 67.265C227.665 67.4508 227.867 67.6822 228.018 67.9458C228.169 68.2094 228.266 68.5002 228.305 68.8015C228.343 69.1029 228.322 69.4088 228.242 69.702C228.163 69.9951 228.026 70.2697 227.84 70.51C227.775 70.5945 227.705 70.6747 227.63 70.75Z" fill="#FFA187"/>
<path d="M232.3 77.31L226.93 80.31C226.72 80.4312 226.487 80.5094 226.246 80.5403C226.005 80.5712 225.761 80.5541 225.526 80.4899C225.292 80.4258 225.073 80.3159 224.881 80.1666C224.69 80.0173 224.529 79.8315 224.41 79.62C224.19 79.2338 224.115 78.7814 224.199 78.3448C224.283 77.9082 224.522 77.5162 224.87 77.24L229.74 73.41C230.224 73.0294 230.839 72.8567 231.451 72.9298C232.062 73.003 232.619 73.316 233 73.8C233.381 74.284 233.553 74.8994 233.48 75.5108C233.407 76.1222 233.094 76.6794 232.61 77.06C232.513 77.1503 232.409 77.2339 232.3 77.31Z" fill="#FFA187"/>
<path d="M230.72 73.31L224.94 78.45C224.59 78.7797 224.126 78.9603 223.646 78.9537C223.165 78.9471 222.706 78.7537 222.365 78.4145C222.025 78.0753 221.83 77.617 221.821 77.1365C221.813 76.6559 221.992 76.191 222.32 75.84L227.45 70.05C227.867 69.6276 228.43 69.381 229.023 69.3609C229.616 69.3409 230.194 69.5488 230.639 69.9421C231.083 70.3353 231.36 70.8839 231.412 71.475C231.465 72.0661 231.288 72.6548 230.92 73.12C230.861 73.1909 230.794 73.2547 230.72 73.31Z" fill="#FFA187"/>
<path d="M221.48 76.61C221.162 76.6095 220.846 76.5456 220.553 76.4219C220.259 76.2983 219.993 76.1175 219.77 75.89C219.362 75.4704 219.119 74.9178 219.086 74.3336C219.053 73.7494 219.232 73.1729 219.59 72.71L223.75 67.33C223.847 67.2274 223.978 67.1643 224.119 67.153C224.26 67.1416 224.4 67.1829 224.512 67.2688C224.624 67.3546 224.7 67.479 224.725 67.6178C224.751 67.7565 224.724 67.8999 224.65 68.02L220.48 73.4C220.292 73.6472 220.199 73.9535 220.217 74.2635C220.236 74.5735 220.364 74.8667 220.58 75.09C220.698 75.2118 220.84 75.3082 220.996 75.3736C221.152 75.4389 221.321 75.4717 221.49 75.47C221.659 75.4828 221.829 75.457 221.986 75.3947C222.144 75.3323 222.286 75.235 222.4 75.11L227.25 70.34C227.311 70.2872 227.365 70.2267 227.41 70.16C227.504 70.0429 227.641 69.967 227.79 69.9483C227.939 69.9296 228.09 69.9697 228.21 70.06C228.269 70.106 228.319 70.1631 228.356 70.2282C228.393 70.2933 228.417 70.365 228.426 70.4393C228.435 70.5136 228.43 70.589 228.41 70.6612C228.39 70.7334 228.356 70.8009 228.31 70.86C228.229 70.9613 228.142 71.0581 228.05 71.15L223.2 75.92C222.973 76.1428 222.704 76.3185 222.409 76.437C222.114 76.5554 221.798 76.6142 221.48 76.61Z" fill="#912336"/>
<path d="M226.02 81.16C225.804 81.163 225.589 81.1361 225.38 81.08C225.072 80.9969 224.783 80.8533 224.531 80.6576C224.278 80.4619 224.067 80.218 223.91 79.94C223.836 79.8074 223.817 79.6507 223.859 79.5045C223.9 79.3582 223.997 79.2343 224.13 79.16C224.263 79.0858 224.419 79.0672 224.566 79.1085C224.712 79.1497 224.836 79.2474 224.91 79.38C225.08 79.6744 225.359 79.8899 225.686 79.9797C226.014 80.0696 226.364 80.0266 226.66 79.86L232.05 76.8C232.115 76.7624 232.187 76.738 232.261 76.7283C232.336 76.7185 232.411 76.7235 232.484 76.743C232.556 76.7625 232.624 76.7961 232.684 76.842C232.743 76.8878 232.793 76.9449 232.83 77.01C232.867 77.0748 232.891 77.1463 232.9 77.2204C232.909 77.2945 232.903 77.3696 232.882 77.4413C232.862 77.513 232.827 77.5799 232.78 77.6381C232.734 77.6963 232.676 77.7445 232.61 77.78L227.22 80.85C226.855 81.0575 226.44 81.1645 226.02 81.16Z" fill="#912336"/>
<path d="M223.71 79.49C223.249 79.4856 222.798 79.3494 222.412 79.0975C222.025 78.8455 221.718 78.4882 221.528 78.0678C221.338 77.6474 221.272 77.1813 221.338 76.7246C221.404 76.2679 221.599 75.8395 221.9 75.49C222.007 75.385 222.15 75.3261 222.3 75.3261C222.45 75.3261 222.593 75.385 222.7 75.49C222.757 75.5388 222.803 75.5983 222.836 75.6652C222.869 75.7321 222.889 75.8049 222.894 75.8795C222.898 75.954 222.888 76.0288 222.863 76.0993C222.839 76.1698 222.8 76.2346 222.75 76.29C222.547 76.5371 222.444 76.8506 222.459 77.1698C222.474 77.489 222.607 77.7912 222.833 78.0178C223.058 78.2444 223.36 78.3793 223.679 78.3963C223.998 78.4134 224.312 78.3113 224.56 78.11C224.668 78.0044 224.814 77.9452 224.965 77.9452C225.116 77.9452 225.262 78.0044 225.37 78.11C225.467 78.2258 225.516 78.3743 225.506 78.525C225.497 78.6757 225.43 78.817 225.32 78.92C224.869 79.2962 224.298 79.4984 223.71 79.49Z" fill="#912336"/>
<path d="M224.94 79.03C224.823 79.0312 224.709 78.9966 224.613 78.9309C224.517 78.8652 224.443 78.7715 224.401 78.6625C224.36 78.5535 224.353 78.4345 224.381 78.3214C224.41 78.2082 224.472 78.1066 224.56 78.03L230.16 73.03C230.216 72.9796 230.282 72.9409 230.353 72.9162C230.425 72.8914 230.5 72.881 230.576 72.8857C230.651 72.8903 230.725 72.9099 230.792 72.9433C230.86 72.9766 230.92 73.0231 230.97 73.08C231.066 73.1942 231.115 73.341 231.105 73.4901C231.096 73.6391 231.03 73.7788 230.92 73.88L225.32 78.88C225.215 78.9737 225.081 79.0269 224.94 79.03Z" fill="#912336"/>
<path d="M139.05 102.1C139.05 108.1 131.65 112.9 122.54 112.9C113.43 112.9 106.03 108.07 106.03 102.1C106.03 96.13 113.42 91.3 122.54 91.3C131.66 91.3 139.05 96.14 139.05 102.1Z" fill="#EDBCB0"/>
<path d="M144.12 123.46C144.12 123.46 130.73 140.54 131.18 168.09L81.11 166.95L88.9 109.36L144.12 123.46Z" fill="#0071A8"/>
<path d="M141.15 101.14C141.15 110.94 133.15 118.58 123.15 118.58C113.15 118.58 105.15 110.76 105.15 101.14C105.15 97.79 105.41 95.9 107.08 93.26C108.99 92.6778 110.948 92.2629 112.93 92.02C112.148 92.8226 111.502 93.7482 111.02 94.76C110.342 95.8919 110.025 97.2034 110.11 98.52C110.11 101.968 111.48 105.274 113.918 107.712C116.356 110.15 119.662 111.52 123.11 111.52C126.558 111.52 129.864 110.15 132.302 107.712C134.74 105.274 136.11 101.968 136.11 98.52C136.11 96.96 135.2 95.31 134.67 93.92C136.622 94.5846 138.512 95.4178 140.32 96.41L140.41 96.47C140.553 96.625 140.653 96.8146 140.7 97.02C141.025 98.3685 141.176 99.7531 141.15 101.14Z" fill="#6CBDE6"/>
<path d="M143.15 125.4C143.031 125.397 142.916 125.359 142.82 125.29C142.745 125.239 142.684 125.17 142.642 125.09C142.6 125.01 142.579 124.92 142.58 124.83C142.579 124.712 142.614 124.597 142.68 124.5L147.95 116.96C148.037 116.837 148.168 116.754 148.316 116.727C148.464 116.701 148.616 116.734 148.74 116.82C148.816 116.87 148.878 116.939 148.922 117.019C148.966 117.099 148.989 117.189 148.99 117.28C148.989 117.399 148.95 117.514 148.88 117.61L143.61 125.15C143.559 125.226 143.491 125.288 143.411 125.332C143.331 125.376 143.241 125.399 143.15 125.4Z" fill="#006192"/>
<path d="M85.1 138.01C85.0208 138.008 84.9428 137.99 84.8707 137.958C84.7985 137.925 84.7337 137.878 84.68 137.82C84.6268 137.768 84.5845 137.706 84.5556 137.637C84.5268 137.568 84.5119 137.494 84.5119 137.42C84.5119 137.345 84.5268 137.272 84.5556 137.203C84.5845 137.134 84.6268 137.072 84.68 137.02L99.88 123.31C99.9883 123.204 100.134 123.145 100.285 123.145C100.436 123.145 100.582 123.204 100.69 123.31C100.78 123.42 100.829 123.558 100.83 123.7C100.831 123.78 100.814 123.858 100.781 123.931C100.748 124.003 100.7 124.068 100.64 124.12L85.48 137.78C85.4361 137.843 85.3797 137.895 85.3142 137.935C85.2488 137.975 85.1758 138 85.1 138.01Z" fill="#006192"/>
<path d="M208.04 80.91L177.6 109.65L149.93 100.87C147.051 99.9855 144.293 98.746 141.72 97.18C141.33 96.94 140.92 96.7 140.51 96.47L140.42 96.41C138.612 95.4177 136.722 94.5846 134.77 93.92C129.972 92.3108 124.941 91.5034 119.88 91.53C117.824 91.5315 115.77 91.6618 113.73 91.92C111.499 92.1976 109.293 92.6456 107.13 93.26C100.73 95.07 96.8 98.01 92.27 102.13L60.17 127.13L59.54 127.63C58.2786 128.613 57.269 129.882 56.5944 131.332C55.9197 132.782 55.5995 134.372 55.66 135.97L57.75 188.77L73.36 189.31L78.45 142.6L83.45 138.69L95.51 129.29L99.67 126.04C105.918 129.235 112.853 130.852 119.87 130.75C129.59 130.75 138.26 127.94 143.97 123.54L177.04 134.04L177.87 134.3C179.907 134.946 182.093 134.949 184.132 134.311C186.172 133.672 187.965 132.422 189.27 130.73L219.61 91.36L208.04 80.91Z" fill="#008EF8"/>
<path d="M131.4 93L136.85 75.78L123.65 71.6L117.23 91.88C110.72 93.33 106.03 97.35 106.03 102.1C106.03 108.1 113.42 112.9 122.54 112.9C131.66 112.9 139.05 108.07 139.05 102.1C139.05 98.31 135.99 94.92 131.4 93Z" fill="#FFA187"/>
<path d="M144.12 123.46C144.12 123.46 130.73 140.54 131.18 168.09L81.11 166.95L88.9 109.36L144.12 123.46Z" fill="#008EF8"/>
<path d="M141.15 101.14C141.15 110.94 133.15 118.58 123.15 118.58C113.15 118.58 105.15 110.76 105.15 101.14C105.15 97.79 105.41 95.9 107.08 93.26C108.99 92.6778 110.948 92.2629 112.93 92.02C112.148 92.8226 111.502 93.7482 111.02 94.76C110.342 95.8919 110.025 97.2034 110.11 98.52C110.11 101.968 111.48 105.274 113.918 107.712C116.356 110.15 119.662 111.52 123.11 111.52C126.558 111.52 129.864 110.15 132.302 107.712C134.74 105.274 136.11 101.968 136.11 98.52C136.11 96.96 135.2 95.31 134.67 93.92C136.622 94.5846 138.512 95.4178 140.32 96.41L140.41 96.47C140.553 96.625 140.653 96.8146 140.7 97.02C141.025 98.3685 141.176 99.7531 141.15 101.14Z" fill="#003096"/>
<path d="M143.15 125.4C143.031 125.397 142.916 125.359 142.82 125.29C142.697 125.203 142.614 125.072 142.587 124.924C142.561 124.776 142.595 124.624 142.68 124.5L147.95 116.96C147.989 116.891 148.042 116.83 148.106 116.783C148.17 116.735 148.243 116.702 148.32 116.684C148.398 116.666 148.478 116.665 148.556 116.68C148.634 116.696 148.708 116.727 148.773 116.772C148.838 116.818 148.893 116.877 148.934 116.945C148.976 117.013 149.002 117.089 149.012 117.168C149.022 117.246 149.016 117.327 148.993 117.403C148.97 117.479 148.932 117.55 148.88 117.61L143.61 125.15C143.559 125.226 143.491 125.288 143.411 125.332C143.331 125.376 143.241 125.399 143.15 125.4Z" fill="#003096"/>
<path d="M85.1 138.01C85.0208 138.008 84.9428 137.99 84.8707 137.958C84.7985 137.925 84.7337 137.878 84.68 137.82C84.6268 137.768 84.5845 137.706 84.5556 137.637C84.5268 137.568 84.5119 137.494 84.5119 137.42C84.5119 137.345 84.5268 137.272 84.5556 137.203C84.5845 137.134 84.6268 137.072 84.68 137.02L99.88 123.31C99.9883 123.204 100.134 123.145 100.285 123.145C100.436 123.145 100.582 123.204 100.69 123.31C100.778 123.417 100.827 123.551 100.83 123.69C100.831 123.771 100.814 123.851 100.781 123.925C100.749 124 100.7 124.066 100.64 124.12L85.48 137.78C85.4361 137.843 85.3797 137.895 85.3142 137.935C85.2488 137.975 85.1758 138 85.1 138.01Z" fill="#003096"/>
<path d="M176.3 115.73H176.18C176.107 115.715 176.037 115.685 175.975 115.642C175.913 115.599 175.861 115.544 175.821 115.481C175.781 115.418 175.754 115.347 175.742 115.273C175.729 115.199 175.732 115.123 175.75 115.05L177.01 109.55C177.025 109.477 177.055 109.407 177.098 109.345C177.141 109.283 177.195 109.231 177.259 109.191C177.322 109.151 177.393 109.124 177.467 109.112C177.541 109.099 177.617 109.102 177.69 109.12C177.836 109.156 177.962 109.247 178.042 109.373C178.122 109.5 178.15 109.653 178.12 109.8L176.9 115.31C176.864 115.438 176.784 115.55 176.675 115.627C176.565 115.703 176.433 115.74 176.3 115.73Z" fill="#003096"/>
<path d="M219.99 91.0599C218.99 92.2799 215.45 91.0099 212.11 88.2299C208.77 85.4499 206.91 82.2299 207.93 80.9799C208.95 79.7299 212.48 80.9799 215.81 83.8099C219.14 86.6399 221.02 89.8299 219.99 91.0599Z" fill="#008EF8"/>
<path d="M73.4048 189.242C73.4201 188.536 69.9277 187.887 65.6043 187.793C61.281 187.7 57.7638 188.197 57.7485 188.903C57.7332 189.61 61.2256 190.259 65.5489 190.353C69.8723 190.446 73.3895 189.949 73.4048 189.242Z" fill="#008EF8"/>
<path d="M169.613 271.078L168.127 272.416C165.55 274.738 165.344 278.709 167.665 281.286L190.846 307.013C193.168 309.589 197.139 309.796 199.715 307.474L201.201 306.135C203.778 303.814 203.985 299.843 201.663 297.266L178.482 271.539C176.16 268.963 172.189 268.756 169.613 271.078Z" fill="#ADCEE0"/>
<path d="M173.22 259.93L173.11 260.63C172.433 265.212 171.085 269.67 169.11 273.86C168.783 274.548 168.67 275.317 168.786 276.07C168.902 276.822 169.241 277.523 169.76 278.08L192.76 302.71C193.868 303.901 195.296 304.747 196.874 305.144C198.451 305.542 200.11 305.474 201.65 304.95C202.495 304.664 203.261 304.186 203.89 303.554C204.518 302.921 204.99 302.151 205.27 301.304C205.549 300.457 205.628 299.557 205.499 298.675C205.371 297.792 205.039 296.952 204.53 296.22C200.878 290.98 197.857 285.328 195.53 279.38C190.29 265.72 189.84 259.93 189.84 259.93H173.22Z" fill="#003096"/>
<path d="M214.675 255.001L214.933 256.984C215.38 260.424 218.531 262.849 221.97 262.402L256.311 257.936C259.75 257.488 262.176 254.337 261.729 250.898L261.471 248.915C261.023 245.475 257.873 243.05 254.433 243.497L220.093 247.963C216.653 248.411 214.228 251.561 214.675 255.001Z" fill="#ADCEE0"/>
<path d="M207.3 245.95L207.82 246.43C211.213 249.59 214.127 253.229 216.47 257.23C216.855 257.886 217.427 258.412 218.113 258.74C218.799 259.067 219.568 259.183 220.32 259.07L253.62 254.01C255.227 253.765 256.73 253.063 257.948 251.986C259.167 250.91 260.049 249.505 260.49 247.94C260.73 247.081 260.767 246.177 260.599 245.301C260.43 244.425 260.06 243.6 259.518 242.891C258.976 242.182 258.277 241.609 257.475 241.217C256.674 240.824 255.792 240.623 254.9 240.63C248.522 240.673 242.162 239.965 235.95 238.52C221.72 235.13 216.68 232.23 216.68 232.23L207.3 245.95Z" fill="#003096"/>
<path d="M196.63 196.62C196.63 196.53 196.63 196.38 196.63 196.29C196.75 188.69 190.99 182.41 183.76 182.29C176.53 182.17 170.56 188.22 170.44 195.83L169.44 257.39C169.42 258.718 169.592 260.041 169.95 261.32C169.358 261.696 168.86 262.204 168.498 262.804C168.135 263.404 167.917 264.081 167.86 264.78C167.86 268.35 173.86 271.26 181.32 271.26C188.78 271.26 194.78 268.35 194.78 264.78C194.734 263.737 194.281 262.754 193.52 262.04C193.946 260.781 194.189 259.468 194.24 258.14L196.63 196.62Z" fill="#904679"/>
<path d="M226.56 233.11C226.13 232.655 225.605 232.3 225.023 232.07C224.441 231.84 223.815 231.741 223.19 231.78C222.887 231.019 222.512 230.289 222.07 229.6L187.14 174.71C186.014 172.969 184.488 171.522 182.69 170.49C180.891 169.459 178.872 168.872 176.8 168.78H176.67C176.67 168.78 123.44 165.48 117.31 165.48C95.25 165.48 82.04 173.27 82.02 182.89C82.02 199.4 95.25 200.65 117.31 200.65C124.31 200.65 150.57 197.76 168.76 194.65H168.97L201.51 243.46C202.458 244.89 203.695 246.106 205.14 247.03C205.028 247.6 205.036 248.187 205.164 248.753C205.291 249.319 205.535 249.853 205.88 250.32C208.18 253.07 214.66 251.43 220.37 246.68C226.08 241.93 228.85 235.86 226.56 233.11Z" fill="#B16DE2"/>
<path d="M83.11 166.99L82.02 182.88L131.12 170.7L130.82 168.07L83.11 166.99Z" fill="#B16DE2"/>
<path d="M93.23 171.36C93.12 171.359 93.0127 171.326 92.9207 171.266C92.8286 171.205 92.7556 171.12 92.71 171.02C92.6488 170.883 92.6438 170.728 92.6962 170.588C92.7486 170.447 92.8542 170.333 92.99 170.27C100.67 166.81 110.99 164.9 121.99 164.9C123.2 164.9 126.31 165.03 131.23 165.28C131.305 165.284 131.377 165.302 131.445 165.335C131.512 165.367 131.572 165.413 131.621 165.469C131.671 165.524 131.708 165.59 131.732 165.66C131.756 165.731 131.765 165.806 131.76 165.88C131.758 165.954 131.74 166.027 131.709 166.094C131.678 166.161 131.633 166.221 131.578 166.271C131.523 166.32 131.458 166.358 131.388 166.382C131.318 166.406 131.244 166.415 131.17 166.41C126.27 166.16 123.17 166.04 121.99 166.04C111.14 166.04 100.99 167.91 93.48 171.31C93.4013 171.345 93.316 171.362 93.23 171.36Z" fill="#904679"/>
<path d="M168.97 195.25C168.875 195.252 168.782 195.227 168.7 195.18C168.612 195.13 168.538 195.057 168.487 194.969C168.436 194.882 168.409 194.782 168.41 194.68V187.68C168.399 187.599 168.406 187.518 168.429 187.44C168.453 187.362 168.493 187.29 168.546 187.229C168.6 187.168 168.666 187.119 168.74 187.086C168.814 187.052 168.894 187.035 168.975 187.035C169.056 187.035 169.137 187.052 169.21 187.086C169.284 187.119 169.35 187.168 169.404 187.229C169.457 187.29 169.497 187.362 169.521 187.44C169.544 187.518 169.551 187.599 169.54 187.68V193.68L174.32 190.68C174.453 190.602 174.611 190.579 174.76 190.618C174.909 190.656 175.037 190.752 175.115 190.885C175.193 191.018 175.216 191.176 175.177 191.325C175.139 191.474 175.043 191.602 174.91 191.68L169.3 195.17C169.2 195.227 169.085 195.255 168.97 195.25Z" fill="#904679"/>
<path d="M150.71 63.99C149.71 69.8 145.81 73.99 142.03 73.32C138.25 72.65 136.03 67.42 137.03 61.6C138.03 55.78 141.93 51.6 145.71 52.27C149.49 52.94 151.72 58.17 150.71 63.99Z" fill="#573E28"/>
<path d="M119.1 67.43C118.3 79.31 124.17 89.37 132.3 89.95C140.43 90.53 147.73 81.39 148.58 69.54C149.43 57.69 143.51 47.6 135.36 47.02C127.21 46.44 119.94 55.58 119.1 67.43Z" fill="#EDBCB0"/>
<path d="M153.09 52.58C152.71 57.92 146.09 61.8 138.2 61.24C130.31 60.68 124.31 55.9 124.7 50.55C125.09 45.2 131.7 41.33 139.58 41.89C147.46 42.45 153.47 47.23 153.09 52.58Z" fill="#573E28"/>
<path d="M128.96 59.6C127.96 65.41 124.06 69.6 120.28 68.93C116.5 68.26 114.28 63.03 115.28 57.21C116.28 51.39 120.17 47.21 123.96 47.88C127.75 48.55 129.97 53.78 128.96 59.6Z" fill="#573E28"/>
<path d="M113.69 67.31C113.397 68.4597 113.451 69.6706 113.846 70.7895C114.241 71.9085 114.958 72.8852 115.908 73.5963C116.858 74.3074 117.997 74.7208 119.182 74.7844C120.367 74.848 121.544 74.5588 122.565 73.9535C123.585 73.3482 124.403 72.4539 124.916 71.3836C125.428 70.3134 125.612 69.1152 125.443 67.9407C125.274 66.7662 124.761 65.668 123.969 64.785C123.176 63.9021 122.14 63.2739 120.99 62.98C120.226 62.7848 119.432 62.7419 118.652 62.8539C117.871 62.9658 117.121 63.2304 116.443 63.6325C115.765 64.0347 115.173 64.5664 114.701 65.1974C114.228 65.8284 113.885 66.5463 113.69 67.31Z" fill="#EDBCB0"/>
<path d="M117.42 70.82C117.279 70.8217 117.142 70.7678 117.04 70.67C116.963 70.6014 116.906 70.5128 116.876 70.4139C116.846 70.3151 116.844 70.2099 116.87 70.11L117.87 66.38C117.893 66.2832 117.941 66.1941 118.009 66.1221C118.078 66.05 118.164 65.9975 118.26 65.97C118.354 65.9438 118.452 65.942 118.547 65.9647C118.641 65.9875 118.729 66.034 118.8 66.1L121.57 68.6C121.642 68.6658 121.696 68.7494 121.726 68.8424C121.755 68.9353 121.76 69.0345 121.74 69.13C121.72 69.2289 121.675 69.3207 121.608 69.3963C121.541 69.4718 121.456 69.5283 121.36 69.56L117.64 70.79C117.569 70.8143 117.495 70.8245 117.42 70.82ZM118.7 67.57L118.23 69.39L120.04 68.79L118.7 67.57Z" fill="#CC8068"/>
<path d="M124.73 48.59C124.398 46.1505 124.592 43.6681 125.3 41.31C125.174 43.6619 125.549 46.0138 126.4 48.21L124.73 48.59Z" fill="#572902"/>
<path d="M127.3 48.61C125.239 47.2446 122.911 46.3344 120.47 45.94C122.648 46.8466 124.605 48.2107 126.21 49.94L127.3 48.61Z" fill="#573E28"/>
<path d="M121.09 79.68C122.95 85.94 126.91 90.54 131.85 91.58L136.85 75.78L123.65 71.6L121.09 79.68Z" fill="#EF485D"/>
<path d="M150.71 63.99C149.71 69.8 145.81 73.99 142.03 73.32C138.25 72.65 136.03 67.42 137.03 61.6C138.03 55.78 141.93 51.6 145.71 52.27C149.49 52.94 151.72 58.17 150.71 63.99Z" fill="#572902"/>
<path d="M119.1 67.43C118.3 79.31 124.17 89.37 132.3 89.95C140.43 90.53 147.73 81.39 148.58 69.54C149.43 57.69 143.51 47.6 135.36 47.02C127.21 46.44 119.94 55.58 119.1 67.43Z" fill="#FFA187"/>
<path d="M141.22 78.4C140.884 78.3954 140.549 78.3585 140.22 78.29C138.825 77.9599 137.525 77.3133 136.42 76.4C136.351 76.3579 136.293 76.3019 136.247 76.2354C136.202 76.169 136.171 76.0937 136.157 76.0145C136.143 75.9353 136.146 75.8541 136.165 75.776C136.184 75.698 136.22 75.625 136.27 75.5617C136.32 75.4985 136.382 75.4465 136.454 75.4092C136.525 75.3719 136.603 75.35 136.683 75.3452C136.764 75.3403 136.844 75.3524 136.919 75.3809C136.995 75.4093 137.063 75.4533 137.12 75.51C138.088 76.3115 139.227 76.8795 140.45 77.17C141.36 77.36 142.06 77.24 142.37 76.84C142.68 76.44 142.64 75.73 142.25 74.89C141.675 73.7714 140.854 72.7971 139.85 72.04C139.732 71.9457 139.656 71.8086 139.64 71.6586C139.623 71.5086 139.666 71.3581 139.76 71.24C139.856 71.1244 139.993 71.0504 140.142 71.0336C140.291 71.0168 140.441 71.0585 140.56 71.15C141.706 72.0176 142.643 73.1317 143.3 74.41C143.596 74.8784 143.753 75.421 143.753 75.975C143.753 76.529 143.596 77.0716 143.3 77.54C143.047 77.8385 142.726 78.0723 142.364 78.2218C142.002 78.3714 141.61 78.4325 141.22 78.4Z" fill="#912336"/>
<path d="M153.09 52.58C152.71 57.92 146.09 61.8 138.2 61.24C130.31 60.68 124.31 55.9 124.7 50.55C125.09 45.2 131.7 41.33 139.58 41.89C147.46 42.45 153.47 47.23 153.09 52.58Z" fill="#572902"/>
<path d="M128.96 59.6C127.96 65.41 124.06 69.6 120.28 68.93C116.5 68.26 114.28 63.03 115.28 57.21C116.28 51.39 120.17 47.21 123.96 47.88C127.75 48.55 129.97 53.78 128.96 59.6Z" fill="#572902"/>
<path d="M124.73 48.59C124.398 46.1505 124.592 43.6681 125.3 41.31C125.174 43.6619 125.549 46.0138 126.4 48.21L124.73 48.59Z" fill="#572902"/>
<path d="M127.3 48.61C125.239 47.2446 122.911 46.3344 120.47 45.94C122.648 46.8466 124.605 48.2107 126.21 49.94L127.3 48.61Z" fill="#572902"/>
<path d="M113.69 67.31C113.397 68.4597 113.451 69.6706 113.846 70.7895C114.241 71.9085 114.958 72.8852 115.908 73.5963C116.858 74.3074 117.997 74.7208 119.182 74.7844C120.367 74.848 121.544 74.5588 122.565 73.9535C123.585 73.3482 124.403 72.4539 124.916 71.3836C125.428 70.3134 125.612 69.1152 125.443 67.9407C125.274 66.7662 124.761 65.668 123.969 64.785C123.176 63.9021 122.14 63.2739 120.99 62.98C120.226 62.7848 119.432 62.7419 118.652 62.8539C117.871 62.9658 117.121 63.2304 116.443 63.6325C115.765 64.0347 115.173 64.5664 114.701 65.1974C114.228 65.8284 113.885 66.5463 113.69 67.31Z" fill="#FFA187"/>
<path d="M117.42 70.82C117.3 70.8198 117.184 70.7821 117.087 70.7121C116.99 70.6421 116.918 70.5434 116.88 70.43C116.835 70.2867 116.848 70.1317 116.915 69.9974C116.982 69.8631 117.098 69.7601 117.24 69.71L120.04 68.79L118.04 66.94C117.935 66.8334 117.876 66.6897 117.876 66.54C117.876 66.3903 117.935 66.2467 118.04 66.14C118.092 66.0868 118.154 66.0445 118.223 66.0157C118.292 65.9868 118.365 65.9719 118.44 65.9719C118.514 65.9719 118.588 65.9868 118.657 66.0157C118.726 66.0445 118.788 66.0868 118.84 66.14L121.61 68.64C121.682 68.7059 121.736 68.7894 121.766 68.8824C121.795 68.9754 121.8 69.0745 121.78 69.17C121.76 69.2689 121.715 69.3608 121.648 69.4363C121.581 69.5119 121.496 69.5683 121.4 69.6L117.68 70.83C117.594 70.8468 117.505 70.8433 117.42 70.82Z" fill="#912336"/>
<path d="M47.09 189.31H46.98C46.7284 189.261 46.469 189.269 46.2212 189.335C45.9735 189.401 45.7439 189.522 45.55 189.69L37.83 196.14C37.4733 196.457 37.2419 196.892 37.1777 197.365C37.1135 197.838 37.2207 198.319 37.48 198.72C37.5807 198.895 37.716 199.048 37.8777 199.17C38.0394 199.291 38.224 199.378 38.4205 199.426C38.617 199.474 38.8211 199.481 39.0204 199.447C39.2197 199.414 39.4101 199.34 39.58 199.23L47.09 194.32L52.84 195.52V200.52H64.58C67.97 200.52 70.71 197.37 70.71 193.52V190.84L47.09 189.31Z" fill="#FFA187"/>
<path d="M52.84 200.39H45.43C44.9252 200.329 44.4602 200.085 44.1229 199.705C43.7856 199.324 43.5994 198.833 43.5994 198.325C43.5994 197.817 43.7856 197.326 44.1229 196.945C44.4602 196.565 44.9252 196.321 45.43 196.26H52.84C53.3448 196.321 53.8098 196.565 54.1471 196.945C54.4844 197.326 54.6707 197.817 54.6707 198.325C54.6707 198.833 54.4844 199.324 54.1471 199.705C53.8098 200.085 53.3448 200.329 52.84 200.39Z" fill="#FFA187"/>
<path d="M47.09 189.31H46.98C46.7284 189.261 46.469 189.269 46.2212 189.335C45.9735 189.401 45.7439 189.522 45.55 189.69L37.83 196.14C37.4733 196.457 37.2419 196.892 37.1777 197.365C37.1135 197.838 37.2207 198.319 37.48 198.72C37.5807 198.895 37.716 199.048 37.8777 199.17C38.0394 199.291 38.224 199.378 38.4205 199.426C38.617 199.474 38.8211 199.481 39.0204 199.447C39.2197 199.414 39.4101 199.34 39.58 199.23L47.09 194.32L52.84 195.52V200.52H64.58C67.97 200.52 70.71 197.37 70.71 193.52V190.84L47.09 189.31Z" fill="#FFA187"/>
<path d="M82.3 196.53L83.12 201.03H102.48C103.673 201.027 104.816 200.552 105.659 199.709C106.502 198.866 106.977 197.723 106.98 196.53H82.3Z" fill="#008EF8"/>
<path d="M6.29998 152.81C6.24299 152.494 6.25604 152.169 6.33821 151.858C6.42038 151.547 6.56967 151.258 6.77558 151.011C6.9815 150.764 7.23902 150.565 7.53004 150.429C7.82105 150.292 8.13849 150.221 8.45999 150.22H71.83C72.4406 150.221 73.0316 150.436 73.5008 150.827C73.9701 151.217 74.2881 151.76 74.4 152.36L82.4 196.53L83.22 201.03H14.3V196.53L6.29998 152.81Z" fill="#003096"/>
<path d="M38.18 173.31C38.4899 174.609 39.215 175.772 40.2454 176.622C41.2759 177.472 42.5554 177.963 43.89 178.02C44.4753 178.046 45.0585 177.933 45.5913 177.689C46.124 177.445 46.591 177.077 46.9536 176.617C47.3161 176.157 47.5639 175.617 47.6763 175.042C47.7887 174.466 47.7625 173.873 47.6 173.31C47.2901 172.011 46.565 170.848 45.5345 169.998C44.5041 169.148 43.2245 168.657 41.89 168.6C41.3053 168.576 40.7232 168.691 40.1917 168.936C39.6601 169.18 39.1941 169.548 38.832 170.007C38.4699 170.467 38.222 171.006 38.1086 171.58C37.9953 172.154 38.0197 172.747 38.18 173.31Z" fill="white"/>
</g>
<defs>
<clipPath id="clip0_1120_12154">
<rect width="286.61" height="312.61" fill="white"/>
</clipPath>
</defs>
</svg>
