<svg width="346" height="314" viewBox="0 0 346 314" fill="none" xmlns="http://www.w3.org/2000/svg">
<g clip-path="url(#clip0_1120_12285)">
<path d="M135.078 267.489H113.356C112.443 267.489 111.703 268.228 111.703 269.141V274.978C111.703 275.891 112.443 276.63 113.356 276.63H135.078C135.991 276.63 136.731 275.891 136.731 274.978V269.141C136.731 268.228 135.991 267.489 135.078 267.489Z" fill="#E0E0FF"/>
<path d="M163.474 267.489H141.752C140.839 267.489 140.099 268.228 140.099 269.141V274.978C140.099 275.891 140.839 276.63 141.752 276.63H163.474C164.387 276.63 165.127 275.891 165.127 274.978V269.141C165.127 268.228 164.387 267.489 163.474 267.489Z" fill="#E0E0FF"/>
<path d="M149.074 254.916H127.352C126.439 254.916 125.699 255.656 125.699 256.568V262.406C125.699 263.318 126.439 264.058 127.352 264.058H149.074C149.987 264.058 150.727 263.318 150.727 262.406V256.568C150.727 255.656 149.987 254.916 149.074 254.916Z" fill="#E0E0FF"/>
<path d="M269.995 49.7306C269.996 48.9834 269.849 48.2435 269.563 47.5532C269.277 46.8628 268.858 46.2355 268.329 45.7072C267.801 45.1789 267.173 44.7599 266.482 44.4741C265.792 44.1883 265.052 44.0414 264.304 44.0417H74.8729C73.3636 44.0417 71.9161 44.6411 70.8488 45.7079C69.7816 46.7748 69.182 48.2218 69.182 49.7306V54.3951H269.995V49.7306Z" fill="white"/>
<path d="M270.297 54.6944H68.8826V49.7306C68.8839 48.1426 69.5153 46.6199 70.6384 45.4968C71.7614 44.3737 73.2844 43.7419 74.8729 43.7399H264.304C265.893 43.7412 267.417 44.3728 268.54 45.496C269.664 46.6191 270.296 48.1421 270.297 49.7306V54.6944ZM69.4838 54.0934H269.696V49.7306C269.694 48.3017 269.125 46.932 268.115 45.9217C267.104 44.9113 265.734 44.3429 264.304 44.3409H74.8729C73.4438 44.3429 72.0738 44.9114 71.0635 45.9218C70.0532 46.9322 69.4851 48.302 69.4838 49.7306V54.0934Z" fill="#003096"/>
<path d="M69.182 54.3951V175.198C69.1833 176.706 69.7834 178.152 70.8505 179.218C71.9176 180.284 73.3644 180.882 74.8729 180.882H264.304C265.052 180.883 265.792 180.736 266.482 180.45C267.173 180.164 267.801 179.745 268.329 179.217C268.858 178.688 269.277 178.061 269.563 177.371C269.849 176.68 269.996 175.941 269.995 175.193V54.3951H69.182Z" fill="white"/>
<path d="M264.304 181.189H74.8729C73.2844 181.187 71.7614 180.555 70.6384 179.432C69.5153 178.309 68.8839 176.786 68.8826 175.198V54.0934H270.297V175.198C270.296 176.787 269.664 178.31 268.54 179.433C267.417 180.556 265.893 181.188 264.304 181.189ZM69.4838 54.6944V175.198C69.4851 176.627 70.0532 177.997 71.0635 179.007C72.0738 180.017 73.4438 180.586 74.8729 180.588H264.304C265.734 180.586 267.104 180.017 268.115 179.007C269.125 177.997 269.694 176.627 269.696 175.198V54.6944H69.4838Z" fill="#003096"/>
<path d="M79.0944 51.2426C80.2097 51.1421 81.0323 50.1569 80.9318 49.042C80.8313 47.9271 79.8457 47.1047 78.7304 47.2052C77.6151 47.3057 76.7925 48.291 76.893 49.4059C76.9935 50.5208 77.9791 51.3431 79.0944 51.2426Z" fill="white"/>
<path d="M78.9184 51.5482C78.4573 51.5477 78.0067 51.4106 77.6235 51.1542C77.2404 50.8977 76.9419 50.5335 76.7658 50.1075C76.5896 49.6815 76.5438 49.2129 76.6341 48.7609C76.7243 48.3089 76.9466 47.8937 77.2728 47.568C77.599 47.2422 78.0145 47.0205 78.4668 46.9307C78.9191 46.841 79.3878 46.8873 79.8138 47.0638C80.2397 47.2403 80.6038 47.5391 80.8599 47.9223C81.116 48.3056 81.2527 48.7562 81.2527 49.2172C81.2521 49.8356 81.0058 50.4285 80.5681 50.8656C80.1304 51.3027 79.5371 51.5482 78.9184 51.5482ZM78.9184 47.4944C78.5777 47.4949 78.2447 47.5963 77.9616 47.7859C77.6785 47.9755 77.458 48.2447 77.328 48.5596C77.1979 48.8744 77.1641 49.2207 77.2309 49.5547C77.2977 49.8887 77.462 50.1955 77.7031 50.4362C77.9442 50.6769 78.2513 50.8407 78.5855 50.907C78.9197 50.9732 79.2661 50.939 79.5809 50.8085C79.8956 50.6781 80.1647 50.4572 80.3539 50.174C80.5432 49.8907 80.6442 49.5578 80.6442 49.2172C80.6435 48.76 80.4614 48.3218 80.1379 47.9988C79.8143 47.6758 79.3757 47.4944 78.9184 47.4944Z" fill="#003096"/>
<path d="M87.0049 51.2433C88.1202 51.1428 88.9429 50.1575 88.8423 49.0426C88.7418 47.9277 87.7562 47.1054 86.6409 47.2059C85.5256 47.3064 84.703 48.2916 84.8035 49.4065C84.904 50.5214 85.8896 51.3438 87.0049 51.2433Z" fill="white"/>
<path d="M86.8292 51.5482C86.3681 51.5477 85.9175 51.4106 85.5344 51.1542C85.1512 50.8977 84.8527 50.5335 84.6766 50.1075C84.5005 49.6815 84.4546 49.2129 84.5449 48.7609C84.6351 48.3089 84.8574 47.8937 85.1836 47.568C85.5098 47.2422 85.9254 47.0205 86.3776 46.9307C86.8299 46.841 87.2986 46.8873 87.7246 47.0638C88.1505 47.2403 88.5146 47.5391 88.7707 47.9223C89.0268 48.3056 89.1635 48.7562 89.1635 49.2172C89.1629 49.8356 88.9167 50.4285 88.479 50.8656C88.0413 51.3027 87.4479 51.5482 86.8292 51.5482ZM86.8292 47.4944C86.4885 47.4949 86.1555 47.5963 85.8724 47.7859C85.5894 47.9755 85.3689 48.2447 85.2388 48.5596C85.1087 48.8744 85.075 49.2207 85.1417 49.5547C85.2085 49.8887 85.3728 50.1955 85.6139 50.4362C85.855 50.6769 86.1621 50.8407 86.4963 50.907C86.8306 50.9732 87.1769 50.939 87.4917 50.8085C87.8065 50.6781 88.0755 50.4572 88.2647 50.174C88.454 49.8907 88.555 49.5578 88.555 49.2172C88.5544 48.76 88.3723 48.3218 88.0487 47.9988C87.7251 47.6758 87.2865 47.4944 86.8292 47.4944Z" fill="#003096"/>
<path d="M94.9155 51.2439C96.0308 51.1434 96.8534 50.1582 96.7529 49.0433C96.6524 47.9284 95.6667 47.106 94.5515 47.2065C93.4362 47.307 92.6135 48.2922 92.714 49.4071C92.8146 50.522 93.8002 51.3444 94.9155 51.2439Z" fill="white"/>
<path d="M94.74 51.5482C94.2789 51.5477 93.8283 51.4106 93.4452 51.1542C93.062 50.8977 92.7635 50.5335 92.5874 50.1075C92.4113 49.6815 92.3655 49.2129 92.4557 48.7609C92.546 48.3089 92.7682 47.8937 93.0944 47.568C93.4207 47.2422 93.8362 47.0205 94.2884 46.9307C94.7407 46.841 95.2094 46.8873 95.6354 47.0638C96.0613 47.2403 96.4254 47.5391 96.6815 47.9223C96.9376 48.3056 97.0743 48.7562 97.0743 49.2172C97.0737 49.8356 96.8275 50.4285 96.3898 50.8656C95.9521 51.3027 95.3587 51.5482 94.74 51.5482ZM94.74 47.4944C94.3993 47.4949 94.0663 47.5963 93.7833 47.7859C93.5002 47.9755 93.2797 48.2447 93.1496 48.5596C93.0195 48.8744 92.9858 49.2207 93.0525 49.5547C93.1193 49.8887 93.2836 50.1955 93.5247 50.4362C93.7658 50.6769 94.0729 50.8407 94.4072 50.907C94.7414 50.9732 95.0878 50.939 95.4025 50.8085C95.7173 50.6781 95.9863 50.4572 96.1755 50.174C96.3648 49.8907 96.4658 49.5578 96.4658 49.2172C96.4652 48.76 96.2831 48.3218 95.9595 47.9988C95.6359 47.6758 95.1973 47.4944 94.74 47.4944Z" fill="#003096"/>
<path opacity="0.4" d="M249.067 67.5662H90.1128V162.954H249.067V67.5662Z" fill="#E0E0FF"/>
<path d="M198.481 180.542H146.586C144.671 162.626 144.177 146.569 145.893 135.892C146.362 132.972 146.988 130.478 147.799 128.441L169.649 123.993L195.057 126.268C199.331 137.327 199.998 157.178 198.481 180.542Z" fill="#FFB147"/>
<path d="M171.568 128.964H170.959V149.647H171.568V128.964Z" fill="#1B1B43"/>
<path opacity="0.2" d="M195.057 126.268C195.057 126.268 174.598 140.624 145.888 135.892C146.358 132.972 146.983 130.478 147.794 128.441L169.645 123.993L195.057 126.268Z" fill="#1B1B43"/>
<path d="M159.348 45.1999C159.348 45.1999 149.493 57.7603 151.866 68.4374L186.489 66.992C186.489 66.992 186.783 46.088 179.22 44.3093L159.348 45.1999Z" fill="#1B1B43"/>
<path d="M189.164 65.7486H188.555C188.555 52.0568 181.431 45.7644 181.36 45.7036L181.757 45.2413C181.83 45.3045 189.164 51.7794 189.164 65.7486Z" fill="#1B1B43"/>
<path d="M150.919 116.572C150.879 117.971 150.607 119.354 150.116 120.664C149.497 122.354 148.529 123.894 147.277 125.187C146.025 126.479 144.515 127.494 142.845 128.166C142.015 128.505 141.15 128.75 140.265 128.896C138.36 129.205 136.431 129.351 134.501 129.334C123.304 129.334 115.174 120.832 114.213 118.241C113.251 115.649 115.963 116.569 115.963 116.569C116.951 114.362 119.154 116.141 119.154 116.141C119.819 113.842 121.9 115.988 121.9 115.988C121.9 115.988 121.973 114.727 123.158 114.8C123.888 114.849 126.281 116.304 128.009 117.411C128.889 117.973 129.911 118.271 130.955 118.27C131.37 118.272 131.784 118.224 132.189 118.129C133.228 117.889 134.175 117.351 134.913 116.58C135.65 115.809 136.146 114.839 136.339 113.791L139.693 95.5412H147.628L150.162 98.7896C151.17 102.812 151.109 111.048 150.919 116.572Z" fill="#FFBC96"/>
<path opacity="0.4" d="M150.116 120.664C149.497 122.354 148.529 123.895 147.277 125.187C146.025 126.479 144.515 127.494 142.845 128.166C142.557 127.472 142.408 126.728 142.407 125.976C142.407 125.23 142.553 124.491 142.839 123.802C143.125 123.112 143.543 122.486 144.071 121.958C144.599 121.43 145.226 121.012 145.915 120.726C146.605 120.441 147.344 120.294 148.091 120.295C148.782 120.296 149.468 120.421 150.116 120.664Z" fill="#FE5B52"/>
<path d="M168.067 60.5439L151.759 63.8701C148.823 64.4679 146.126 65.9103 144 68.0199C141.874 70.1295 140.41 72.8144 139.79 75.7443L135.343 96.7164L150.174 98.792L168.067 60.5439Z" fill="#003096"/>
<path d="M173.753 60.5439L190.062 63.8701C192.997 64.4679 195.694 65.9103 197.821 68.0199C199.947 70.1295 201.41 72.8144 202.03 75.7443L204.046 90.6382L189.66 93.159L173.753 60.5439Z" fill="#003096"/>
<path d="M150.174 98.792C150.174 98.792 149.383 122.711 147.801 128.443C147.801 128.443 169.951 136.152 195.059 126.268L193.08 82.19L173.753 60.5342H168.067L148.789 85.5406L150.174 98.792Z" fill="#003096"/>
<path d="M223.037 61.1376C223.127 62.6998 220.554 67.4324 218.575 70.8219C217.119 73.3129 216.191 76.0768 215.849 78.9417C213.3 100.354 211.613 118.27 204.165 123.287C202.437 124.448 200.404 124.923 197.982 124.589C196.395 124.389 194.907 123.71 193.715 122.643C185.865 115.662 189.675 93.1664 189.675 93.1664L199.411 91.485C199.411 91.485 201.602 73.1019 202.972 66.7755C204.343 60.449 206.531 63.8142 206.531 63.8142C207.322 61.8384 209.496 63.0234 209.496 63.0234C211.078 60.4563 213.054 62.4273 213.054 62.4273C214.242 60.0597 217.606 64.2084 217.606 64.2084C219.777 63.2108 222.842 57.8503 223.037 61.1376Z" fill="#FFBC96"/>
<path d="M150.814 78.7023L149.857 98.7684L150.465 98.7973L151.422 78.7313L150.814 78.7023Z" fill="#1B1B43"/>
<path d="M189.392 93.5168L188.151 77.5328L188.757 77.4866L189.947 92.8038L199.355 91.1809L199.46 91.7794L189.392 93.5168Z" fill="#1B1B43"/>
<path d="M201.419 74.4167L196.963 108.077L197.566 108.156L202.023 74.4965L201.419 74.4167Z" fill="#D28572"/>
<path opacity="0.4" d="M204.16 123.287C202.432 124.448 200.399 124.923 197.977 124.589C196.39 124.389 194.902 123.71 193.711 122.643C194.209 121.643 194.991 120.813 195.958 120.255C196.926 119.697 198.037 119.437 199.152 119.506C200.266 119.576 201.336 119.972 202.227 120.646C203.118 121.32 203.79 122.241 204.16 123.295V123.287Z" fill="#FE5B52"/>
<path d="M206.836 63.737L206.234 63.83L206.797 67.4706L207.399 67.3777L206.836 63.737Z" fill="#D28572"/>
<path d="M209.863 62.9255L209.285 63.1154L210.457 66.6799L211.035 66.49L209.863 62.9255Z" fill="#D28572"/>
<path d="M213.353 62.058L212.779 62.262L214.102 65.9779L214.675 65.774L213.353 62.058Z" fill="#D28572"/>
<path d="M183.521 76.2675H177.183C176.98 76.2675 176.815 76.432 176.815 76.6349V78.1046C176.815 78.3075 176.98 78.472 177.183 78.472H183.521C183.724 78.472 183.889 78.3075 183.889 78.1046V76.6349C183.889 76.432 183.724 76.2675 183.521 76.2675Z" fill="#CBCBFF"/>
<path d="M170.414 71.603C167.822 71.5597 165.319 70.649 163.306 69.0164L163.713 68.5663C163.956 68.7901 169.907 74.0021 177.12 68.5493L177.485 69.0359C174.934 70.9606 172.512 71.603 170.414 71.603Z" fill="#1B1B43"/>
<path d="M125.59 119.209C124.295 118.706 122.886 117.625 121.518 116.088L121.973 115.681C123.277 117.141 124.604 118.173 125.809 118.642L125.59 119.209Z" fill="#D28572"/>
<path d="M122.114 120.095C120.87 119.309 119.765 118.029 118.74 116.185L119.271 115.888C120.245 117.642 121.284 118.852 122.435 119.582L122.114 120.095Z" fill="#D28572"/>
<path d="M119.66 121.224C118.176 120.117 116.808 118.574 115.479 116.504L115.992 116.177C117.28 118.182 118.599 119.674 120.023 120.735L119.66 121.224Z" fill="#D28572"/>
<path d="M164.217 51.0567H176.574V61.4831C176.574 62.2951 176.414 63.099 176.103 63.849C175.792 64.5991 175.336 65.2804 174.762 65.8542C174.187 66.428 173.505 66.8829 172.754 67.193C172.004 67.503 171.199 67.6621 170.387 67.6611C168.748 67.6611 167.176 67.0102 166.017 65.8516C164.858 64.693 164.207 63.1216 164.207 61.4831V51.0567H164.217Z" fill="#FFBC96"/>
<path d="M164.214 52.1127C168.036 58.5316 172.135 59.0572 176.587 52.1638L164.214 52.1127Z" fill="#D28572"/>
<path d="M161.821 31.7392H178.965V46.1951C178.964 47.3207 178.742 48.4352 178.311 49.475C177.88 50.5148 177.248 51.4595 176.451 52.255C175.655 53.0506 174.709 53.6816 173.669 54.1118C172.628 54.542 171.513 54.7632 170.387 54.7625C168.113 54.7625 165.933 53.8596 164.325 52.2525C162.717 50.6453 161.814 48.4655 161.814 46.1926V31.7392H161.821Z" fill="#FFBC96"/>
<path d="M170.231 46.4116C169.228 45.4651 168.853 44.7084 169.08 44.1244C169.306 43.5404 169.993 43.375 170.404 43.319L170.385 41.4503H170.993L171.02 43.8981H170.72C170.423 43.8981 169.769 44.0246 169.647 44.3409C169.591 44.4918 169.574 44.9493 170.65 45.9664L170.231 46.4116Z" fill="#1B1B43"/>
<path d="M173.442 48.2706C173.664 47.9329 173.851 47.5734 173.999 47.1976C171.923 47.3703 167.524 47.3703 167.524 47.3703C167.632 47.754 167.796 48.1197 168.011 48.4556C169.823 48.5413 171.64 48.4794 173.442 48.2706Z" fill="white"/>
<path d="M168.016 48.4604C168.291 48.9191 168.678 49.3005 169.141 49.569C169.604 49.8375 170.127 49.9844 170.662 49.9958C172.006 50.0372 172.914 49.0809 173.442 48.2755C171.641 48.4841 169.827 48.5459 168.016 48.4604Z" fill="#1B1B43"/>
<path d="M178.87 40.8347C178.87 41.1632 179.174 33.99 167.992 32.4692C167.992 32.4692 161.678 36.0825 162.393 41.2897L158.964 40.6424C157.64 37.0315 158.097 27.374 165.855 28.0601C165.855 28.0601 167.527 25.6707 170.268 25.6269C184.186 25.3982 181.988 40.8274 181.654 41.2726L178.87 40.8347Z" fill="#1B1B43"/>
<path d="M183.275 44.1445C183.93 42.1587 183.126 40.1087 181.479 39.5659C179.832 39.023 177.966 40.1927 177.311 42.1786C176.656 44.1644 177.46 46.2143 179.107 46.7572C180.754 47.3001 182.62 46.1304 183.275 44.1445Z" fill="#FFBC96"/>
<path d="M179.858 44.2509L179.254 44.1755C179.359 43.336 179.963 41.7252 181.491 41.6352L181.528 42.2435C180.121 42.3262 179.858 44.2315 179.858 44.2509Z" fill="#1B1B43"/>
<path d="M161.612 46.778C163.259 46.2351 164.063 44.1851 163.408 42.1993C162.753 40.2135 160.887 39.0437 159.24 39.5866C157.593 40.1295 156.789 42.1794 157.444 44.1653C158.099 46.1511 159.965 47.3209 161.612 46.778Z" fill="#FFBC96"/>
<path d="M160.872 44.2509C160.872 44.1731 160.609 42.3262 159.205 42.2435L159.239 41.6352C160.77 41.7252 161.371 43.3385 161.476 44.1755L160.872 44.2509Z" fill="#1B1B43"/>
<path d="M174.815 39.6618C174.801 39.8413 174.736 40.013 174.627 40.1559C174.517 40.2988 174.368 40.4066 174.198 40.4662C174.028 40.5258 173.845 40.5345 173.67 40.4913C173.495 40.4481 173.337 40.3548 173.214 40.223C173.092 40.0911 173.011 39.9264 172.98 39.749C172.95 39.5716 172.972 39.3892 173.044 39.2242C173.116 39.0592 173.235 38.9189 173.385 38.8202C173.536 38.7216 173.712 38.6691 173.892 38.6691C174.018 38.6735 174.142 38.7027 174.256 38.755C174.371 38.8073 174.474 38.8817 174.56 38.9739C174.645 39.0662 174.712 39.1744 174.756 39.2925C174.799 39.4105 174.82 39.536 174.815 39.6618Z" fill="#1B1B43"/>
<path d="M175.688 36.3648L172.836 36.0218C172.566 35.9894 172.321 36.1816 172.289 36.4511L172.272 36.5888C172.24 36.8583 172.432 37.1031 172.702 37.1355L175.554 37.4785C175.823 37.5109 176.068 37.3187 176.1 37.0492L176.117 36.9115C176.15 36.642 175.957 36.3972 175.688 36.3648Z" fill="#1B1B43"/>
<path d="M165.918 39.6618C165.931 39.8413 165.997 40.013 166.106 40.1559C166.216 40.2988 166.364 40.4066 166.534 40.4662C166.704 40.5258 166.888 40.5345 167.062 40.4913C167.237 40.4481 167.396 40.3548 167.518 40.223C167.641 40.0911 167.722 39.9264 167.752 39.749C167.782 39.5716 167.76 39.3892 167.688 39.2242C167.616 39.0592 167.498 38.9189 167.347 38.8202C167.197 38.7216 167.021 38.6691 166.841 38.6691C166.587 38.6786 166.347 38.7885 166.174 38.9746C166.001 39.1608 165.909 39.4079 165.918 39.6618Z" fill="#1B1B43"/>
<path d="M165.189 37.4774L168.041 37.1345C168.31 37.102 168.503 36.8573 168.47 36.5878L168.454 36.4501C168.421 36.1805 168.176 35.9883 167.907 36.0208L165.055 36.3637C164.785 36.3961 164.593 36.6409 164.626 36.9104L164.642 37.0481C164.675 37.3176 164.919 37.5098 165.189 37.4774Z" fill="#1B1B43"/>
<path opacity="0.4" d="M175.618 45.5746C176.718 45.5746 177.609 44.6835 177.609 43.5842C177.609 42.4849 176.718 41.5938 175.618 41.5938C174.518 41.5938 173.627 42.4849 173.627 43.5842C173.627 44.6835 174.518 45.5746 175.618 45.5746Z" fill="#FE5B52"/>
<path opacity="0.4" d="M165.115 45.5746C166.214 45.5746 167.106 44.6835 167.106 43.5842C167.106 42.4849 166.214 41.5938 165.115 41.5938C164.015 41.5938 163.124 42.4849 163.124 43.5842C163.124 44.6835 164.015 45.5746 165.115 45.5746Z" fill="#FE5B52"/>
<path d="M114.179 76.562H54.7575C53.065 76.562 51.693 77.9335 51.693 79.6254V104.05C51.693 105.742 53.065 107.114 54.7575 107.114H114.179C115.871 107.114 117.243 105.742 117.243 104.05V79.6254C117.243 77.9335 115.871 76.562 114.179 76.562Z" fill="white"/>
<path d="M114.179 107.398H54.7575C53.8675 107.398 53.0141 107.044 52.3847 106.415C51.7554 105.786 51.4015 104.933 51.4009 104.043V79.6254C51.4015 78.7357 51.7554 77.8826 52.3847 77.2535C53.0141 76.6243 53.8675 76.2706 54.7575 76.27H114.179C114.62 76.2693 115.057 76.3556 115.466 76.5239C115.874 76.6922 116.245 76.9391 116.557 77.2507C116.87 77.5623 117.118 77.9324 117.287 78.3398C117.457 78.7473 117.544 79.1841 117.545 79.6254V104.053C117.541 104.942 117.185 105.794 116.554 106.421C115.923 107.048 115.069 107.4 114.179 107.398ZM54.7575 76.8564C54.0226 76.8564 53.3178 77.148 52.798 77.6672C52.2781 78.1865 51.9857 78.8908 51.9851 79.6254V104.053C51.9864 104.787 52.279 105.491 52.7987 106.01C53.3184 106.529 54.0228 106.821 54.7575 106.822H114.179C114.913 106.82 115.617 106.528 116.136 106.009C116.655 105.49 116.947 104.787 116.949 104.053V79.6254C116.948 78.8912 116.656 78.1873 116.137 77.6681C115.617 77.149 114.913 76.857 114.179 76.8564H54.7575Z" fill="#003096"/>
<path d="M109.948 84.0831H58.9855V84.6914H109.948V84.0831Z" fill="#E0E0FF"/>
<path d="M109.948 91.5336H58.9855V92.1419H109.948V91.5336Z" fill="#E0E0FF"/>
<path d="M109.948 98.9867H58.9855V99.595H109.948V98.9867Z" fill="#E0E0FF"/>
<path d="M59.8375 99.6485L59.3604 99.2714L62.9921 94.692L69.2453 96.8284L74.6271 90.9838L80.1014 95.3928L86.5298 88.2026L92.3571 94.9256L97.5636 81.4527L102.967 89.9375L109.247 80.8858L109.746 81.2313L102.945 91.0373L97.6975 82.7935L92.5591 96.0887L86.5225 89.1223L80.1695 96.2298L74.6904 91.8159L69.423 97.5316L63.2014 95.4074L59.8375 99.6485Z" fill="#003096"/>
<path d="M224.129 24.2059L221.196 0.489075C216.628 1.0541 212.32 2.92555 208.789 5.87865C205.259 8.83175 202.656 12.7409 201.295 17.1366C199.933 21.5323 199.869 26.2275 201.112 30.6584C202.354 35.0893 204.85 39.0674 208.299 42.1149C211.748 45.1624 216.004 47.1496 220.556 47.8379C225.107 48.5263 229.761 47.8864 233.957 45.9952C238.154 44.104 241.715 41.0419 244.213 37.1767C246.711 33.3115 248.04 28.8076 248.04 24.2059C248.04 23.5075 248.003 22.8165 247.945 22.1327L224.129 24.2059Z" fill="white"/>
<path d="M224.129 48.4118C217.965 48.4129 212.032 46.0635 207.541 41.8426C203.05 37.6217 200.338 31.8472 199.959 25.6966C199.58 19.546 201.562 13.4825 205.501 8.74238C209.44 4.00231 215.039 0.942685 221.157 0.187383L221.459 0.150879L224.402 23.8774L248.229 21.8043L248.256 22.1084C248.32 22.8603 248.351 23.5489 248.351 24.2059C248.344 30.6248 245.79 36.7786 241.249 41.3168C236.707 45.8549 230.551 48.4066 224.129 48.4118ZM220.931 0.822456C216.439 1.43548 212.218 3.32846 208.774 6.2752C205.329 9.22195 202.806 13.0978 201.505 17.4397C200.205 21.7816 200.183 26.4059 201.442 30.76C202.7 35.1142 205.186 39.0139 208.603 41.9934C212.019 44.9729 216.222 46.9061 220.708 47.562C225.194 48.2179 229.774 47.5687 233.901 45.6921C238.028 43.8154 241.527 40.7906 243.98 36.9792C246.434 33.1678 247.737 28.7308 247.735 24.1986C247.735 23.6463 247.713 23.0744 247.667 22.4564L223.864 24.5271L220.931 0.822456Z" fill="#003096"/>
<path d="M236.604 19.3394L260.419 17.2663C260.048 12.9334 258.496 8.78517 255.931 5.27283L236.604 19.3394Z" fill="#9192FF"/>
<path d="M243.456 10.1393C241.24 7.09099 238.334 4.61057 234.975 2.9011C231.615 1.19162 227.899 0.301685 224.129 0.304143C223.149 0.306566 222.169 0.368323 221.196 0.489072L224.129 24.2059L243.456 10.1393Z" fill="#E0E0FF"/>
<path d="M223.891 24.7558L220.856 0.223874L221.157 0.187377C225.446 -0.349999 229.801 0.273525 233.767 1.99285C237.732 3.71218 241.164 6.46425 243.702 9.9617L243.882 10.205L223.891 24.7558ZM221.535 0.756754L224.368 23.656L243.03 10.0688C240.827 7.13648 237.974 4.75536 234.694 3.11287C231.414 1.47039 227.798 0.611373 224.129 0.603459C223.262 0.60617 222.396 0.657349 221.535 0.756754Z" fill="#003096"/>
<path d="M284.135 92.4242H240.455C238.37 92.4242 236.68 94.1139 236.68 96.1982V144.101C236.68 146.186 238.37 147.875 240.455 147.875H284.135C286.22 147.875 287.91 146.186 287.91 144.101V96.1982C287.91 94.1139 286.22 92.4242 284.135 92.4242Z" fill="white"/>
<path d="M284.132 148.167H240.467C239.389 148.166 238.355 147.737 237.592 146.975C236.83 146.213 236.401 145.179 236.4 144.101V96.2054C236.399 95.1262 236.827 94.0909 237.59 93.3271C238.353 92.5633 239.388 92.1335 240.467 92.1322H284.145C285.222 92.1367 286.254 92.5678 287.015 93.3312C287.775 94.0946 288.202 95.1281 288.202 96.2054V144.101C288.201 145.18 287.772 146.214 287.009 146.976C286.246 147.738 285.211 148.167 284.132 148.167ZM240.467 92.7162C240.008 92.7152 239.554 92.8048 239.13 92.9797C238.705 93.1547 238.32 93.4116 237.995 93.7357C237.67 94.0599 237.413 94.4449 237.237 94.8687C237.062 95.2925 236.971 95.7467 236.972 96.2054V144.101C236.972 144.559 237.063 145.013 237.239 145.436C237.415 145.859 237.673 146.243 237.998 146.566C238.322 146.89 238.708 147.146 239.131 147.32C239.555 147.495 240.009 147.584 240.467 147.583H284.145C285.068 147.583 285.954 147.216 286.608 146.563C287.261 145.91 287.629 145.025 287.63 144.101V96.2054C287.629 95.2819 287.261 94.3967 286.608 93.7439C285.954 93.0911 285.068 92.7241 284.145 92.7235L240.467 92.7162Z" fill="#003096"/>
<path d="M282.071 100.364H242.517V101.004H282.071V100.364Z" fill="#E0E0FF"/>
<path d="M282.071 110.097H242.517V110.737H282.071V110.097Z" fill="#E0E0FF"/>
<path d="M282.071 119.83H242.517V120.47H282.071V119.83Z" fill="#E0E0FF"/>
<path d="M282.071 129.563H242.517V130.203H282.071V129.563Z" fill="#E0E0FF"/>
<path d="M282.071 139.296H242.517V139.936H282.071V139.296Z" fill="#E0E0FF"/>
<path d="M245.885 113.445H242.517V139.936H245.885V113.445Z" fill="#CBCBFF"/>
<path d="M253.21 123.29H249.841V139.938H253.21V123.29Z" fill="#E0E0FF"/>
<path d="M260.534 117.173H257.165V139.936H260.534V117.173Z" fill="#CBCBFF"/>
<path d="M267.858 113.063H264.489V139.936H267.858V113.063Z" fill="#E0E0FF"/>
<path d="M275.182 108.102H271.814V139.936H275.182V108.102Z" fill="#CBCBFF"/>
<path d="M282.507 102.819H279.138V139.936H282.507V102.819Z" fill="#E0E0FF"/>
<path d="M138.661 3.80316H108.826C107.886 3.80316 106.984 4.17668 106.318 4.84154C105.653 5.5064 105.28 6.40814 105.28 7.3484V19.4197C105.28 20.36 105.653 21.2617 106.318 21.9266C106.984 22.5914 107.886 22.9649 108.826 22.9649H129.2L137.033 29.6563V22.9649H138.661C139.127 22.9649 139.588 22.8732 140.018 22.695C140.448 22.5168 140.839 22.2556 141.168 21.9264C141.497 21.5972 141.758 21.2063 141.936 20.7762C142.114 20.3461 142.205 19.8852 142.205 19.4197V7.3484C142.205 6.88294 142.114 6.42199 141.936 5.99188C141.758 5.56176 141.497 5.17092 141.168 4.84169C140.839 4.51245 140.448 4.25127 140.018 4.07308C139.588 3.89488 139.127 3.80316 138.661 3.80316Z" fill="white"/>
<path d="M137.354 30.3498L129.078 23.2934H108.826C107.801 23.2927 106.818 22.8854 106.094 22.1609C105.369 21.4364 104.961 20.454 104.961 19.4294V7.34836C104.961 6.32377 105.369 5.34132 106.094 4.61682C106.818 3.89232 107.801 3.48502 108.826 3.48438H138.661C139.686 3.48566 140.668 3.89317 141.393 4.61753C142.117 5.34189 142.525 6.32397 142.526 7.34836V19.4197C142.525 20.4441 142.117 21.4261 141.393 22.1505C140.668 22.8749 139.686 23.2824 138.661 23.2837H137.354V30.3498ZM108.826 4.12188C107.971 4.12317 107.15 4.46352 106.545 5.06832C105.94 5.67312 105.6 6.49304 105.599 7.34836V19.4197C105.6 20.275 105.94 21.0949 106.545 21.6997C107.15 22.3045 107.971 22.6449 108.826 22.6461H129.319L136.714 28.9726V22.6461H138.661C139.516 22.6449 140.336 22.3044 140.941 21.6996C141.546 21.0947 141.885 20.2748 141.886 19.4197V7.34836C141.885 6.49327 141.546 5.67334 140.941 5.06847C140.336 4.4636 139.516 4.12317 138.661 4.12188H108.826Z" fill="#003096"/>
<path d="M133.686 8.66962H109.802V9.27793H133.686V8.66962Z" fill="#9192FF"/>
<path d="M136.882 12.777H109.802V13.3853H136.882V12.777Z" fill="#9192FF"/>
<path d="M128.817 16.8818H109.802V17.4901H128.817V16.8818Z" fill="#9192FF"/>
<path d="M130.701 210.505H122.182V313.917H130.701V210.505Z" fill="#B0B0D2"/>
<path d="M217.416 210.505H208.897V313.917H217.416V210.505Z" fill="#B0B0D2"/>
<path opacity="0.3" d="M130.701 210.222H122.182V228.45H130.701V210.222Z" fill="#1B1B43"/>
<path opacity="0.3" d="M217.416 210.222H208.897V228.45H217.416V210.222Z" fill="#1B1B43"/>
<path d="M265.468 206.979H74.1329V215.549H265.468V206.979Z" fill="#B0B0D2"/>
<path d="M242.965 204.052H220.807V206.988H242.965V204.052Z" fill="#1B1B43"/>
<path d="M224.086 206.989H220.809L207.748 172.546C207.66 172.314 207.63 172.064 207.66 171.818C207.69 171.572 207.779 171.336 207.92 171.132C208.061 170.928 208.25 170.761 208.469 170.646C208.689 170.531 208.934 170.471 209.182 170.47C209.493 170.471 209.797 170.565 210.053 170.742C210.309 170.919 210.505 171.17 210.615 171.461L224.086 206.989Z" fill="#1B1B43"/>
<path d="M101.685 206.989H123.842V204.052H101.685V206.989Z" fill="#1B1B43"/>
<path d="M120.563 206.989H123.842L136.901 172.546C136.989 172.314 137.02 172.064 136.99 171.818C136.961 171.572 136.872 171.337 136.731 171.132C136.59 170.928 136.402 170.761 136.182 170.646C135.962 170.531 135.718 170.47 135.47 170.47C135.159 170.471 134.855 170.565 134.599 170.742C134.342 170.919 134.146 171.17 134.036 171.461L120.563 206.989Z" fill="#1B1B43"/>
<path d="M58.1263 167.334L70.214 169.276L70.3455 162.655L70.4745 156.063L70.584 150.428L67.2323 148.846L61.4902 155.574L58.1263 167.334Z" fill="#D28572"/>
<path d="M65.4091 155.993C65.4091 155.993 66.8696 159.054 70.3479 162.652L70.4745 156.063L65.4091 155.993Z" fill="#925D4F"/>
<path d="M78.8429 147.844C78.9841 147.924 82.6693 153.567 81.0141 154.078C79.359 154.589 77.2656 154.392 77.2656 154.392L78.8429 147.844Z" fill="#925D4F"/>
<path d="M80.06 143.043L78.5338 157.073C78.4702 157.656 78.2478 158.211 77.8907 158.677C77.5337 159.143 77.0556 159.502 76.5086 159.715C75.728 160.018 74.8603 160.005 74.0891 159.679L65.4043 155.995L64.2383 148.085L71.2656 140.734L80.06 143.043Z" fill="#D28572"/>
<path d="M59.1657 159.633L55.0082 168.86L71.1341 171.393L72.249 164.195L59.1657 159.633Z" fill="#FED3D1"/>
<path d="M69.7589 148.068C69.7589 148.068 76.8957 146.863 80.06 143.043C80.06 143.043 81.2357 135.656 70.365 134.677C58.5693 133.617 47.5112 150.299 47.5112 150.299L61.9186 162.879L69.7589 148.068Z" fill="#1B1B43"/>
<path d="M70.7642 151.565C71.9741 150.943 72.2971 149.16 71.4857 147.582C70.6743 146.005 69.0358 145.23 67.8259 145.852C66.616 146.473 66.2929 148.256 67.1043 149.834C67.9157 151.412 69.5543 152.186 70.7642 151.565Z" fill="#D28572"/>
<path d="M69.7954 149.841C69.7443 149.506 69.5009 148.552 68.98 148.197C68.8818 148.129 68.7699 148.083 68.6521 148.063C68.5344 148.042 68.4136 148.048 68.2984 148.08L68.1645 147.486C68.3621 147.435 68.5683 147.428 68.7691 147.464C68.9698 147.5 69.1605 147.579 69.328 147.695C70.1727 148.277 70.3869 149.693 70.3966 149.754L69.7954 149.841Z" fill="#1B1B43"/>
<path opacity="0.3" d="M74.924 153.944C76.2267 153.944 77.2827 152.888 77.2827 151.586C77.2827 150.284 76.2267 149.228 74.924 149.228C73.6214 149.228 72.5654 150.284 72.5654 151.586C72.5654 152.888 73.6214 153.944 74.924 153.944Z" fill="#BE443D"/>
<path d="M76.4088 189.545C75.9465 191.307 75.0848 192.94 73.8903 194.317C72.6959 195.694 71.2007 196.777 69.5203 197.484C69.3134 197.567 69.1065 197.647 68.8923 197.728C68.6781 197.808 68.4858 197.881 68.2838 197.954C65.0589 199.205 62.1581 201.167 59.7979 203.695C57.4377 206.223 55.6789 209.251 54.6528 212.553C54.5384 212.943 54.4411 213.315 54.3632 213.66C54.3632 213.66 40.8223 215.639 27.1305 208.032C27.1305 208.032 34.6762 181.267 51.3327 168.541C53.235 167.094 55.458 166.128 57.8134 165.722C60.1688 165.317 62.5873 165.485 64.8639 166.212C68.9151 167.497 72.4488 170.044 74.9484 173.48L75.2478 173.892L76.7204 184.634C76.9454 186.276 76.8395 187.945 76.4088 189.545Z" fill="#FE5B52"/>
<path d="M76.4088 189.545C75.9465 191.307 75.0848 192.94 73.8903 194.317C72.6959 195.694 71.2007 196.777 69.5203 197.484C69.3134 197.567 69.1065 197.647 68.8923 197.728C68.6781 197.808 68.4858 197.881 68.2838 197.954C66.1807 192.788 64.4501 184.571 64.4501 184.571L74.5954 185.917L76.4088 189.545Z" fill="#BE443D"/>
<path d="M98.3157 178.084C98.3157 178.084 107.225 168.563 110.029 169.264C111.246 169.568 107.595 173.368 107.595 173.368C107.595 173.368 111.078 173.437 116.659 170.556C116.804 170.481 116.962 170.437 117.124 170.426C117.287 170.415 117.449 170.438 117.602 170.494C117.755 170.549 117.895 170.635 118.013 170.747C118.131 170.859 118.224 170.995 118.288 171.144C118.369 171.34 118.396 171.554 118.365 171.763C118.335 171.973 118.248 172.17 118.115 172.334C116.934 173.794 113.412 177.736 108.51 179.452L106.426 182.14L101.207 184.625L98.3157 178.084Z" fill="#D28572"/>
<path d="M106.426 182.14L94.7741 202.908C94.1324 204.051 93.2247 205.023 92.1279 205.742C91.0311 206.46 89.7774 206.904 88.4727 207.036C87.168 207.168 85.8507 206.984 84.6322 206.5C83.4136 206.016 82.3296 205.245 81.4718 204.254L64.4331 184.574L75.2307 173.892L87.0532 190.099L98.3157 178.084L106.426 182.14Z" fill="#FE5B52"/>
<path d="M90.3757 196.117C83.5407 185.449 74.4616 172.821 69.5934 168.658L69.9877 168.195C75.608 172.999 85.7704 187.8 90.8893 195.788L90.3757 196.117Z" fill="#1B1B43"/>
<path d="M87.9513 207.648C86.6025 207.624 85.2812 207.262 84.1079 206.597C80.3789 204.584 64.8615 185.566 64.2043 184.756L64.674 184.374C64.8347 184.571 80.7756 204.108 84.3902 206.064C88.5112 208.288 91.308 206.266 92.6078 204.862C94.6792 202.626 106.039 182.191 106.154 181.989L106.687 182.284C106.217 183.128 95.1757 202.988 93.0556 205.28C91.6049 206.857 89.8402 207.648 87.9513 207.648Z" fill="#1B1B43"/>
<path d="M68.8023 289.911L58.3089 310.594L60.5993 310.917L64.4038 305.518L76.3309 313.934L83.3241 313.905C83.3241 313.905 84.7432 312.499 81.1091 308.725C76.8397 304.287 74.3983 298.469 74.5102 292.398V291.875L71.6477 288.955L68.8023 289.911Z" fill="#1B1B43"/>
<path d="M69.2404 296.376L66.9256 313.895H69.2404L72.2514 308.017L83.3631 313.669H92.1623C92.1623 313.669 93.3794 312.078 89.2414 308.849C84.3902 305.055 81.1553 299.637 80.4154 293.609L80.3521 293.089L77.1123 290.621L69.2404 296.376Z" fill="#393A8F"/>
<path d="M81.5813 298.53L97.8679 241.275C98.5043 239.039 98.3302 236.651 97.3763 234.531C96.4223 232.411 94.7498 230.696 92.654 229.688L77.9861 222.632L77.1123 290.621L81.5813 298.53Z" fill="#1B1B43"/>
<path d="M27.1183 208.042L23.8323 223.659C23.3833 225.795 23.4167 228.004 23.93 230.125C24.4433 232.247 25.4236 234.227 26.7994 235.922C28.1753 237.616 29.9121 238.983 31.8832 239.922C33.8543 240.861 36.0101 241.348 38.1935 241.348H68.9045C65.8327 256.352 67.8286 276.99 68.9045 298.225L81.5813 298.529L90.327 243.949C91.0361 239.52 90.1958 234.982 87.9478 231.099C85.6998 227.217 82.1816 224.228 77.9861 222.637L54.351 213.67L27.1183 208.042Z" fill="#003096"/>
<path opacity="0.4" d="M77.9277 298.568L77.3241 298.491C77.3922 297.975 83.9911 246.925 82.1922 237.552C80.3375 227.868 61.6582 225.072 51.6248 223.569C50.7315 223.437 49.9088 223.325 49.1786 223.196C46.6641 222.797 44.8751 221.712 43.8625 219.972C41.8641 216.541 43.5923 211.836 43.6677 211.636L44.2373 211.85C44.2203 211.896 42.5335 216.488 44.3907 219.668C45.3059 221.242 46.9489 222.225 49.2735 222.588C50.0037 222.705 50.824 222.831 51.7076 222.96C61.8919 224.486 80.8462 227.323 82.7837 237.431C83.5456 241.412 82.959 252.911 81.0385 271.611C79.617 285.529 77.9447 298.439 77.9277 298.568Z" fill="white"/>
<path d="M34.092 243.818L31.9914 255.948L21.9459 314H17.7227L27.7682 255.948L29.8688 243.818H34.092Z" fill="#B0B0D2"/>
<path d="M62.0842 314H57.861L47.813 255.948L45.7148 243.818H49.938L52.0362 255.948L62.0842 314Z" fill="#B0B0D2"/>
<path opacity="0.3" d="M34.092 243.818L31.9914 255.948H27.7682L29.8688 243.818H34.092Z" fill="#1B1B43"/>
<path opacity="0.3" d="M52.0362 255.948H47.813L45.7148 243.818H49.938L52.0362 255.948Z" fill="#1B1B43"/>
<path d="M58.5547 247.127H19.0371V241.348H58.5547C59.3216 241.348 60.0572 241.653 60.5995 242.195C61.1418 242.737 61.4464 243.472 61.4464 244.239C61.4458 245.005 61.1408 245.74 60.5986 246.281C60.0564 246.823 59.3212 247.127 58.5547 247.127Z" fill="#CBCBFF"/>
<path d="M24.6136 247.127H19.0371L0.19473 200.959C-0.0585487 200.34 -0.0643986 199.648 0.178396 199.024C0.42119 198.401 0.89408 197.895 1.4994 197.611C1.82045 197.459 2.16902 197.375 2.52382 197.362C2.87863 197.35 3.23223 197.41 3.563 197.539C3.89378 197.668 4.1948 197.863 4.44767 198.112C4.70054 198.361 4.89994 198.659 5.03371 198.988L24.6136 247.127Z" fill="#CBCBFF"/>
<path d="M281.304 147.447C281.163 147.52 277.254 152.966 278.87 153.545C280.486 154.124 282.58 154.031 282.58 154.031L281.304 147.447Z" fill="#D28572"/>
<path d="M301.045 167.711L288.027 169.254L288.268 162.655L288.514 156.088L288.721 150.474L292.391 149.007L298.136 155.893L301.045 167.711Z" fill="#FFBC96"/>
<path d="M293.927 156.185C293.927 156.185 292.192 159.183 288.268 162.655L288.511 156.085L293.927 156.185Z" fill="#D28572"/>
<path d="M280.309 142.624L281.212 156.628C281.249 157.211 281.447 157.773 281.782 158.251C282.117 158.73 282.577 159.108 283.113 159.343C283.874 159.679 284.736 159.704 285.515 159.411L294.305 156.129L295.814 148.321L289.149 140.7L280.309 142.624Z" fill="#FFBC96"/>
<path d="M290.483 148.316C290.483 148.316 288.324 144.126 286.075 143.486C286.075 143.486 277.419 146.306 275.513 139.67C275.513 139.67 280.382 139.717 284.571 136.79C288.76 133.862 293.112 135.269 296.13 138.006C296.13 138.006 305.993 138.493 298.216 155.89C298.216 155.89 296.269 156.538 291.284 149.588L290.483 148.316Z" fill="#1B1B43"/>
<path d="M292.907 149.749C292.031 151.282 290.378 151.983 289.213 151.318C288.047 150.654 287.81 148.885 288.687 147.34C289.563 145.795 291.216 145.106 292.379 145.771C293.543 146.435 293.774 148.216 292.907 149.749Z" fill="#FFBC96"/>
<path opacity="0.4" d="M285.398 153.297C286.721 153.297 287.793 152.207 287.793 150.863C287.793 149.52 286.721 148.43 285.398 148.43C284.075 148.43 283.003 149.52 283.003 150.863C283.003 152.207 284.075 153.297 285.398 153.297Z" fill="#FE5B52"/>
<path d="M290.081 149.615C289.962 148.827 290.179 147.209 291.856 146.729L292.024 147.316C290.437 147.768 290.671 149.452 290.683 149.525L290.081 149.615Z" fill="#1B1B43"/>
<path d="M288.027 169.254L288.176 162.472L299.635 159.531L302.982 167.947L288.027 169.254Z" fill="#CBCBFF"/>
<path d="M289.799 166.526C284.045 172.123 279.858 180.517 274.586 189.034C274.586 189.034 256.71 193.657 251.589 198.767L260.792 203.431L292.233 194.71L289.799 166.526Z" fill="#1B1B43"/>
<path d="M243.318 293.541L236.147 313.895L213.712 308.299C213.712 308.299 217.202 303.527 227.73 304.892L233.328 289.164L243.318 293.541Z" fill="#1B1B43"/>
<path d="M288.175 213.062L255.77 223.591C252.027 224.806 248.653 226.949 245.961 229.82C243.27 232.69 241.349 236.195 240.377 240.008L227.323 293.967L244.97 298.529C251.888 282.137 258.601 262.573 263.226 243.58L288.175 213.062Z" fill="#393A8F"/>
<path d="M276.412 295.072L279.048 313.929H254.505C254.505 313.929 256.734 308.455 267.284 307.238L266.675 295.882L276.412 295.072Z" fill="#1B1B43"/>
<path d="M317.553 207.687L320.834 223.301C322.749 232.421 315.905 241.499 306.582 241.499H277.071C278.729 256.658 280.326 276.633 279.25 297.868L263.09 298.172L254.342 243.592C253.632 239.163 254.472 234.624 256.719 230.742C258.967 226.86 262.485 223.871 266.68 222.279L288.173 213.062L317.553 207.687Z" fill="#003096"/>
<path d="M318.602 212.758C315.944 187.377 312.142 163.429 293.017 164.528C291.881 164.605 290.812 165.095 290.013 165.906C288.388 167.531 287.134 169.489 286.34 171.645C285.545 173.802 285.228 176.105 285.41 178.396L288.176 213.062C288.176 213.062 303.084 215.799 318.602 212.758Z" fill="#1B1B43"/>
<path d="M251.589 198.538C251.589 198.538 240.331 200.667 238.505 207.054H254.478L257.52 204.925L251.589 198.538Z" fill="#FFBC96"/>
<path d="M293.119 170.101L278.515 192.759L251.589 198.538L254.478 207.054L277.057 206.94C283.117 206.821 288.305 203.653 291.676 198.616L304.226 180.593L293.119 170.101Z" fill="#1B1B43"/>
<path d="M251.664 198.835L251.535 198.241L278.298 192.499C279.011 190.486 279.719 188.403 280.403 186.386C283.215 178.113 285.87 170.303 289.166 166.037L289.653 166.407C286.421 170.595 283.782 178.361 280.988 186.583C280.284 188.654 279.554 190.798 278.821 192.861L278.765 193.022L278.6 193.056L251.664 198.835Z" fill="#003096"/>
<path d="M267.729 207.478C261.466 207.478 254.965 207.368 254.475 207.358V206.75C254.697 206.75 276.455 207.122 279.126 206.529L279.208 206.512C282.394 205.799 285.361 204.329 287.857 202.224C290.353 200.12 292.303 197.445 293.543 194.426L296.559 187.092L297.121 187.335L294.105 194.667C292.828 197.776 290.819 200.531 288.249 202.699C285.679 204.866 282.623 206.381 279.342 207.115L279.259 207.132C278.018 207.405 272.955 207.478 267.729 207.478Z" fill="#003096"/>
<path d="M324.054 313.998H328.28L316.134 243.816H311.908L324.054 313.998Z" fill="#B0B0D2"/>
<path d="M288.141 313.998H283.916L296.062 243.816H300.288L288.141 313.998Z" fill="#B0B0D2"/>
<path opacity="0.3" d="M300.28 243.816L298.18 255.948H293.957L296.057 243.816H300.28Z" fill="#1B1B43"/>
<path opacity="0.3" d="M318.224 255.948H314.001L311.903 243.816H316.126L318.224 255.948Z" fill="#1B1B43"/>
<path d="M287.445 247.127H326.965V241.348H287.445C287.066 241.348 286.69 241.423 286.339 241.568C285.988 241.714 285.67 241.927 285.401 242.195C285.133 242.464 284.92 242.782 284.775 243.133C284.63 243.484 284.556 243.859 284.556 244.239C284.556 245.005 284.86 245.74 285.402 246.281C285.944 246.823 286.679 247.127 287.445 247.127Z" fill="#CBCBFF"/>
<path d="M321.386 247.127H326.965L345.808 200.959C346.06 200.34 346.065 199.647 345.822 199.024C345.579 198.401 345.106 197.895 344.501 197.611C344.18 197.459 343.831 197.375 343.477 197.363C343.122 197.35 342.769 197.41 342.438 197.539C342.107 197.668 341.807 197.863 341.554 198.112C341.301 198.361 341.102 198.659 340.969 198.988L321.386 247.127Z" fill="#CBCBFF"/>
</g>
<defs>
<clipPath id="clip0_1120_12285">
<rect width="346" height="314" fill="white"/>
</clipPath>
</defs>
</svg>
