<svg width="324" height="342" viewBox="0 0 324 342" fill="none" xmlns="http://www.w3.org/2000/svg">
<g clip-path="url(#clip0_1120_12887)">
<path d="M80.6489 341.991C124.535 341.991 160.113 332.502 160.113 320.796C160.113 309.09 124.535 299.601 80.6489 299.601C36.7623 299.601 1.18512 309.09 1.18512 320.796C1.18512 332.502 36.7623 341.991 80.6489 341.991Z" fill="#E4F1FF"/>
<path d="M109.799 328.9L43.6523 328.831L43.7248 259.688L113.725 259.761L113.657 325.056C113.656 326.077 113.249 327.055 112.525 327.776C111.802 328.497 110.821 328.901 109.799 328.9Z" fill="#9FCCFB"/>
<path d="M43.7349 259.682L113.7 259.761L91.666 242.229C90.1348 241.011 88.2338 240.35 86.2759 240.354L27.7052 240.283C27.3842 240.282 27.0701 240.376 26.8029 240.554C26.5357 240.732 26.3276 240.985 26.2052 241.281C26.0827 241.577 26.0514 241.903 26.1153 242.217C26.1793 242.532 26.3355 242.82 26.564 243.045L43.7349 259.682Z" fill="#9FCCFB"/>
<path d="M24.0621 305.991L23.8427 245.902C23.8427 241.327 26.8186 240.582 26.8186 240.582L26.2831 241.704C26.0197 242.291 26.5728 242.966 27.0293 243.413L43.7086 259.691L43.6296 328.825L26.2392 311.18C24.8558 309.805 24.0732 307.94 24.0621 305.991Z" fill="#9FCCFB"/>
<path d="M63.2058 259.708H46.6494C45.8756 259.708 45.1334 260.015 44.5854 260.56C44.0375 261.106 43.7285 261.846 43.7261 262.618V280.071" stroke="white" stroke-width="0.5" stroke-miterlimit="10"/>
<path d="M43.6998 291.089L43.6647 325.915" stroke="white" stroke-width="0.5" stroke-miterlimit="10"/>
<path d="M33.4025 249.707L43.6471 259.682" stroke="white" stroke-width="0.5" stroke-miterlimit="10"/>
<path d="M26.722 240.564L26.1865 241.686C25.9231 242.273 26.4674 242.948 26.9327 243.395L31.6029 247.945" stroke="white" stroke-width="0.5" stroke-miterlimit="10"/>
<path d="M207.28 48.5879H115.482C107.264 48.5879 100.603 55.2399 100.603 63.4456V264.564C100.603 272.77 107.264 279.422 115.482 279.422H207.28C215.498 279.422 222.16 272.77 222.16 264.564V63.4456C222.16 55.2399 215.498 48.5879 207.28 48.5879Z" fill="#1C004F"/>
<path d="M208.167 54.3032H114.604C109.785 54.3032 105.879 58.2042 105.879 63.0163V264.976C105.879 269.789 109.785 273.69 114.604 273.69H208.167C212.986 273.69 216.893 269.789 216.893 264.976V63.0163C216.893 58.2042 212.986 54.3032 208.167 54.3032Z" fill="white"/>
<path d="M135.102 51.4456H188.099V59.2645C188.094 61.4491 187.222 63.5426 185.673 65.0857C184.124 66.6288 182.026 67.4954 179.838 67.4954H142.924C140.733 67.4954 138.632 66.6264 137.083 65.0795C135.534 63.5326 134.663 61.4346 134.663 59.247V51.8838C134.663 51.7676 134.71 51.6561 134.792 51.5739C134.874 51.4917 134.986 51.4456 135.102 51.4456Z" fill="#1C004F"/>
<path d="M133.478 41.1108C133.508 46.3307 131.986 51.4422 129.107 55.7988C126.227 60.1554 122.118 63.5615 117.299 65.5863C112.481 67.6111 107.169 68.1637 102.036 67.1742C96.9031 66.1847 92.1792 63.6976 88.4618 60.0273C84.7444 56.3571 82.2004 51.6685 81.1516 46.5546C80.1027 41.4407 80.5961 36.131 82.5694 31.2971C84.5426 26.4632 87.9071 22.322 92.2373 19.3974C96.5676 16.4728 101.669 14.896 106.897 14.8664C110.368 14.8457 113.81 15.5081 117.025 16.816C120.24 18.1239 123.165 20.0515 125.634 22.4888C128.102 24.926 130.066 27.8251 131.412 31.0204C132.758 34.2156 133.46 37.6444 133.478 41.1108Z" fill="#B4D8F9"/>
<path d="M126.719 40.7077C126.741 44.6767 125.585 48.5633 123.395 51.8757C121.205 55.1881 118.08 57.7775 114.416 59.3164C110.752 60.8553 106.713 61.2745 102.81 60.521C98.9076 59.7675 95.3164 57.8752 92.491 55.0834C89.6656 52.2915 87.7328 48.7257 86.9373 44.8369C86.1418 40.948 86.5193 36.911 88.0219 33.2364C89.5246 29.5618 92.0849 26.4148 95.3791 24.1935C98.6732 21.9721 102.553 20.7762 106.528 20.7571C111.854 20.7314 116.973 22.8184 120.759 26.5594C124.545 30.3004 126.689 35.3892 126.719 40.7077Z" fill="#71B7E2"/>
<path d="M127.289 41.5842C127.307 45.4977 126.162 49.3284 123.999 52.5923C121.837 55.8562 118.754 58.4067 115.14 59.9215C111.526 61.4363 107.544 61.8474 103.696 61.1028C99.8485 60.3582 96.3083 58.4913 93.5228 55.7382C90.7374 52.985 88.8319 49.4692 88.0471 45.6349C87.2622 41.8007 87.6334 37.8202 89.1135 34.1965C90.5937 30.5728 93.1165 27.4686 96.363 25.2762C99.6095 23.0838 103.434 21.9016 107.353 21.879C109.959 21.8629 112.542 22.3601 114.955 23.3421C117.368 24.3242 119.563 25.7719 121.415 27.6023C123.267 29.4326 124.739 31.6097 125.747 34.009C126.755 36.4082 127.279 38.9824 127.289 41.5842Z" fill="#FF725E"/>
<path d="M127.289 41.5842C127.307 45.4977 126.162 49.3284 123.999 52.5923C121.837 55.8562 118.754 58.4067 115.14 59.9215C111.526 61.4363 107.544 61.8474 103.696 61.1028C99.8485 60.3582 96.3083 58.4913 93.5228 55.7382C90.7374 52.985 88.8319 49.4692 88.0471 45.6349C87.2622 41.8007 87.6334 37.8202 89.1135 34.1965C90.5937 30.5728 93.1165 27.4686 96.363 25.2762C99.6095 23.0838 103.434 21.9016 107.353 21.879C109.959 21.8629 112.542 22.3601 114.955 23.3421C117.368 24.3242 119.563 25.7719 121.415 27.6023C123.267 29.4326 124.739 31.6097 125.747 34.009C126.755 36.4082 127.279 38.9824 127.289 41.5842Z" fill="#003096"/>
<path d="M108.249 39.9538V34.8873C109.177 34.9958 110.087 35.2287 110.953 35.5798C111.397 35.8047 111.82 36.0687 112.217 36.3687L112.287 36.2109L113.059 34.3789L113.235 33.9581L112.357 33.0202L111.927 33.213C110.783 32.6244 109.532 32.2725 108.249 32.1787V29.3912L107.371 28.6987V29.4H106.124V32.24C102.209 32.6345 100.357 34.8697 100.374 37.4381C100.374 40.9443 103.394 41.8209 106.186 42.4783V47.4922C104.361 47.3608 102.612 46.7098 101.147 45.6164L100.032 48.1584C101.829 49.4403 103.969 50.1547 106.177 50.2096V52.3046H105.203L106.186 52.962H108.24V50.1482C112.182 49.7275 114.051 47.5185 114.034 44.9502C114.086 41.479 111.04 40.62 108.249 39.9538ZM106.186 39.4366C104.72 39.0246 103.64 38.4724 103.631 37.2715C103.622 36.0706 104.377 35.2642 106.159 34.9749L106.186 39.4366ZM108.293 47.4309V42.9955C109.803 43.4075 110.926 43.9772 110.926 45.2132C110.9 46.2914 110.127 47.1504 108.293 47.4309Z" fill="#71B7E2"/>
<path d="M107.45 49.4733V52.2871H105.387V49.5083C103.179 49.4557 101.038 48.741 99.2419 47.4572L100.357 44.9152C101.822 46.0086 103.571 46.6596 105.396 46.791V41.7771C102.604 41.1109 99.6106 40.2255 99.5842 36.7368C99.5842 34.1773 101.419 31.9332 105.343 31.5388V28.6987H107.397V31.4862C109.199 31.5506 110.956 32.066 112.506 32.9851L111.497 35.5272C110.245 34.8025 108.854 34.3485 107.415 34.1948V39.2613C110.215 39.9275 113.261 40.7865 113.279 44.2753C113.27 46.8436 111.391 49.0613 107.45 49.4733ZM105.325 38.7441V34.2824C103.57 34.5629 102.797 35.4746 102.806 36.579C102.815 37.6835 103.868 38.3409 105.325 38.7529V38.7441ZM110.04 44.5207C110.04 43.2847 108.916 42.715 107.406 42.303V46.7384C109.267 46.4667 110.04 45.6076 110.04 44.5295V44.5207Z" fill="white"/>
<path d="M178.679 16.6283C178.693 19.9354 177.725 23.1723 175.897 25.93C174.068 28.6876 171.463 30.8422 168.408 32.1213C165.354 33.4005 161.989 33.7468 158.738 33.1165C155.486 32.4861 152.495 30.9075 150.142 28.5801C147.789 26.2527 146.18 23.281 145.518 20.0406C144.856 16.8002 145.171 13.4366 146.424 10.375C147.676 7.31334 149.809 4.69112 152.553 2.83975C155.298 0.988383 158.53 -0.00901916 161.842 -0.0263808C164.043 -0.0379191 166.225 0.383845 168.262 1.2148C170.3 2.04575 172.154 3.26959 173.718 4.81636C175.281 6.36312 176.524 8.20247 177.376 10.2293C178.227 12.256 178.67 14.4305 178.679 16.6283Z" fill="#B4D8F9"/>
<path d="M163.597 29.0115C170.545 27.9485 175.316 21.4619 174.251 14.5232C173.186 7.58451 166.69 2.82133 159.741 3.88434C152.792 4.94735 148.022 11.434 149.087 18.3727C150.151 25.3114 156.648 30.0745 163.597 29.0115Z" fill="#71B7E2"/>
<path d="M174.764 16.9178C174.778 19.3986 174.055 21.8279 172.686 23.8983C171.317 25.9687 169.364 27.5874 167.074 28.5495C164.784 29.5117 162.26 29.7742 159.82 29.3038C157.381 28.8334 155.136 27.6513 153.369 25.9068C151.602 24.1624 150.394 21.9341 149.895 19.5036C149.397 17.0732 149.632 14.5497 150.569 12.2524C151.507 9.95512 153.106 7.98711 155.165 6.59728C157.223 5.20744 159.647 4.4582 162.132 4.44429C163.781 4.43505 165.417 4.75037 166.944 5.37223C168.472 5.99409 169.862 6.91032 171.035 8.06859C172.208 9.22687 173.141 10.6045 173.781 12.1229C174.421 13.6412 174.755 15.2705 174.764 16.9178Z" fill="#FF725E"/>
<path d="M174.764 16.9178C174.778 19.3986 174.055 21.8279 172.686 23.8983C171.317 25.9687 169.364 27.5874 167.074 28.5495C164.784 29.5117 162.26 29.7742 159.82 29.3038C157.381 28.8334 155.136 27.6513 153.369 25.9068C151.602 24.1624 150.394 21.9341 149.895 19.5036C149.397 17.0732 149.632 14.5497 150.569 12.2524C151.507 9.95512 153.106 7.98711 155.165 6.59728C157.223 5.20744 159.647 4.4582 162.132 4.44429C163.781 4.43505 165.417 4.75037 166.944 5.37223C168.472 5.99409 169.862 6.91032 171.035 8.06859C172.208 9.22687 173.141 10.6045 173.781 12.1229C174.421 13.6412 174.755 15.2705 174.764 16.9178Z" fill="#003096"/>
<path d="M162.694 15.9009V12.6927C163.281 12.7578 163.857 12.9023 164.405 13.1222C164.685 13.2661 164.952 13.4332 165.204 13.6218V13.5254L165.696 12.3683L165.81 12.0966L165.231 11.5005L164.958 11.632C164.234 11.2542 163.439 11.0303 162.623 10.9746V9.22148L162.07 8.7832V9.23025H161.315V11.0272C158.84 11.2814 157.663 12.7014 157.672 14.3231C157.672 16.532 159.586 17.093 161.359 17.5138V20.6957C160.203 20.6074 159.095 20.1941 158.164 19.5036L157.461 21.1165C158.624 21.9343 160.008 22.3806 161.429 22.3962V23.7286H160.806L161.429 24.1494H162.737V22.3962C165.231 22.1245 166.416 20.722 166.407 19.1004C166.398 16.8651 164.467 16.3216 162.694 15.9009ZM161.429 15.5678C160.552 15.3048 159.823 14.963 159.814 14.2004C159.805 13.4378 160.288 12.9206 161.421 12.7453L161.429 15.5678ZM162.729 20.608V17.7943C163.686 18.0572 164.388 18.4254 164.388 19.1968C164.388 19.9682 163.887 20.4503 162.729 20.6343V20.608Z" fill="#71B7E2"/>
<path d="M162.193 21.9316V23.6847H160.885V21.9316C159.482 21.8985 158.122 21.4466 156.979 20.6342L157.681 19.0301C158.613 19.7175 159.721 20.1278 160.876 20.2135V17.0316C159.121 16.6196 157.207 16.0586 157.198 13.8496C157.198 12.2192 158.357 10.7992 160.841 10.545V8.74805H162.149V10.5012C163.291 10.5415 164.405 10.867 165.389 11.4479L164.748 13.0607C163.959 12.59 163.079 12.2913 162.167 12.1842V15.3924C163.923 15.8131 165.863 16.3566 165.88 18.5656C165.88 20.2573 164.686 21.6686 162.193 21.9316ZM160.85 15.1382V12.3069C159.718 12.491 159.244 13.0607 159.252 13.762C159.261 14.4632 159.919 14.8752 160.85 15.1382ZM163.826 18.7935C163.826 18.0133 163.124 17.6539 162.167 17.391V20.2047C163.343 20.0207 163.835 19.4772 163.826 18.7935Z" fill="white"/>
<path opacity="0.35" d="M250.76 96.3606H135.094C133.289 96.3606 131.559 97.0763 130.283 98.3503C129.007 99.6243 128.29 101.352 128.29 103.154V163.251C128.29 165.053 129.007 166.781 130.283 168.055C131.559 169.329 133.289 170.045 135.094 170.045H250.76C252.565 170.045 254.295 169.329 255.571 168.055C256.847 166.781 257.564 165.053 257.564 163.251V103.154C257.564 101.352 256.847 99.6243 255.571 98.3503C254.295 97.0763 252.565 96.3606 250.76 96.3606Z" fill="#9FCCFB"/>
<path d="M247.767 94.0027H132.126C128.369 94.0027 125.323 97.0442 125.323 100.796V160.884C125.323 164.636 128.369 167.678 132.126 167.678H247.767C251.524 167.678 254.57 164.636 254.57 160.884V100.796C254.57 97.0442 251.524 94.0027 247.767 94.0027Z" fill="#9FCCFB"/>
<path d="M254.57 100.796C254.57 98.9943 253.853 97.2664 252.577 95.9924C251.302 94.7184 249.571 94.0027 247.767 94.0027H132.126C130.322 94.0027 128.592 94.7184 127.316 95.9924C126.04 97.2664 125.323 98.9943 125.323 100.796V101.857C139.474 102.497 166.907 107.116 186.045 131.66C208.061 159.92 237.663 157.133 254.57 150.278V100.796Z" fill="#8EC3F4"/>
<path d="M154.679 121.465H138.535C137.105 121.465 135.945 122.623 135.945 124.051V132.492C135.945 133.921 137.105 135.078 138.535 135.078H154.679C156.109 135.078 157.268 133.921 157.268 132.492V124.051C157.268 122.623 156.109 121.465 154.679 121.465Z" fill="white"/>
<path d="M245.686 100.524H222.309C221.717 100.524 221.238 101.003 221.238 101.594V106.091C221.238 106.681 221.717 107.16 222.309 107.16H245.686C246.278 107.16 246.757 106.681 246.757 106.091V101.594C246.757 101.003 246.278 100.524 245.686 100.524Z" fill="#1C004F"/>
<path d="M157.444 146.588H137.438C136.838 146.585 136.265 146.346 135.842 145.922C135.419 145.498 135.181 144.925 135.181 144.326C135.18 144.03 135.238 143.736 135.351 143.461C135.463 143.187 135.629 142.938 135.839 142.728C136.049 142.517 136.298 142.351 136.572 142.237C136.846 142.123 137.14 142.065 137.438 142.065H157.444C158.045 142.065 158.621 142.303 159.045 142.727C159.47 143.151 159.709 143.726 159.709 144.326C159.706 144.925 159.467 145.499 159.043 145.923C158.619 146.346 158.044 146.585 157.444 146.588Z" fill="white"/>
<path d="M185.764 146.588H165.757C165.158 146.585 164.584 146.346 164.161 145.922C163.739 145.498 163.501 144.925 163.501 144.326C163.5 144.03 163.557 143.736 163.67 143.461C163.783 143.187 163.949 142.938 164.159 142.728C164.368 142.517 164.618 142.351 164.892 142.237C165.166 142.123 165.46 142.065 165.757 142.065H185.764C186.364 142.065 186.94 142.303 187.365 142.727C187.79 143.151 188.028 143.726 188.028 144.326C188.026 144.925 187.787 145.499 187.363 145.923C186.938 146.346 186.364 146.585 185.764 146.588Z" fill="white"/>
<path d="M214.294 146.588H194.288C193.688 146.585 193.115 146.346 192.692 145.922C192.269 145.498 192.032 144.925 192.032 144.326C192.03 144.03 192.088 143.736 192.201 143.461C192.314 143.187 192.48 142.938 192.689 142.728C192.899 142.517 193.148 142.351 193.422 142.237C193.697 142.123 193.991 142.065 194.288 142.065H214.294C214.895 142.065 215.471 142.303 215.896 142.727C216.32 143.151 216.559 143.726 216.559 144.326C216.557 144.925 216.317 145.499 215.893 145.923C215.469 146.346 214.894 146.585 214.294 146.588Z" fill="white"/>
<path d="M242.614 146.588H222.607C222.008 146.585 221.434 146.346 221.011 145.922C220.589 145.498 220.351 144.925 220.351 144.326C220.35 144.03 220.408 143.736 220.52 143.461C220.633 143.187 220.799 142.938 221.009 142.728C221.219 142.517 221.468 142.351 221.742 142.237C222.016 142.123 222.31 142.065 222.607 142.065H242.614C243.214 142.065 243.79 142.303 244.215 142.727C244.64 143.151 244.879 143.726 244.879 144.326C244.876 144.925 244.637 145.499 244.213 145.923C243.788 146.346 243.214 146.585 242.614 146.588Z" fill="white"/>
<path d="M163.764 161.831H137.727C137.362 161.831 137.011 161.686 136.753 161.428C136.494 161.17 136.349 160.82 136.349 160.455C136.344 160.271 136.376 160.089 136.444 159.918C136.511 159.747 136.612 159.591 136.74 159.459C136.868 159.328 137.022 159.223 137.192 159.152C137.361 159.08 137.543 159.044 137.727 159.044H163.747C164.112 159.046 164.461 159.192 164.719 159.449C164.977 159.707 165.123 160.056 165.125 160.42C165.13 160.602 165.098 160.783 165.032 160.953C164.966 161.123 164.867 161.278 164.74 161.41C164.614 161.541 164.462 161.646 164.295 161.718C164.127 161.79 163.947 161.829 163.764 161.831Z" fill="#1C004F"/>
<path d="M242.544 161.831H229.7C229.52 161.831 229.341 161.795 229.174 161.726C229.008 161.657 228.856 161.555 228.729 161.427C228.602 161.3 228.501 161.148 228.433 160.981C228.364 160.814 228.33 160.635 228.331 160.455C228.331 160.091 228.475 159.743 228.732 159.485C228.988 159.227 229.336 159.081 229.7 159.079H242.544C242.909 159.079 243.26 159.224 243.518 159.482C243.777 159.74 243.922 160.09 243.922 160.455C243.922 160.82 243.777 161.17 243.518 161.428C243.26 161.686 242.909 161.831 242.544 161.831Z" fill="#1C004F"/>
<mask id="mask0_1120_12887" style="mask-type:luminance" maskUnits="userSpaceOnUse" x="135" y="121" width="23" height="15">
<path d="M154.679 121.474H138.535C137.105 121.474 135.945 122.632 135.945 124.06V132.501C135.945 133.929 137.105 135.087 138.535 135.087H154.679C156.109 135.087 157.268 133.929 157.268 132.501V124.06C157.268 122.632 156.109 121.474 154.679 121.474Z" fill="white"/>
</mask>
<g mask="url(#mask0_1120_12887)">
<path d="M139.834 121.238C141.73 123.657 144.724 129.127 139.588 135.438" stroke="#8EC3F4" stroke-width="0.5" stroke-miterlimit="10" stroke-linecap="round"/>
<path d="M134.576 128.154H142.397" stroke="#8EC3F4" stroke-width="0.5" stroke-miterlimit="10"/>
<path d="M152.791 121.238C150.904 123.657 147.91 129.127 153.046 135.438" stroke="#8EC3F4" stroke-width="0.5" stroke-miterlimit="10" stroke-linecap="round"/>
<path d="M158.05 128.154H150.228" stroke="#8EC3F4" stroke-width="0.5" stroke-miterlimit="10"/>
</g>
<path d="M69.9039 72.4655C69.905 72.0792 69.8298 71.6964 69.6825 71.3391C69.5353 70.9818 69.3188 70.657 69.0456 70.3834C68.7724 70.1098 68.4479 69.8928 68.0905 69.7446C67.7331 69.5965 67.35 69.5203 66.9631 69.5203H23.5442C23.1572 69.5203 22.7741 69.5965 22.4167 69.7446C22.0594 69.8928 21.7348 70.1098 21.4616 70.3834C21.1884 70.657 20.972 70.9818 20.8247 71.3391C20.6774 71.6964 20.6022 72.0792 20.6033 72.4655V95.9311C20.6033 96.7099 20.9132 97.4568 21.4647 98.0075C22.0162 98.5582 22.7642 98.8676 23.5442 98.8676H59.3257L62.6967 103.452C62.8963 103.777 63.1817 104.041 63.5214 104.214C63.8612 104.388 64.2423 104.465 64.623 104.437C65.0037 104.409 65.3694 104.277 65.6799 104.055C65.9905 103.834 66.2339 103.531 66.3837 103.18L69.2982 97.693C69.6885 97.1915 69.9014 96.575 69.9039 95.9399V72.4655Z" fill="#003096"/>
<path d="M61.6608 80.0216H28.4338C28.1847 80.0216 27.9458 79.9228 27.7696 79.7469C27.5935 79.571 27.4945 79.3324 27.4945 79.0837C27.4945 78.8349 27.5935 78.5963 27.7696 78.4205C27.9458 78.2446 28.1847 78.1458 28.4338 78.1458H61.6608C61.9099 78.1458 62.1488 78.2446 62.3249 78.4205C62.5011 78.5963 62.6001 78.8349 62.6001 79.0837C62.6001 79.3324 62.5011 79.571 62.3249 79.7469C62.1488 79.9228 61.9099 80.0216 61.6608 80.0216Z" fill="white"/>
<path d="M51.5654 84.413H28.4338C28.1847 84.413 27.9458 84.3141 27.7696 84.1382C27.5935 83.9623 27.4945 83.7238 27.4945 83.475C27.4945 83.2263 27.5935 82.9877 27.7696 82.8118C27.9458 82.6359 28.1847 82.5371 28.4338 82.5371H51.5654C51.8145 82.5371 52.0534 82.6359 52.2296 82.8118C52.4057 82.9877 52.5047 83.2263 52.5047 83.475C52.5047 83.7238 52.4057 83.9623 52.2296 84.1382C52.0534 84.3141 51.8145 84.413 51.5654 84.413Z" fill="white"/>
<path d="M57.1749 88.9186H28.4338C28.1847 88.9186 27.9458 88.8197 27.7696 88.6439C27.5935 88.468 27.4945 88.2294 27.4945 87.9806C27.4945 87.7319 27.5935 87.4933 27.7696 87.3174C27.9458 87.1415 28.1847 87.0427 28.4338 87.0427H57.1749C57.424 87.0427 57.6629 87.1415 57.8391 87.3174C58.0152 87.4933 58.1142 87.7319 58.1142 87.9806C58.1142 88.2294 58.0152 88.468 57.8391 88.6439C57.6629 88.8197 57.424 88.9186 57.1749 88.9186Z" fill="white"/>
<g opacity="0.35">
<path d="M191.015 224.503C191.445 210.183 180.168 198.226 165.827 197.797C151.486 197.367 139.511 208.628 139.081 222.948C138.65 237.268 149.928 249.225 164.269 249.654C178.61 250.084 190.585 238.823 191.015 224.503Z" fill="#9FCCFB"/>
</g>
<path d="M188.982 223.538C189.783 209.095 178.707 196.738 164.243 195.938C149.778 195.138 137.403 206.198 136.602 220.641C135.801 235.084 146.877 247.441 161.342 248.241C175.806 249.041 188.181 237.981 188.982 223.538Z" fill="#B4D8F9"/>
<path d="M166.567 241.134C177.333 238.832 184.191 228.25 181.885 217.5C179.579 206.749 168.982 199.901 158.216 202.204C147.449 204.507 140.591 215.088 142.897 225.839C145.203 236.589 155.801 243.437 166.567 241.134Z" fill="#71B7E2"/>
<path d="M182.884 222.402C182.907 226.287 181.775 230.092 179.632 233.335C177.488 236.578 174.43 239.114 170.843 240.621C167.257 242.128 163.303 242.54 159.483 241.803C155.662 241.066 152.146 239.215 149.379 236.483C146.612 233.751 144.719 230.261 143.938 226.454C143.158 222.648 143.526 218.695 144.996 215.098C146.465 211.5 148.97 208.418 152.194 206.242C155.417 204.065 159.215 202.893 163.106 202.872C165.689 202.857 168.25 203.35 170.642 204.324C173.034 205.297 175.211 206.732 177.047 208.545C178.884 210.359 180.345 212.516 181.346 214.894C182.348 217.271 182.87 219.822 182.884 222.402Z" fill="#FF725E"/>
<path d="M182.884 222.402C182.907 226.287 181.775 230.092 179.632 233.335C177.488 236.578 174.43 239.114 170.843 240.621C167.257 242.128 163.303 242.54 159.483 241.803C155.662 241.066 152.146 239.215 149.379 236.483C146.612 233.751 144.719 230.261 143.938 226.454C143.158 222.648 143.526 218.695 144.996 215.098C146.465 211.5 148.97 208.418 152.194 206.242C155.417 204.065 159.215 202.893 163.106 202.872C165.689 202.857 168.25 203.35 170.642 204.324C173.034 205.297 175.211 206.732 177.047 208.545C178.884 210.359 180.345 212.516 181.346 214.894C182.348 217.271 182.87 219.822 182.884 222.402Z" fill="#003096"/>
<path d="M163.993 220.806V215.784C164.913 215.882 165.814 216.109 166.67 216.459C167.111 216.681 167.531 216.942 167.926 217.239L167.996 217.09L168.76 215.275L168.935 214.854L168.057 213.917L167.627 214.118C166.494 213.527 165.251 213.175 163.975 213.084V210.323L163.097 209.639V210.331H161.921V213.145C158.032 213.54 156.197 215.775 156.215 218.308C156.215 221.771 159.208 222.647 161.974 223.305V228.283C160.164 228.146 158.43 227.502 156.97 226.425L155.864 228.941C157.661 230.22 159.802 230.929 162.009 230.974V233.061H161.034L162.009 233.718H164.063V230.931C167.978 230.51 169.83 228.301 169.822 225.768C169.778 222.314 166.758 221.464 163.993 220.806ZM161.939 220.289C160.49 219.877 159.419 219.334 159.41 218.142C159.402 216.949 160.148 216.143 161.912 215.863L161.939 220.289ZM164.028 228.222V223.839C165.52 224.26 166.661 224.821 166.661 226.039C166.618 227.091 165.819 227.942 164.063 228.222H164.028Z" fill="#71B7E2"/>
<path d="M163.185 230.256V233.052H161.166V230.291C158.959 230.245 156.818 229.537 155.021 228.257L156.127 225.733C157.586 226.812 159.32 227.46 161.131 227.6V222.621C158.366 221.963 155.39 221.078 155.372 217.624C155.372 215.082 157.189 212.856 161.078 212.461V209.648H163.124V212.418C164.911 212.48 166.653 212.993 168.189 213.908L167.188 216.424C165.941 215.711 164.561 215.26 163.132 215.1V220.131C165.906 220.789 168.926 221.648 168.944 225.101C168.97 227.635 167.109 229.835 163.185 230.256ZM161.078 219.614V215.179C159.323 215.468 158.559 216.371 158.568 217.467C158.576 218.562 159.674 219.202 161.087 219.614H161.078ZM165.757 225.338C165.757 224.12 164.642 223.585 163.124 223.138V227.521C165.002 227.258 165.766 226.408 165.766 225.338H165.757Z" fill="white"/>
<path d="M182.665 213.96C188.565 213.96 193.348 209.184 193.348 203.293C193.348 197.401 188.565 192.625 182.665 192.625C176.764 192.625 171.981 197.401 171.981 203.293C171.981 209.184 176.764 213.96 182.665 213.96Z" fill="#E4F1FF"/>
<path d="M179.057 203.073L180.488 206.282C180.522 206.357 180.574 206.423 180.64 206.473C180.706 206.523 180.783 206.556 180.865 206.569C180.947 206.582 181.03 206.575 181.109 206.548C181.187 206.52 181.257 206.474 181.313 206.413L186.668 200.602" stroke="#003096" stroke-width="1.52" stroke-miterlimit="10" stroke-linecap="round"/>
<path d="M182.638 212.111C187.53 212.111 191.496 208.151 191.496 203.266C191.496 198.382 187.53 194.422 182.638 194.422C177.747 194.422 173.781 198.382 173.781 203.266C173.781 208.151 177.747 212.111 182.638 212.111Z" stroke="white" stroke-width="0.5" stroke-miterlimit="10"/>
<path d="M41.4964 121.404C41.4964 121.404 44.7357 112.454 58.3864 116.329C67.4897 118.906 72.7832 126.12 72.1775 136.718C71.5455 147.911 78.6298 144.475 74.5038 160.648C71.7122 171.587 84.9679 180.59 72.9149 197.77C63.1531 211.681 7.9534 203.67 8.50645 179.669C8.7698 168.335 18.2507 173.638 18.8213 155.362C19.0583 147.605 33.859 150.19 31.875 138.427C30.8831 132.563 35.5796 120.659 41.4964 121.404Z" fill="#DE001D"/>
<path d="M58.2108 156.23C59.3589 157.03 60.2414 158.154 60.745 159.458C61.2487 160.762 61.3506 162.187 61.0375 163.549C60.0982 168.572 59.6856 173.305 63.9784 176.969" stroke="#B70825" stroke-width="0.5" stroke-miterlimit="10" stroke-linecap="round"/>
<path d="M68.2535 144.554C69.1314 148.586 70.8871 151.286 68.5081 156.765C63.4253 168.327 73.5909 170.737 68.71 181.308C67.2533 184.45 66.3023 187.802 65.8921 191.24" stroke="#B70825" stroke-width="0.5" stroke-miterlimit="10" stroke-linecap="round"/>
<path d="M70.4218 201.75H87.8561L82.5099 195.929L71.0714 197.656L70.4218 201.75Z" fill="#F7C2A0"/>
<path d="M38.7399 151.049C38.7399 151.049 33.7449 153.819 34.4208 159.07C35.2987 166.144 28.2758 167.248 30.0315 171.684" stroke="#B70825" stroke-width="0.5" stroke-miterlimit="10" stroke-linecap="round"/>
<path d="M36.5014 132.125C35.295 134.909 34.7829 137.944 35.009 140.969C36.0888 150.077 23.711 150.269 23.5969 159.465C23.5354 165.206 18.7423 168.721 15.6171 172.052" stroke="#B70825" stroke-width="0.5" stroke-miterlimit="10" stroke-linecap="round"/>
<path d="M121.619 306.192L121.583 316.808L111.769 316.886L110.215 308.226L121.619 306.192Z" fill="#E8977B"/>
<path d="M92.2892 309.515L91.3324 321.103L80.7191 322.058L78.9897 313.345L92.2892 309.515Z" fill="#E8977B"/>
<path d="M48.5105 231.124C59.7822 237.172 83.2649 249.146 96.582 251.556C97.1159 251.648 97.607 251.906 97.9853 252.294C98.3636 252.681 98.6098 253.177 98.6888 253.713L106.809 308.936C106.878 309.418 107.085 309.87 107.404 310.238C107.723 310.607 108.141 310.876 108.609 311.014C111.69 311.89 118.678 313.091 124.085 307.323C124.331 307.063 124.52 306.755 124.643 306.419C124.765 306.083 124.817 305.725 124.796 305.368C124.235 297.234 120.512 244.623 117.844 237.724C115.175 230.826 77.0672 223.313 72.4321 222.437C72.1275 222.38 71.815 222.38 71.5104 222.437L49.2654 226.399C48.7566 226.505 48.2921 226.762 47.9334 227.138C47.5747 227.513 47.3388 227.989 47.2569 228.501C47.175 229.014 47.251 229.539 47.4749 230.007C47.6988 230.476 48.0599 230.865 48.5105 231.124Z" fill="#003096"/>
<path d="M32.1735 234.674C32.2262 234.674 23.0613 251.942 68.9909 255.992C69.4845 256.057 69.9403 256.291 70.2811 256.654C70.6218 257.016 70.8266 257.485 70.8607 257.982L76.5668 313.652C76.6139 314.081 76.7826 314.488 77.0531 314.825C77.3237 315.162 77.6849 315.415 78.0943 315.554C80.7614 316.521 83.6376 316.763 86.4292 316.256C89.2207 315.75 91.8276 314.512 93.9835 312.67C94.2593 312.446 94.4813 312.162 94.6332 311.84C94.7851 311.519 94.8631 311.168 94.8614 310.812C94.6331 302.678 93.1057 249.935 90.7091 242.931C88.4091 236.181 54.5852 227.819 47.0093 226.022C46.5717 225.915 46.1121 225.942 45.6897 226.098C45.2673 226.254 44.9014 226.533 44.6391 226.899L32.1735 234.674Z" fill="#003096"/>
<path d="M30.0491 163.996C44.3845 159.736 61.7661 163.435 64.6104 164.285C67.8585 165.258 71.923 169.15 76.3035 177.907L80.6928 186.673L71.9142 189.303V222.682C64.0786 229.318 54.6592 233.82 44.5689 235.752L32.7178 237.864C32.4489 237.913 32.1726 237.9 31.9091 237.829C31.6455 237.757 31.4014 237.627 31.1944 237.449C30.9875 237.271 30.8229 237.049 30.7129 236.799C30.6028 236.55 30.55 236.278 30.5583 236.006L31.9189 193.484L16.9954 194.264C16.9954 194.264 16.3457 168.063 30.0491 163.996Z" fill="#FFFEFC"/>
<path d="M59.7032 194.869L32.9724 202.206L31.9277 193.484L19.506 194.045C19.506 194.045 16.7057 215.6 24.0884 216.02C35.2724 216.722 64.11 202.583 64.11 202.583L59.7032 194.869Z" fill="#F7C2A0"/>
<path d="M55.4104 127.663C56.2249 127.387 57.0991 127.336 57.94 127.517C58.781 127.697 59.5571 128.102 60.1859 128.688C63.2146 131.818 66.9981 137.305 65.7165 144.3C64.2329 152.391 62.3104 157.448 57.8157 157.352C56.3673 157.352 55.7352 158.465 55.6913 159.824L55.4192 164.058C54.0936 171.456 43.2521 172.525 40.1532 165.565L39.6441 164.426C39.453 164.014 39.354 163.565 39.354 163.111C39.354 162.657 39.453 162.208 39.6441 161.796C40.9521 159.061 44.1299 154.407 40.5746 144.081C40.3288 143.379 39.2402 140.96 39.9338 139.26C40.094 138.933 40.3289 138.65 40.6194 138.431C40.91 138.212 41.248 138.065 41.6061 138.001C41.9643 137.937 42.3325 137.958 42.681 138.062C43.0294 138.167 43.3484 138.352 43.612 138.602C43.8753 138.83 44.2353 138.865 44.9024 138.401C47.3078 136.805 47.4921 130.853 55.4104 127.663Z" fill="#F7C2A0"/>
<path d="M56.3761 127.487C56.3761 127.487 56.499 130.213 61.055 132.554C66.6119 135.42 63.1882 138.848 65.7691 142.906C68.4729 147.175 66.1203 139.04 66.1203 139.04L65.3302 129.766C63.7588 123.744 61.4589 119.8 55.6738 121.001C52.5661 121.649 49.5288 122.815 47.9574 124.893C43.7173 130.371 42.7868 142.862 42.7868 142.862C42.7868 142.862 47.4482 142.95 49.9062 137.103C52.6715 130.459 52.3467 129.398 56.3761 127.487Z" fill="#DE001D"/>
<path d="M82.826 176.146H72.1776C71.3049 176.146 70.5974 176.852 70.5974 177.723V200.777C70.5974 201.648 71.3049 202.355 72.1776 202.355H82.826C83.6987 202.355 84.4061 201.648 84.4061 200.777V177.723C84.4061 176.852 83.6987 176.146 82.826 176.146Z" fill="#1C004F"/>
<path d="M91.9908 193.703C89.1026 189.671 85.0733 182.115 83.7038 181.957C82.9664 181.869 82.7294 182.518 83.0542 184.052C84.0198 188.593 85.5824 189.478 81.2985 188.75L75.847 187.698C75.5599 187.64 75.2623 187.659 74.9854 187.755C74.7084 187.85 74.4623 188.018 74.2729 188.242C74.0834 188.465 73.9576 188.735 73.9087 189.023C73.8597 189.312 73.8894 189.608 73.9947 189.881C74.1753 190.266 74.4185 190.619 74.7145 190.924C74.7145 190.924 73.705 193.747 76.4 194.43C76.4 194.43 76.716 197.647 78.7351 197.788C80.8855 199.021 83.1243 200.093 85.4332 200.996C86.4292 201.661 87.6369 201.933 88.8225 201.76C90.008 201.587 91.087 200.98 91.8503 200.058L92.1927 199.646C92.8947 198.803 93.2621 197.732 93.2248 196.636C93.1876 195.54 92.7484 194.497 91.9908 193.703Z" fill="#F7C2A0"/>
<path d="M75.2149 190.951C76.8871 191.57 78.6408 191.942 80.4206 192.055" stroke="#F18884" stroke-width="0.5" stroke-miterlimit="10" stroke-linecap="round"/>
<path d="M76.795 194.51C78.236 195.064 79.7633 195.36 81.3072 195.386" stroke="#F18884" stroke-width="0.5" stroke-miterlimit="10" stroke-linecap="round"/>
<path d="M59.7031 194.869L62.9424 192.52C65.2863 187.865 69.6054 179.433 70.3867 179.845C71.168 180.257 71.4752 181.23 70.8958 183.079C69.5 187.506 70.1848 189.68 72.7042 189.487C73.5821 189.425 81 189.382 81 189.382C81 189.382 82.7557 190.968 80.4118 192.774C80.4118 192.774 80.9122 195.728 78.1382 195.956C78.1382 195.956 77.2603 199.059 75.2588 198.857C72.9249 199.693 70.5339 200.361 68.1042 200.856L64.11 202.609L59.7031 194.869Z" fill="#F7C2A0"/>
<path d="M79.9466 192.721C78.191 193.034 76.3998 193.096 74.6268 192.905" stroke="#F18884" stroke-width="0.5" stroke-miterlimit="10" stroke-linecap="round"/>
<path d="M77.7783 195.947C76.2641 196.24 74.7104 196.266 73.1871 196.026" stroke="#F18884" stroke-width="0.5" stroke-miterlimit="10" stroke-linecap="round"/>
<path d="M70.3867 179.844C71.2645 180.292 71.4752 181.229 70.8958 183.079C69.5 187.506 70.1848 189.68 72.7042 189.487C73.5821 189.425 81 189.381 81 189.381C81 189.381 82.7557 190.968 80.4118 192.774C80.4118 192.774 80.9122 195.728 78.1382 195.956C78.1382 195.956 77.2603 199.059 75.2588 198.857C72.9249 199.693 70.5339 200.361 68.1042 200.856" stroke="#F18884" stroke-width="0.5" stroke-miterlimit="10" stroke-linecap="round"/>
<path d="M78.7703 197.805C79.8325 198.323 83.7126 200.295 85.4683 201.014" stroke="#F18884" stroke-width="0.5" stroke-miterlimit="10" stroke-linecap="round"/>
<path d="M122.558 314.976C122.558 314.976 119.415 317.518 110.557 316.159C110.557 316.159 109.934 321.699 107.52 324.591C105.106 327.484 112.103 330.982 117.343 329.36C122.584 327.738 126.499 331.595 131.688 330.964C136.876 330.333 144.346 324.705 141.572 323.031C138.798 321.357 128.949 321.41 126.499 317.57C126.052 316.894 125.473 316.315 124.795 315.869C124.118 315.423 123.356 315.119 122.558 314.976Z" fill="#1C004F"/>
<path d="M129.168 328.816C133.917 330.228 139.22 324.723 139.22 324.723" stroke="white" stroke-width="0.5" stroke-miterlimit="10" stroke-linecap="round"/>
<path d="M109.68 325.512C109.68 325.512 111.567 327.756 115.895 327.265C120.376 326.871 124.89 327.384 129.168 328.773" stroke="white" stroke-width="0.5" stroke-miterlimit="10" stroke-linecap="round"/>
<path d="M92.5351 318.99C92.5351 318.99 87.5927 322.496 78.8229 320.647C78.8229 320.647 78.9458 325.906 76.3737 328.668C73.8016 331.429 80.5874 335.303 85.916 333.979C91.2446 332.656 94.9316 336.723 100.146 336.381C105.361 336.039 113.147 330.85 110.461 329.009C107.775 327.169 96.977 325.95 94.7385 321.997C94.202 320.864 93.4542 319.844 92.5351 318.99Z" fill="#1C004F"/>
<path d="M97.7496 334.093C102.411 335.768 108.021 330.587 108.021 330.587" stroke="white" stroke-width="0.5" stroke-miterlimit="10" stroke-linecap="round"/>
<path d="M78.4805 329.711C78.4805 329.711 80.2362 332.06 84.6255 331.858C89.1209 331.709 93.5999 332.47 97.7934 334.094" stroke="white" stroke-width="0.5" stroke-miterlimit="10" stroke-linecap="round"/>
<path d="M92.14 253.379C91.7011 248.295 91.2095 244.482 90.6828 242.931C89.366 239.056 77.6729 234.656 66.5065 231.272" stroke="white" stroke-width="0.5" stroke-miterlimit="10" stroke-linecap="round"/>
<path d="M91.8328 280.807C91.4904 272.839 91.0778 264.45 90.5862 257.376" stroke="white" stroke-width="0.5" stroke-miterlimit="10" stroke-linecap="round"/>
<path d="M82.5714 314.458C86.046 314.293 89.3599 312.948 91.9644 310.645C92.2425 310.424 92.4662 310.143 92.6184 309.822C92.7705 309.502 92.8471 309.151 92.8423 308.796C92.7721 306.166 92.5614 298.908 92.2366 290.037" stroke="white" stroke-width="0.5" stroke-miterlimit="10" stroke-linecap="round"/>
<path d="M79.2618 242.58C79.2618 242.58 79.5515 249.899 88.0404 252.476" stroke="white" stroke-width="0.5" stroke-miterlimit="10"/>
<path d="M108.293 236.409C109.753 240.94 112.955 244.707 117.194 246.884" stroke="white" stroke-width="0.5" stroke-miterlimit="10"/>
<path d="M110.215 308.235C114.58 308.207 118.829 306.825 122.373 304.281" stroke="white" stroke-width="0.5" stroke-miterlimit="10"/>
<path d="M38.0025 165.364C38.0025 165.364 39.5124 174.129 50.7929 171.85" stroke="#315782" stroke-width="0.5" stroke-miterlimit="10" stroke-linecap="round"/>
<path d="M56.7184 165.977C56.7184 165.977 56.815 168.423 53.5845 170.36" stroke="#315782" stroke-width="0.5" stroke-miterlimit="10" stroke-linecap="round"/>
<path d="M19.0934 192.178L28.4251 192.09" stroke="#315782" stroke-width="0.5" stroke-miterlimit="10" stroke-linecap="round"/>
<path d="M32.0067 193.3L32.9899 187.076" stroke="#315782" stroke-width="0.5" stroke-miterlimit="10" stroke-linecap="round"/>
<path d="M46.1754 231.641C42.2397 232.697 38.2318 233.465 34.1838 233.937" stroke="#315782" stroke-width="0.5" stroke-miterlimit="10" stroke-linecap="round"/>
<path d="M68.4905 220.868C68.4905 220.868 63.118 225.794 52.1974 229.747" stroke="#315782" stroke-width="0.5" stroke-miterlimit="10" stroke-linecap="round"/>
<path d="M54.2077 224.435C51.9026 225.355 49.4619 225.891 46.983 226.022" stroke="#315782" stroke-width="0.5" stroke-miterlimit="10" stroke-linecap="round"/>
<path d="M68.3764 215.766C65.4214 218.277 62.2149 220.477 58.8077 222.332" stroke="#315782" stroke-width="0.5" stroke-miterlimit="10" stroke-linecap="round"/>
<path d="M47.7906 237.698C47.7906 237.698 50.8105 244.158 45.7803 248.891" stroke="white" stroke-width="0.5" stroke-miterlimit="10"/>
</g>
<defs>
<clipPath id="clip0_1120_12887">
<rect width="324" height="342" fill="white"/>
</clipPath>
</defs>
</svg>
