<svg width="237" height="237" viewBox="0 0 237 237" fill="none" xmlns="http://www.w3.org/2000/svg">
<path d="M118.032 236.063C183.219 236.063 236.063 183.219 236.063 118.032C236.063 52.8446 183.219 0 118.032 0C52.8446 0 0 52.8446 0 118.032C0 183.219 52.8446 236.063 118.032 236.063Z" fill="white"/>
<path d="M117.878 237C88.6194 236.962 60.4178 226.059 38.7437 206.408C17.0697 186.756 3.46818 159.756 0.57766 130.645C-2.31286 101.534 5.71365 72.387 23.1002 48.8582C40.4868 25.3293 65.994 9.09575 94.674 3.30651C123.354 -2.48272 153.162 2.58502 178.317 17.5267C203.471 32.4684 222.179 56.2189 230.81 84.1712C239.442 112.123 237.382 142.285 225.031 168.805C212.68 195.324 190.917 216.312 163.965 227.697C149.385 233.867 133.71 237.031 117.878 237ZM117.878 0.936983C88.7961 0.975662 60.7652 11.8128 39.2225 31.3462C17.6798 50.8796 4.16101 77.7169 1.28851 106.652C-1.584 135.588 6.39452 164.558 23.6764 187.945C40.9583 211.331 66.3117 227.466 94.8185 233.22C123.325 238.974 152.954 233.937 177.956 219.085C202.958 204.234 221.553 180.627 230.132 152.843C238.711 125.06 236.664 95.0806 224.388 68.7209C212.111 42.3613 190.48 21.5001 163.691 10.1841C149.197 4.05194 133.616 0.906801 117.878 0.936983Z" fill="#31313B"/>
<path d="M118.5 223.885C176.703 223.885 223.885 176.703 223.885 118.5C223.885 60.2973 176.703 13.1146 118.5 13.1146C60.2973 13.1146 13.1146 60.2973 13.1146 118.5C13.1146 176.703 60.2973 223.885 118.5 223.885Z" fill="#003096"/>
<path d="M180.275 5.62061H169.434L99.1766 107.204L53.7483 56.1405H42.9066L44.1901 64.6125L15.9249 89.6674L95.7487 192.036H106.347L221.075 35.4694L180.275 5.62061Z" fill="#31313B"/>
<path d="M106.514 192.036L15.9249 89.9139L53.7497 56.2887L102.742 111.521L180.276 5.62061L221.075 35.5569L106.514 192.036Z" fill="white"/>
<path d="M106.488 192.036L106.197 191.711L14.9882 89.9008L53.5007 55.9995L53.7351 56.2621L102.646 110.86L180.459 5.62061L222.012 35.8015L221.803 36.0843L106.488 192.036ZM15.9851 89.9597L106.435 190.923L221.018 35.953L180.614 6.59869L102.701 111.972L53.4497 56.9877L15.9851 89.9597Z" fill="#31313B"/>
</svg>
